AnekDevanagari-CondensedExtraBold.ufo
<glyph name="quotedbl" format="2">
  <advance width="697"/>
  <unicode hex="0022"/>
  <outline>
    <contour>
      <point x="320" y="1324" type="line"/>
      <point x="38" y="1324" type="line"/>
      <point x="66" y="824" type="line"/>
      <point x="292" y="824" type="line"/>
    </contour>
    <contour>
      <point x="659" y="1324" type="line"/>
      <point x="377" y="1324" type="line"/>
      <point x="405" y="824" type="line"/>
      <point x="631" y="824" type="line"/>
    </contour>
  </outline>
</glyph>
<glyph name="A" format="2">
  <advance width="863"/>
  <unicode hex="0041"/>
  <anchor x="432" y="0" name="bottom"/>
  <anchor x="875" y="0" name="ogonek"/>
  <anchor x="432" y="1278" name="top"/>
  <outline>
    <contour>
      <point x="328" y="0" type="line"/>
      <point x="421" y="1052" type="line"/>
      <point x="442" y="1052" type="line"/>
      <point x="535" y="0" type="line"/>
      <point x="845" y="0" type="line"/>
      <point x="677" y="1278" type="line"/>
      <point x="186" y="1278" type="line"/>
      <point x="18" y="0" type="line"/>
    </contour>
    <contour>
      <point x="611" y="283" type="line"/>
      <point x="611" y="522" type="line"/>
      <point x="248" y="522" type="line"/>
      <point x="248" y="283" type="line"/>
    </contour>
  </outline>
</glyph>
<glyph name="E" format="2">
  <advance width="731"/>
  <unicode hex="0045"/>
  <anchor x="374" y="0" name="bottom"/>
  <anchor x="688" y="0" name="ogonek"/>
  <anchor x="374" y="1278" name="top"/>
  <anchor x="20" y="1278" name="topleft"/>
  <outline>
    <contour>
      <point x="383" y="0" type="line"/>
      <point x="383" y="1278" type="line"/>
      <point x="74" y="1278" type="line"/>
      <point x="74" y="0" type="line"/>
    </contour>
    <contour>
      <point x="679" y="0" type="line"/>
      <point x="679" y="280" type="line"/>
      <point x="284" y="280" type="line"/>
      <point x="284" y="0" type="line"/>
    </contour>
    <contour>
      <point x="668" y="514" type="line"/>
      <point x="668" y="783" type="line"/>
      <point x="284" y="783" type="line"/>
      <point x="284" y="514" type="line"/>
    </contour>
    <contour>
      <point x="679" y="1002" type="line"/>
      <point x="679" y="1278" type="line"/>
      <point x="284" y="1278" type="line"/>
      <point x="284" y="1002" type="line"/>
    </contour>
  </outline>
</glyph>
<glyph name="grave" format="2">
  <advance width="612"/>
  <unicode hex="0060"/>
  <anchor x="397" y="1006" name="_top"/>
  <anchor x="397" y="1366" name="top"/>
  <outline>
    <contour>
      <point x="100" y="1366" type="line"/>
      <point x="100" y="1366" type="line"/>
      <point x="282" y="1076" type="line"/>
      <point x="512" y="1076" type="line"/>
      <point x="512" y="1076" type="line"/>
      <point x="398" y="1366" type="line"/>
    </contour>
  </outline>
</glyph>
<glyph name="i" format="2">
  <advance width="442"/>
  <unicode hex="0069"/>
  <anchor x="221" y="0" name="bottom"/>
  <anchor x="402" y="0" name="ogonek"/>
  <outline>
    <contour>
      <point x="376" y="0" type="line"/>
      <point x="376" y="1006" type="line"/>
      <point x="66" y="1006" type="line"/>
      <point x="66" y="0" type="line"/>
    </contour>
    <contour>
      <point x="221" y="1063" type="curve" smooth="yes"/>
      <point x="330" y="1063"/>
      <point x="381" y="1122"/>
      <point x="381" y="1213" type="curve" smooth="yes"/>
      <point x="381" y="1224" type="line" smooth="yes"/>
      <point x="381" y="1315"/>
      <point x="330" y="1374"/>
      <point x="221" y="1374" type="curve" smooth="yes"/>
      <point x="112" y="1374"/>
      <point x="61" y="1315"/>
      <point x="61" y="1224" type="curve" smooth="yes"/>
      <point x="61" y="1213" type="line" smooth="yes"/>
      <point x="61" y="1122"/>
      <point x="112" y="1063"/>
    </contour>
  </outline>
</glyph>
<glyph name="j" format="2">
  <advance width="447"/>
  <unicode hex="006A"/>
  <outline>
    <contour>
      <point x="381" y="172" type="line"/>
      <point x="381" y="1006" type="line"/>
      <point x="70" y="1006" type="line"/>
      <point x="70" y="172" type="line"/>
    </contour>
    <contour>
      <point x="226" y="1063" type="curve" smooth="yes"/>
      <point x="335" y="1063"/>
      <point x="386" y="1122"/>
      <point x="386" y="1213" type="curve" smooth="yes"/>
      <point x="386" y="1224" type="line" smooth="yes"/>
      <point x="386" y="1315"/>
      <point x="335" y="1374"/>
      <point x="226" y="1374" type="curve" smooth="yes"/>
      <point x="117" y="1374"/>
      <point x="66" y="1315"/>
      <point x="66" y="1224" type="curve" smooth="yes"/>
      <point x="66" y="1213" type="line" smooth="yes"/>
      <point x="66" y="1122"/>
      <point x="117" y="1063"/>
    </contour>
    <contour>
      <point x="75" y="-361" type="curve" smooth="yes"/>
      <point x="297" y="-361"/>
      <point x="381" y="-234"/>
      <point x="381" y="-31" type="curve" smooth="yes"/>
      <point x="381" y="208" type="line"/>
      <point x="70" y="208" type="line"/>
      <point x="70" y="7" type="line" smooth="yes"/>
      <point x="70" y="-59"/>
      <point x="54" y="-100"/>
      <point x="-10" y="-100" type="curve" smooth="yes"/>
      <point x="-34" y="-100"/>
      <point x="-58" y="-94"/>
      <point x="-82" y="-86" type="curve"/>
      <point x="-63" y="-333" type="line"/>
      <point x="-28" y="-350"/>
      <point x="21" y="-361"/>
    </contour>
  </outline>
</glyph>
<glyph name="u" format="2">
  <advance width="873"/>
  <unicode hex="0075"/>
  <anchor x="437" y="0" name="bottom"/>
  <anchor x="833" y="0" name="ogonek"/>
  <anchor x="437" y="1006" name="top"/>
  <anchor x="867" y="1006" name="topright"/>
  <outline>
    <contour>
      <point x="62" y="1006" type="line"/>
      <point x="62" y="283" type="line" smooth="yes"/>
      <point x="62" y="86"/>
      <point x="125" y="-15"/>
      <point x="283" y="-15" type="curve" smooth="yes"/>
      <point x="428" y="-15"/>
      <point x="478" y="77"/>
      <point x="498" y="185" type="curve"/>
      <point x="561" y="185" type="line"/>
      <point x="498" y="305" type="line"/>
      <point x="491" y="270"/>
      <point x="467" y="244"/>
      <point x="432" y="244" type="curve" smooth="yes"/>
      <point x="386" y="244"/>
      <point x="373" y="276"/>
      <point x="373" y="342" type="curve" smooth="yes"/>
      <point x="373" y="1006" type="line"/>
    </contour>
    <contour>
      <point x="496" y="1006" type="line"/>
      <point x="496" y="224" type="line"/>
      <point x="511" y="224" type="line"/>
      <point x="500" y="0" type="line"/>
      <point x="807" y="0" type="line"/>
      <point x="807" y="1006" type="line"/>
    </contour>
  </outline>
</glyph>
<glyph name="exclamdown" format="2">
  <advance width="440"/>
  <unicode hex="00A1"/>
  <outline>
    <contour>
      <point x="97" y="577" type="line"/>
      <point x="56" y="-272" type="line"/>
      <point x="384" y="-272" type="line"/>
      <point x="343" y="577" type="line"/>
    </contour>
    <contour>
      <point x="224" y="1034" type="curve" smooth="yes"/>
      <point x="115" y="1034"/>
      <point x="64" y="968"/>
      <point x="64" y="852" type="curve" smooth="yes"/>
      <point x="64" y="835" type="line" smooth="yes"/>
      <point x="64" y="721"/>
      <point x="115" y="653"/>
      <point x="224" y="653" type="curve" smooth="yes"/>
      <point x="329" y="653"/>
      <point x="384" y="721"/>
      <point x="384" y="835" type="curve" smooth="yes"/>
      <point x="384" y="852" type="line" smooth="yes"/>
      <point x="384" y="968"/>
      <point x="329" y="1034"/>
    </contour>
  </outline>
</glyph>
<glyph name="sterling" format="2">
  <advance width="734"/>
  <unicode hex="00A3"/>
  <outline>
    <contour>
      <point x="638" y="571" type="line"/>
      <point x="650" y="785" type="line"/>
      <point x="52" y="785" type="line"/>
      <point x="40" y="571" type="line"/>
    </contour>
    <contour>
      <point x="265" y="295" type="line"/>
      <point x="392" y="313"/>
      <point x="462" y="353"/>
      <point x="462" y="479" type="curve" smooth="yes"/>
      <point x="462" y="620"/>
      <point x="432" y="784"/>
      <point x="432" y="925" type="curve" smooth="yes"/>
      <point x="432" y="985"/>
      <point x="454" y="1022"/>
      <point x="536" y="1022" type="curve" smooth="yes"/>
      <point x="582" y="1022"/>
      <point x="626" y="1016"/>
      <point x="672" y="1005" type="curve"/>
      <point x="654" y="1272" type="line"/>
      <point x="599" y="1289"/>
      <point x="526" y="1300"/>
      <point x="448" y="1300" type="curve" smooth="yes"/>
      <point x="200" y="1300"/>
      <point x="112" y="1183"/>
      <point x="112" y="969" type="curve" smooth="yes"/>
      <point x="112" y="825"/>
      <point x="142" y="660"/>
      <point x="142" y="516" type="curve" smooth="yes"/>
      <point x="142" y="378"/>
      <point x="117" y="341"/>
      <point x="75" y="301" type="curve" smooth="yes"/>
      <point x="49" y="277" type="line"/>
      <point x="49" y="0" type="line"/>
      <point x="694" y="0" type="line"/>
      <point x="694" y="285" type="line"/>
      <point x="265" y="285" type="line"/>
    </contour>
  </outline>
</glyph>
<glyph name="yen" format="2">
  <advance width="829"/>
  <unicode hex="00A5"/>
  <anchor x="415" y="0" name="bottom"/>
  <anchor x="415" y="1278" name="top"/>
  <anchor x="20" y="1278" name="topleft"/>
  <outline>
    <contour>
      <point x="758" y="498" type="line"/>
      <point x="769" y="689" type="line"/>
      <point x="508" y="689" type="line"/>
      <point x="466" y="498" type="line"/>
    </contour>
    <contour>
      <point x="65" y="217" type="line"/>
      <point x="758" y="217" type="line"/>
      <point x="769" y="399" type="line"/>
      <point x="76" y="399" type="line"/>
    </contour>
    <contour>
      <point x="76" y="689" type="line"/>
      <point x="65" y="498" type="line"/>
      <point x="339" y="498" type="line"/>
      <point x="294" y="689" type="line"/>
    </contour>
    <contour>
      <point x="563" y="312" type="line"/>
      <point x="829" y="1278" type="line"/>
      <point x="512" y="1278" type="line"/>
      <point x="457" y="930" type="line"/>
      <point x="424" y="702" type="line"/>
      <point x="408" y="702" type="line"/>
      <point x="375" y="930" type="line"/>
      <point x="317" y="1278" type="line"/>
      <point x="0" y="1278" type="line"/>
      <point x="269" y="312" type="line"/>
    </contour>
    <contour>
      <point x="569" y="0" type="line"/>
      <point x="569" y="612" type="line"/>
      <point x="263" y="612" type="line"/>
      <point x="263" y="0" type="line"/>
    </contour>
  </outline>
</glyph>
<glyph name="brokenbar" format="2">
  <advance width="444"/>
  <unicode hex="00A6"/>
  <outline>
    <contour>
      <point x="355" y="1426" type="line"/>
      <point x="89" y="1426" type="line"/>
      <point x="89" y="571" type="line"/>
      <point x="355" y="571" type="line"/>
    </contour>
    <contour>
      <point x="355" y="454" type="line"/>
      <point x="89" y="454" type="line"/>
      <point x="89" y="-401" type="line"/>
      <point x="355" y="-401" type="line"/>
    </contour>
  </outline>
</glyph>
<glyph name="logicalnot" format="2">
  <advance width="723"/>
  <unicode hex="00AC"/>
  <outline>
    <contour>
      <point x="680" y="660" type="line"/>
      <point x="414" y="660" type="line"/>
      <point x="414" y="299" type="line"/>
      <point x="680" y="299" type="line"/>
    </contour>
    <contour>
      <point x="680" y="508" type="line"/>
      <point x="680" y="765" type="line"/>
      <point x="53" y="765" type="line"/>
      <point x="53" y="508" type="line"/>
    </contour>
  </outline>
</glyph>
<glyph name="softhyphen" format="2">
  <advance width="567"/>
  <unicode hex="00AD"/>
  <outline>
    <contour>
      <point x="504" y="368" type="line"/>
      <point x="504" y="626" type="line"/>
      <point x="63" y="626" type="line"/>
      <point x="63" y="368" type="line"/>
    </contour>
  </outline>
</glyph>
<glyph name="periodcentered" format="2">
  <advance width="376"/>
  <unicode hex="00B7"/>
  <anchor x="188" y="317" name="_top"/>
  <anchor x="188" y="677" name="top"/>
  <outline>
    <contour>
      <point x="187" y="374" type="curve" smooth="yes"/>
      <point x="285" y="374"/>
      <point x="336" y="431"/>
      <point x="336" y="526" type="curve" smooth="yes"/>
      <point x="336" y="533" type="line" smooth="yes"/>
      <point x="336" y="628"/>
      <point x="285" y="685"/>
      <point x="187" y="685" type="curve" smooth="yes"/>
      <point x="90" y="685"/>
      <point x="40" y="628"/>
      <point x="40" y="533" type="curve" smooth="yes"/>
      <point x="40" y="526" type="line" smooth="yes"/>
      <point x="40" y="431"/>
      <point x="90" y="374"/>
    </contour>
  </outline>
</glyph>
<glyph name="onehalf" format="2">
  <advance width="1068"/>
  <unicode hex="00BD"/>
  <outline>
    <contour>
      <point x="322" y="594" type="line"/>
      <point x="322" y="1278" type="line"/>
      <point x="162" y="1278" type="line"/>
      <point x="20" y="1203" type="line"/>
      <point x="15" y="1002" type="line"/>
      <point x="117" y="1058" type="line"/>
      <point x="126" y="1058" type="line"/>
      <point x="127" y="594" type="line"/>
    </contour>
    <contour>
      <point x="323" y="0" type="line"/>
      <point x="878" y="1278" type="line"/>
      <point x="677" y="1278" type="line"/>
      <point x="122" y="0" type="line"/>
    </contour>
    <contour>
      <point x="1048" y="0" type="line"/>
      <point x="1048" y="172" type="line"/>
      <point x="812" y="172" type="line"/>
      <point x="882" y="145" type="line"/>
      <point x="882" y="178" type="line"/>
      <point x="966" y="286" type="line" smooth="yes"/>
      <point x="1012" y="346"/>
      <point x="1048" y="411"/>
      <point x="1048" y="488" type="curve" smooth="yes"/>
      <point x="1048" y="498" type="line" smooth="yes"/>
      <point x="1048" y="615"/>
      <point x="977" y="696"/>
      <point x="839" y="696" type="curve" smooth="yes"/>
      <point x="778" y="696"/>
      <point x="736" y="684"/>
      <point x="690" y="663" type="curve"/>
      <point x="675" y="494" type="line"/>
      <point x="696" y="504"/>
      <point x="730" y="519"/>
      <point x="773" y="519" type="curve" smooth="yes"/>
      <point x="826" y="519"/>
      <point x="841" y="495"/>
      <point x="841" y="461" type="curve" smooth="yes"/>
      <point x="841" y="458" type="line" smooth="yes"/>
      <point x="841" y="424"/>
      <point x="817" y="385"/>
      <point x="786" y="343" type="curve" smooth="yes"/>
      <point x="668" y="184" type="line"/>
      <point x="668" y="0" type="line"/>
    </contour>
  </outline>
</glyph>
<glyph name="threequarters" format="2">
  <advance width="1144"/>
  <unicode hex="00BE"/>
  <outline>
    <contour>
      <point x="176" y="582" type="curve" smooth="yes"/>
      <point x="337" y="582"/>
      <point x="409" y="655"/>
      <point x="409" y="776" type="curve" smooth="yes"/>
      <point x="409" y="789" type="line" smooth="yes"/>
      <point x="409" y="889"/>
      <point x="370" y="934"/>
      <point x="270" y="947" type="curve"/>
      <point x="283" y="921" type="line"/>
      <point x="283" y="951" type="line"/>
      <point x="370" y="969"/>
      <point x="406" y="1021"/>
      <point x="406" y="1104" type="curve" smooth="yes"/>
      <point x="406" y="1115" type="line" smooth="yes"/>
      <point x="406" y="1228"/>
      <point x="340" y="1291"/>
      <point x="202" y="1291" type="curve" smooth="yes"/>
      <point x="136" y="1291"/>
      <point x="79" y="1277"/>
      <point x="39" y="1259" type="curve"/>
      <point x="24" y="1091" type="line"/>
      <point x="53" y="1102"/>
      <point x="92" y="1115"/>
      <point x="137" y="1115" type="curve" smooth="yes"/>
      <point x="180" y="1115"/>
      <point x="198" y="1099"/>
      <point x="198" y="1070" type="curve" smooth="yes"/>
      <point x="198" y="1067" type="line" smooth="yes"/>
      <point x="198" y="1034"/>
      <point x="168" y="1024"/>
      <point x="124" y="1021" type="curve" smooth="yes"/>
      <point x="79" y="1018" type="line"/>
      <point x="79" y="862" type="line"/>
      <point x="129" y="859" type="line" smooth="yes"/>
      <point x="180" y="856"/>
      <point x="197" y="839"/>
      <point x="197" y="811" type="curve" smooth="yes"/>
      <point x="197" y="808" type="line" smooth="yes"/>
      <point x="197" y="778"/>
      <point x="179" y="759"/>
      <point x="131" y="759" type="curve" smooth="yes"/>
      <point x="87" y="759"/>
      <point x="55" y="769"/>
      <point x="19" y="782" type="curve"/>
      <point x="34" y="609" type="line"/>
      <point x="65" y="593"/>
      <point x="125" y="582"/>
    </contour>
    <contour>
      <point x="390" y="0" type="line"/>
      <point x="945" y="1278" type="line"/>
      <point x="744" y="1278" type="line"/>
      <point x="189" y="0" type="line"/>
    </contour>
    <contour>
      <point x="1084" y="0" type="line"/>
      <point x="1084" y="684" type="line"/>
      <point x="784" y="684" type="line"/>
      <point x="675" y="261" type="line"/>
      <point x="675" y="96" type="line"/>
      <point x="1134" y="96" type="line"/>
      <point x="1134" y="253" type="line"/>
      <point x="761" y="253" type="line"/>
      <point x="839" y="205" type="line"/>
      <point x="839" y="252" type="line"/>
      <point x="905" y="541" type="line"/>
      <point x="916" y="541" type="line"/>
      <point x="907" y="324" type="line"/>
      <point x="907" y="0" type="line"/>
    </contour>
  </outline>
</glyph>
<glyph name="Adieresis" format="2">
  <advance width="863"/>
  <unicode hex="00C4"/>
  <anchor x="432" y="0" name="bottom"/>
  <anchor x="875" y="0" name="ogonek"/>
  <anchor x="432" y="1618" name="top"/>
  <outline>
    <contour>
      <point x="328" y="0" type="line"/>
      <point x="421" y="1052" type="line"/>
      <point x="442" y="1052" type="line"/>
      <point x="535" y="0" type="line"/>
      <point x="845" y="0" type="line"/>
      <point x="677" y="1278" type="line"/>
      <point x="186" y="1278" type="line"/>
      <point x="18" y="0" type="line"/>
    </contour>
    <contour>
      <point x="611" y="283" type="line"/>
      <point x="611" y="522" type="line"/>
      <point x="248" y="522" type="line"/>
      <point x="248" y="283" type="line"/>
    </contour>
    <contour>
      <point x="279" y="1339" type="curve" smooth="yes"/>
      <point x="366" y="1339"/>
      <point x="410" y="1389"/>
      <point x="410" y="1485" type="curve" smooth="yes"/>
      <point x="410" y="1496" type="line" smooth="yes"/>
      <point x="410" y="1592"/>
      <point x="366" y="1642"/>
      <point x="279" y="1642" type="curve" smooth="yes"/>
      <point x="193" y="1642"/>
      <point x="150" y="1592"/>
      <point x="150" y="1496" type="curve" smooth="yes"/>
      <point x="150" y="1485" type="line" smooth="yes"/>
      <point x="150" y="1389"/>
      <point x="193" y="1339"/>
    </contour>
    <contour>
      <point x="583" y="1339" type="curve" smooth="yes"/>
      <point x="669" y="1339"/>
      <point x="713" y="1389"/>
      <point x="713" y="1485" type="curve" smooth="yes"/>
      <point x="713" y="1496" type="line" smooth="yes"/>
      <point x="713" y="1592"/>
      <point x="669" y="1642"/>
      <point x="583" y="1642" type="curve" smooth="yes"/>
      <point x="496" y="1642"/>
      <point x="454" y="1592"/>
      <point x="454" y="1496" type="curve" smooth="yes"/>
      <point x="454" y="1485" type="line" smooth="yes"/>
      <point x="454" y="1389"/>
      <point x="496" y="1339"/>
    </contour>
  </outline>
</glyph>
<glyph name="Aring" format="2">
  <advance width="863"/>
  <unicode hex="00C5"/>
  <anchor x="432" y="0" name="bottom"/>
  <anchor x="875" y="0" name="ogonek"/>
  <anchor x="432" y="1674" name="top"/>
  <outline>
    <contour>
      <point x="328" y="0" type="line"/>
      <point x="421" y="1052" type="line"/>
      <point x="442" y="1052" type="line"/>
      <point x="535" y="0" type="line"/>
      <point x="845" y="0" type="line"/>
      <point x="677" y="1278" type="line"/>
      <point x="186" y="1278" type="line"/>
      <point x="18" y="0" type="line"/>
    </contour>
    <contour>
      <point x="611" y="283" type="line"/>
      <point x="611" y="522" type="line"/>
      <point x="248" y="522" type="line"/>
      <point x="248" y="283" type="line"/>
    </contour>
    <contour>
      <point x="217" y="1501" type="line" smooth="yes"/>
      <point x="217" y="1400"/>
      <point x="279" y="1321"/>
      <point x="431" y="1321" type="curve" smooth="yes"/>
      <point x="583" y="1321"/>
      <point x="646" y="1400"/>
      <point x="646" y="1501" type="curve" smooth="yes"/>
      <point x="646" y="1508" type="line" smooth="yes"/>
      <point x="646" y="1610"/>
      <point x="583" y="1689"/>
      <point x="431" y="1689" type="curve" smooth="yes"/>
      <point x="279" y="1689"/>
      <point x="217" y="1610"/>
      <point x="217" y="1508" type="curve" smooth="yes"/>
    </contour>
    <contour>
      <point x="365" y="1507" type="line" smooth="yes"/>
      <point x="365" y="1544"/>
      <point x="390" y="1565"/>
      <point x="431" y="1565" type="curve" smooth="yes"/>
      <point x="472" y="1565"/>
      <point x="497" y="1544"/>
      <point x="497" y="1507" type="curve" smooth="yes"/>
      <point x="497" y="1503" type="line" smooth="yes"/>
      <point x="497" y="1465"/>
      <point x="472" y="1444"/>
      <point x="431" y="1444" type="curve" smooth="yes"/>
      <point x="390" y="1444"/>
      <point x="365" y="1465"/>
      <point x="365" y="1503" type="curve" smooth="yes"/>
    </contour>
  </outline>
</glyph>
<glyph name="Ecircumflex" format="2">
  <advance width="731"/>
  <unicode hex="00CA"/>
  <anchor x="374" y="0" name="bottom"/>
  <anchor x="688" y="0" name="ogonek"/>
  <anchor x="374" y="1598" name="top"/>
  <anchor x="20" y="1278" name="topleft"/>
  <outline>
    <contour>
      <point x="383" y="0" type="line"/>
      <point x="383" y="1278" type="line"/>
      <point x="74" y="1278" type="line"/>
      <point x="74" y="0" type="line"/>
    </contour>
    <contour>
      <point x="679" y="0" type="line"/>
      <point x="679" y="280" type="line"/>
      <point x="284" y="280" type="line"/>
      <point x="284" y="0" type="line"/>
    </contour>
    <contour>
      <point x="668" y="514" type="line"/>
      <point x="668" y="783" type="line"/>
      <point x="284" y="783" type="line"/>
      <point x="284" y="514" type="line"/>
    </contour>
    <contour>
      <point x="679" y="1002" type="line"/>
      <point x="679" y="1278" type="line"/>
      <point x="284" y="1278" type="line"/>
      <point x="284" y="1002" type="line"/>
    </contour>
    <contour>
      <point x="64" y="1348" type="line"/>
      <point x="64" y="1348" type="line"/>
      <point x="283" y="1348" type="line"/>
      <point x="370" y="1467" type="line"/>
      <point x="378" y="1467" type="line"/>
      <point x="464" y="1348" type="line"/>
      <point x="684" y="1348" type="line"/>
      <point x="684" y="1348" type="line"/>
      <point x="529" y="1618" type="line"/>
      <point x="218" y="1618" type="line"/>
    </contour>
  </outline>
</glyph>
<glyph name="Edieresis" format="2">
  <advance width="731"/>
  <unicode hex="00CB"/>
  <anchor x="374" y="0" name="bottom"/>
  <anchor x="688" y="0" name="ogonek"/>
  <anchor x="374" y="1618" name="top"/>
  <anchor x="20" y="1278" name="topleft"/>
  <outline>
    <contour>
      <point x="383" y="0" type="line"/>
      <point x="383" y="1278" type="line"/>
      <point x="74" y="1278" type="line"/>
      <point x="74" y="0" type="line"/>
    </contour>
    <contour>
      <point x="679" y="0" type="line"/>
      <point x="679" y="280" type="line"/>
      <point x="284" y="280" type="line"/>
      <point x="284" y="0" type="line"/>
    </contour>
    <contour>
      <point x="668" y="514" type="line"/>
      <point x="668" y="783" type="line"/>
      <point x="284" y="783" type="line"/>
      <point x="284" y="514" type="line"/>
    </contour>
    <contour>
      <point x="679" y="1002" type="line"/>
      <point x="679" y="1278" type="line"/>
      <point x="284" y="1278" type="line"/>
      <point x="284" y="1002" type="line"/>
    </contour>
    <contour>
      <point x="221" y="1339" type="curve" smooth="yes"/>
      <point x="308" y="1339"/>
      <point x="352" y="1389"/>
      <point x="352" y="1485" type="curve" smooth="yes"/>
      <point x="352" y="1496" type="line" smooth="yes"/>
      <point x="352" y="1592"/>
      <point x="308" y="1642"/>
      <point x="221" y="1642" type="curve" smooth="yes"/>
      <point x="135" y="1642"/>
      <point x="92" y="1592"/>
      <point x="92" y="1496" type="curve" smooth="yes"/>
      <point x="92" y="1485" type="line" smooth="yes"/>
      <point x="92" y="1389"/>
      <point x="135" y="1339"/>
    </contour>
    <contour>
      <point x="525" y="1339" type="curve" smooth="yes"/>
      <point x="611" y="1339"/>
      <point x="655" y="1389"/>
      <point x="655" y="1485" type="curve" smooth="yes"/>
      <point x="655" y="1496" type="line" smooth="yes"/>
      <point x="655" y="1592"/>
      <point x="611" y="1642"/>
      <point x="525" y="1642" type="curve" smooth="yes"/>
      <point x="438" y="1642"/>
      <point x="396" y="1592"/>
      <point x="396" y="1496" type="curve" smooth="yes"/>
      <point x="396" y="1485" type="line" smooth="yes"/>
      <point x="396" y="1389"/>
      <point x="438" y="1339"/>
    </contour>
  </outline>
</glyph>
<glyph name="Igrave" format="2">
  <advance width="468"/>
  <unicode hex="00CC"/>
  <anchor x="234" y="0" name="bottom"/>
  <anchor x="409" y="0" name="ogonek"/>
  <anchor x="165" y="1618" name="top"/>
  <anchor x="20" y="1278" name="topleft"/>
  <outline>
    <contour>
      <point x="394" y="1278" type="line"/>
      <point x="74" y="1278" type="line"/>
      <point x="74" y="0" type="line"/>
      <point x="394" y="0" type="line"/>
    </contour>
    <contour>
      <point x="-88" y="1618" type="line"/>
      <point x="-88" y="1618" type="line"/>
      <point x="125" y="1348" type="line"/>
      <point x="366" y="1348" type="line"/>
      <point x="366" y="1348" type="line"/>
      <point x="210" y="1618" type="line"/>
    </contour>
  </outline>
</glyph>
<glyph name="Iacute" format="2">
  <advance width="468"/>
  <unicode hex="00CD"/>
  <anchor x="234" y="0" name="bottom"/>
  <anchor x="409" y="0" name="ogonek"/>
  <anchor x="234" y="1618" name="top"/>
  <anchor x="20" y="1278" name="topleft"/>
  <outline>
    <contour>
      <point x="394" y="1278" type="line"/>
      <point x="74" y="1278" type="line"/>
      <point x="74" y="0" type="line"/>
      <point x="394" y="0" type="line"/>
    </contour>
    <contour>
      <point x="102" y="1348" type="line"/>
      <point x="102" y="1348" type="line"/>
      <point x="343" y="1348" type="line"/>
      <point x="556" y="1618" type="line"/>
      <point x="556" y="1618" type="line"/>
      <point x="258" y="1618" type="line"/>
    </contour>
  </outline>
</glyph>
<glyph name="Icircumflex" format="2">
  <advance width="468"/>
  <unicode hex="00CE"/>
  <anchor x="234" y="0" name="bottom"/>
  <anchor x="409" y="0" name="ogonek"/>
  <anchor x="234" y="1598" name="top"/>
  <anchor x="20" y="1278" name="topleft"/>
  <outline>
    <contour>
      <point x="394" y="1278" type="line"/>
      <point x="74" y="1278" type="line"/>
      <point x="74" y="0" type="line"/>
      <point x="394" y="0" type="line"/>
    </contour>
    <contour>
      <point x="-76" y="1348" type="line"/>
      <point x="-76" y="1348" type="line"/>
      <point x="143" y="1348" type="line"/>
      <point x="230" y="1467" type="line"/>
      <point x="238" y="1467" type="line"/>
      <point x="324" y="1348" type="line"/>
      <point x="544" y="1348" type="line"/>
      <point x="544" y="1348" type="line"/>
      <point x="389" y="1618" type="line"/>
      <point x="78" y="1618" type="line"/>
    </contour>
  </outline>
</glyph>
<glyph name="Ntilde" format="2">
  <advance width="991"/>
  <unicode hex="00D1"/>
  <anchor x="506" y="0" name="bottom"/>
  <anchor x="506" y="1611" name="top"/>
  <outline>
    <contour>
      <point x="74" y="1280" type="line"/>
      <point x="74" y="0" type="line"/>
      <point x="360" y="0" type="line"/>
      <point x="360" y="285" type="line"/>
      <point x="339" y="926" type="line"/>
      <point x="349" y="926" type="line"/>
      <point x="503" y="0" type="line"/>
      <point x="917" y="0" type="line"/>
      <point x="917" y="1280" type="line"/>
      <point x="633" y="1280" type="line"/>
      <point x="633" y="995" type="line"/>
      <point x="654" y="369" type="line"/>
      <point x="644" y="369" type="line"/>
      <point x="492" y="1280" type="line"/>
    </contour>
    <contour>
      <point x="620" y="1360" type="curve" smooth="yes"/>
      <point x="739" y="1360"/>
      <point x="785" y="1445"/>
      <point x="785" y="1571" type="curve" smooth="yes"/>
      <point x="785" y="1609" type="line"/>
      <point x="625" y="1609" type="line"/>
      <point x="625" y="1607" type="line"/>
      <point x="625" y="1568"/>
      <point x="615" y="1551"/>
      <point x="585" y="1551" type="curve" smooth="yes"/>
      <point x="534" y="1551"/>
      <point x="479" y="1597"/>
      <point x="397" y="1597" type="curve" smooth="yes"/>
      <point x="273" y="1597"/>
      <point x="226" y="1510"/>
      <point x="226" y="1392" type="curve" smooth="yes"/>
      <point x="226" y="1348" type="line"/>
      <point x="386" y="1348" type="line"/>
      <point x="386" y="1349" type="line"/>
      <point x="386" y="1387"/>
      <point x="396" y="1407"/>
      <point x="429" y="1407" type="curve" smooth="yes"/>
      <point x="479" y="1407"/>
      <point x="546" y="1360"/>
    </contour>
  </outline>
</glyph>
<glyph name="Udieresis" format="2">
  <advance width="925"/>
  <unicode hex="00DC"/>
  <anchor x="463" y="0" name="bottom"/>
  <anchor x="675" y="0" name="ogonek"/>
  <anchor x="463" y="1618" name="top"/>
  <anchor x="933" y="1278" name="topright"/>
  <outline>
    <contour>
      <point x="463" y="-22" type="curve" smooth="yes"/>
      <point x="730" y="-22"/>
      <point x="857" y="127"/>
      <point x="857" y="414" type="curve" smooth="yes"/>
      <point x="857" y="1278" type="line"/>
      <point x="537" y="1278" type="line"/>
      <point x="537" y="385" type="line" smooth="yes"/>
      <point x="537" y="289"/>
      <point x="521" y="248"/>
      <point x="463" y="248" type="curve" smooth="yes"/>
      <point x="404" y="248"/>
      <point x="388" y="289"/>
      <point x="388" y="385" type="curve" smooth="yes"/>
      <point x="388" y="1278" type="line"/>
      <point x="68" y="1278" type="line"/>
      <point x="68" y="414" type="line" smooth="yes"/>
      <point x="68" y="127"/>
      <point x="195" y="-22"/>
    </contour>
    <contour>
      <point x="310" y="1339" type="curve" smooth="yes"/>
      <point x="397" y="1339"/>
      <point x="441" y="1389"/>
      <point x="441" y="1485" type="curve" smooth="yes"/>
      <point x="441" y="1496" type="line" smooth="yes"/>
      <point x="441" y="1592"/>
      <point x="397" y="1642"/>
      <point x="310" y="1642" type="curve" smooth="yes"/>
      <point x="224" y="1642"/>
      <point x="181" y="1592"/>
      <point x="181" y="1496" type="curve" smooth="yes"/>
      <point x="181" y="1485" type="line" smooth="yes"/>
      <point x="181" y="1389"/>
      <point x="224" y="1339"/>
    </contour>
    <contour>
      <point x="614" y="1339" type="curve" smooth="yes"/>
      <point x="700" y="1339"/>
      <point x="744" y="1389"/>
      <point x="744" y="1485" type="curve" smooth="yes"/>
      <point x="744" y="1496" type="line" smooth="yes"/>
      <point x="744" y="1592"/>
      <point x="700" y="1642"/>
      <point x="614" y="1642" type="curve" smooth="yes"/>
      <point x="527" y="1642"/>
      <point x="485" y="1592"/>
      <point x="485" y="1496" type="curve" smooth="yes"/>
      <point x="485" y="1485" type="line" smooth="yes"/>
      <point x="485" y="1389"/>
      <point x="527" y="1339"/>
    </contour>
  </outline>
</glyph>
<glyph name="aring" format="2">
  <advance width="798"/>
  <unicode hex="00E5"/>
  <anchor x="402" y="0" name="bottom"/>
  <anchor x="765" y="0" name="ogonek"/>
  <anchor x="402" y="1425" name="top"/>
  <outline>
    <contour>
      <point x="739" y="0" type="line"/>
      <point x="739" y="638" type="line" smooth="yes"/>
      <point x="739" y="897"/>
      <point x="628" y="1024"/>
      <point x="379" y="1024" type="curve" smooth="yes"/>
      <point x="257" y="1024"/>
      <point x="158" y="989"/>
      <point x="92" y="952" type="curve"/>
      <point x="73" y="700" type="line"/>
      <point x="140" y="731"/>
      <point x="226" y="763"/>
      <point x="312" y="763" type="curve" smooth="yes"/>
      <point x="409" y="763"/>
      <point x="437" y="725"/>
      <point x="437" y="631" type="curve"/>
      <point x="443" y="607" type="line"/>
      <point x="443" y="215" type="line"/>
      <point x="454" y="215" type="line"/>
      <point x="443" y="0" type="line"/>
    </contour>
    <contour>
      <point x="246" y="-15" type="curve" smooth="yes"/>
      <point x="378" y="-15"/>
      <point x="421" y="70"/>
      <point x="441" y="182" type="curve"/>
      <point x="479" y="182" type="line"/>
      <point x="444" y="289" type="line"/>
      <point x="437" y="256"/>
      <point x="419" y="232"/>
      <point x="382" y="232" type="curve" smooth="yes"/>
      <point x="336" y="232"/>
      <point x="321" y="265"/>
      <point x="321" y="321" type="curve" smooth="yes"/>
      <point x="321" y="346" type="line" smooth="yes"/>
      <point x="321" y="396"/>
      <point x="345" y="419"/>
      <point x="395" y="431" type="curve" smooth="yes"/>
      <point x="503" y="457" type="line"/>
      <point x="469" y="658" type="line"/>
      <point x="316" y="624" type="line" smooth="yes"/>
      <point x="125" y="582"/>
      <point x="34" y="514"/>
      <point x="34" y="316" type="curve" smooth="yes"/>
      <point x="34" y="272" type="line" smooth="yes"/>
      <point x="34" y="86"/>
      <point x="104" y="-15"/>
    </contour>
    <contour>
      <point x="188" y="1243" type="line" smooth="yes"/>
      <point x="188" y="1142"/>
      <point x="250" y="1063"/>
      <point x="402" y="1063" type="curve" smooth="yes"/>
      <point x="554" y="1063"/>
      <point x="617" y="1142"/>
      <point x="617" y="1243" type="curve" smooth="yes"/>
      <point x="617" y="1250" type="line" smooth="yes"/>
      <point x="617" y="1352"/>
      <point x="554" y="1431"/>
      <point x="402" y="1431" type="curve" smooth="yes"/>
      <point x="250" y="1431"/>
      <point x="188" y="1352"/>
      <point x="188" y="1250" type="curve" smooth="yes"/>
    </contour>
    <contour>
      <point x="336" y="1249" type="line" smooth="yes"/>
      <point x="336" y="1286"/>
      <point x="361" y="1307"/>
      <point x="402" y="1307" type="curve" smooth="yes"/>
      <point x="443" y="1307"/>
      <point x="468" y="1286"/>
      <point x="468" y="1249" type="curve" smooth="yes"/>
      <point x="468" y="1245" type="line" smooth="yes"/>
      <point x="468" y="1207"/>
      <point x="443" y="1186"/>
      <point x="402" y="1186" type="curve" smooth="yes"/>
      <point x="361" y="1186"/>
      <point x="336" y="1207"/>
      <point x="336" y="1245" type="curve" smooth="yes"/>
    </contour>
  </outline>
</glyph>
<glyph name="ae" format="2">
  <advance width="1192"/>
  <unicode hex="00E6"/>
  <anchor x="596" y="0" name="bottom"/>
  <anchor x="596" y="1006" name="top"/>
  <outline>
    <contour>
      <point x="854" y="-15" type="curve" smooth="yes"/>
      <point x="957" y="-15"/>
      <point x="1051" y="6"/>
      <point x="1117" y="39" type="curve"/>
      <point x="1135" y="282" type="line"/>
      <point x="1074" y="259"/>
      <point x="1001" y="243"/>
      <point x="922" y="243" type="curve" smooth="yes"/>
      <point x="795" y="243"/>
      <point x="734" y="286"/>
      <point x="734" y="390" type="curve" smooth="yes"/>
      <point x="734" y="458" type="line"/>
      <point x="731" y="508" type="line"/>
      <point x="731" y="648" type="line" smooth="yes"/>
      <point x="731" y="740"/>
      <point x="744" y="780"/>
      <point x="798" y="780" type="curve" smooth="yes"/>
      <point x="851" y="780"/>
      <point x="864" y="740"/>
      <point x="864" y="648" type="curve" smooth="yes"/>
      <point x="864" y="590"/>
      <point x="864" y="504"/>
      <point x="864" y="384" type="curve"/>
      <point x="1133" y="384" type="line"/>
      <point x="1144" y="441"/>
      <point x="1148" y="502"/>
      <point x="1148" y="562" type="curve" smooth="yes"/>
      <point x="1148" y="642" type="line" smooth="yes"/>
      <point x="1148" y="894"/>
      <point x="1050" y="1025"/>
      <point x="843" y="1025" type="curve" smooth="yes"/>
      <point x="713" y="1025"/>
      <point x="629" y="973"/>
      <point x="583" y="871" type="curve"/>
      <point x="573" y="871" type="line"/>
      <point x="534" y="973"/>
      <point x="461" y="1024"/>
      <point x="336" y="1024" type="curve" smooth="yes"/>
      <point x="233" y="1024"/>
      <point x="151" y="990"/>
      <point x="95" y="954" type="curve"/>
      <point x="76" y="702" type="line"/>
      <point x="140" y="732"/>
      <point x="224" y="763"/>
      <point x="307" y="763" type="curve" smooth="yes"/>
      <point x="401" y="763"/>
      <point x="431" y="721"/>
      <point x="431" y="618" type="curve"/>
      <point x="434" y="497" type="line"/>
      <point x="434" y="398"/>
      <point x="438" y="350"/>
      <point x="450" y="268" type="curve"/>
      <point x="468" y="216" type="line"/>
      <point x="521" y="63"/>
      <point x="651" y="-15"/>
    </contour>
    <contour>
      <point x="254" y="-15" type="curve" smooth="yes"/>
      <point x="395" y="-15"/>
      <point x="451" y="61"/>
      <point x="481" y="162" type="curve"/>
      <point x="518" y="162" type="line"/>
      <point x="458" y="309" type="line"/>
      <point x="447" y="258"/>
      <point x="422" y="232"/>
      <point x="382" y="232" type="curve" smooth="yes"/>
      <point x="337" y="232"/>
      <point x="321" y="265"/>
      <point x="321" y="322" type="curve" smooth="yes"/>
      <point x="321" y="346" type="line" smooth="yes"/>
      <point x="321" y="396"/>
      <point x="345" y="419"/>
      <point x="395" y="431" type="curve" smooth="yes"/>
      <point x="503" y="457" type="line"/>
      <point x="469" y="658" type="line"/>
      <point x="316" y="624" type="line" smooth="yes"/>
      <point x="125" y="582"/>
      <point x="34" y="514"/>
      <point x="34" y="316" type="curve" smooth="yes"/>
      <point x="34" y="272" type="line" smooth="yes"/>
      <point x="34" y="88"/>
      <point x="106" y="-15"/>
    </contour>
    <contour>
      <point x="1067" y="384" type="line"/>
      <point x="1067" y="588" type="line"/>
      <point x="627" y="588" type="line"/>
      <point x="627" y="384" type="line"/>
    </contour>
  </outline>
</glyph>
<glyph name="igrave" format="2">
  <advance width="443"/>
  <unicode hex="00EC"/>
  <anchor x="221" y="0" name="bottom"/>
  <anchor x="396" y="0" name="ogonek"/>
  <anchor x="142" y="1366" name="top"/>
  <outline>
    <contour>
      <point x="377" y="0" type="line"/>
      <point x="377" y="1006" type="line"/>
      <point x="66" y="1006" type="line"/>
      <point x="66" y="0" type="line"/>
    </contour>
    <contour>
      <point x="-26" y="1366" type="line"/>
      <point x="-26" y="1366" type="line"/>
      <point x="106" y="1076" type="line"/>
      <point x="336" y="1076" type="line"/>
      <point x="336" y="1076" type="line"/>
      <point x="272" y="1366" type="line"/>
    </contour>
  </outline>
</glyph>
<glyph name="idieresis" format="2">
  <advance width="443"/>
  <unicode hex="00EF"/>
  <anchor x="221" y="0" name="bottom"/>
  <anchor x="396" y="0" name="ogonek"/>
  <anchor x="221" y="1366" name="top"/>
  <outline>
    <contour>
      <point x="377" y="0" type="line"/>
      <point x="377" y="1006" type="line"/>
      <point x="66" y="1006" type="line"/>
      <point x="66" y="0" type="line"/>
    </contour>
    <contour>
      <point x="85" y="1067" type="curve" smooth="yes"/>
      <point x="167" y="1067"/>
      <point x="209" y="1117"/>
      <point x="209" y="1213" type="curve" smooth="yes"/>
      <point x="209" y="1224" type="line" smooth="yes"/>
      <point x="209" y="1320"/>
      <point x="167" y="1370"/>
      <point x="85" y="1370" type="curve" smooth="yes"/>
      <point x="4" y="1370"/>
      <point x="-37" y="1320"/>
      <point x="-37" y="1224" type="curve" smooth="yes"/>
      <point x="-37" y="1213" type="line" smooth="yes"/>
      <point x="-37" y="1117"/>
      <point x="4" y="1067"/>
    </contour>
    <contour>
      <point x="355" y="1067" type="curve" smooth="yes"/>
      <point x="436" y="1067"/>
      <point x="478" y="1117"/>
      <point x="478" y="1213" type="curve" smooth="yes"/>
      <point x="478" y="1224" type="line" smooth="yes"/>
      <point x="478" y="1320"/>
      <point x="436" y="1370"/>
      <point x="355" y="1370" type="curve" smooth="yes"/>
      <point x="273" y="1370"/>
      <point x="233" y="1320"/>
      <point x="233" y="1224" type="curve" smooth="yes"/>
      <point x="233" y="1213" type="line" smooth="yes"/>
      <point x="233" y="1117"/>
      <point x="273" y="1067"/>
    </contour>
  </outline>
</glyph>
<glyph name="ntilde" format="2">
  <advance width="873"/>
  <unicode hex="00F1"/>
  <anchor x="437" y="0" name="bottom"/>
  <anchor x="438" y="1366" name="top"/>
  <outline>
    <contour>
      <point x="811" y="0" type="line"/>
      <point x="811" y="723" type="line" smooth="yes"/>
      <point x="811" y="920"/>
      <point x="748" y="1021"/>
      <point x="590" y="1021" type="curve" smooth="yes"/>
      <point x="445" y="1021"/>
      <point x="395" y="929"/>
      <point x="375" y="821" type="curve"/>
      <point x="312" y="821" type="line"/>
      <point x="375" y="701" type="line"/>
      <point x="382" y="736"/>
      <point x="406" y="762"/>
      <point x="441" y="762" type="curve" smooth="yes"/>
      <point x="487" y="762"/>
      <point x="500" y="730"/>
      <point x="500" y="664" type="curve" smooth="yes"/>
      <point x="500" y="0" type="line"/>
    </contour>
    <contour>
      <point x="377" y="0" type="line"/>
      <point x="377" y="782" type="line"/>
      <point x="362" y="782" type="line"/>
      <point x="373" y="1006" type="line"/>
      <point x="66" y="1006" type="line"/>
      <point x="66" y="0" type="line"/>
    </contour>
    <contour>
      <point x="552" y="1088" type="curve" smooth="yes"/>
      <point x="671" y="1088"/>
      <point x="717" y="1175"/>
      <point x="717" y="1301" type="curve" smooth="yes"/>
      <point x="717" y="1350" type="line"/>
      <point x="557" y="1350" type="line"/>
      <point x="557" y="1348" type="line"/>
      <point x="557" y="1309"/>
      <point x="547" y="1291"/>
      <point x="518" y="1291" type="curve" smooth="yes"/>
      <point x="466" y="1291"/>
      <point x="412" y="1338"/>
      <point x="325" y="1338" type="curve" smooth="yes"/>
      <point x="205" y="1338"/>
      <point x="158" y="1248"/>
      <point x="158" y="1119" type="curve" smooth="yes"/>
      <point x="158" y="1076" type="line"/>
      <point x="318" y="1076" type="line"/>
      <point x="318" y="1078" type="line"/>
      <point x="318" y="1116"/>
      <point x="328" y="1137"/>
      <point x="361" y="1137" type="curve" smooth="yes"/>
      <point x="411" y="1137"/>
      <point x="478" y="1088"/>
    </contour>
  </outline>
</glyph>
<glyph name="ograve" format="2">
  <advance width="843"/>
  <unicode hex="00F2"/>
  <anchor x="422" y="0" name="bottom"/>
  <anchor x="422" y="503" name="center"/>
  <anchor x="655" y="10" name="ogonek"/>
  <anchor x="343" y="1366" name="top"/>
  <anchor x="851" y="1006" name="topright"/>
  <outline>
    <contour>
      <point x="422" y="-20" type="curve" smooth="yes"/>
      <point x="670" y="-20"/>
      <point x="795" y="124"/>
      <point x="795" y="402" type="curve" smooth="yes"/>
      <point x="795" y="605" type="line" smooth="yes"/>
      <point x="795" y="883"/>
      <point x="670" y="1026"/>
      <point x="422" y="1026" type="curve" smooth="yes"/>
      <point x="173" y="1026"/>
      <point x="48" y="883"/>
      <point x="48" y="605" type="curve" smooth="yes"/>
      <point x="48" y="402" type="line" smooth="yes"/>
      <point x="48" y="124"/>
      <point x="173" y="-20"/>
    </contour>
    <contour>
      <point x="422" y="232" type="curve" smooth="yes"/>
      <point x="370" y="232"/>
      <point x="355" y="273"/>
      <point x="355" y="365" type="curve" smooth="yes"/>
      <point x="355" y="642" type="line" smooth="yes"/>
      <point x="355" y="734"/>
      <point x="370" y="774"/>
      <point x="422" y="774" type="curve" smooth="yes"/>
      <point x="473" y="774"/>
      <point x="488" y="734"/>
      <point x="488" y="642" type="curve" smooth="yes"/>
      <point x="488" y="365" type="line" smooth="yes"/>
      <point x="488" y="273"/>
      <point x="473" y="232"/>
    </contour>
    <contour>
      <point x="125" y="1366" type="line"/>
      <point x="125" y="1366" type="line"/>
      <point x="307" y="1076" type="line"/>
      <point x="537" y="1076" type="line"/>
      <point x="537" y="1076" type="line"/>
      <point x="423" y="1366" type="line"/>
    </contour>
  </outline>
</glyph>
<glyph name="ocircumflex" format="2">
  <advance width="843"/>
  <unicode hex="00F4"/>
  <anchor x="422" y="0" name="bottom"/>
  <anchor x="422" y="503" name="center"/>
  <anchor x="655" y="10" name="ogonek"/>
  <anchor x="422" y="1345" name="top"/>
  <anchor x="851" y="1006" name="topright"/>
  <outline>
    <contour>
      <point x="422" y="-20" type="curve" smooth="yes"/>
      <point x="670" y="-20"/>
      <point x="795" y="124"/>
      <point x="795" y="402" type="curve" smooth="yes"/>
      <point x="795" y="605" type="line" smooth="yes"/>
      <point x="795" y="883"/>
      <point x="670" y="1026"/>
      <point x="422" y="1026" type="curve" smooth="yes"/>
      <point x="173" y="1026"/>
      <point x="48" y="883"/>
      <point x="48" y="605" type="curve" smooth="yes"/>
      <point x="48" y="402" type="line" smooth="yes"/>
      <point x="48" y="124"/>
      <point x="173" y="-20"/>
    </contour>
    <contour>
      <point x="422" y="232" type="curve" smooth="yes"/>
      <point x="370" y="232"/>
      <point x="355" y="273"/>
      <point x="355" y="365" type="curve" smooth="yes"/>
      <point x="355" y="642" type="line" smooth="yes"/>
      <point x="355" y="734"/>
      <point x="370" y="774"/>
      <point x="422" y="774" type="curve" smooth="yes"/>
      <point x="473" y="774"/>
      <point x="488" y="734"/>
      <point x="488" y="642" type="curve" smooth="yes"/>
      <point x="488" y="365" type="line" smooth="yes"/>
      <point x="488" y="273"/>
      <point x="473" y="232"/>
    </contour>
    <contour>
      <point x="142" y="1076" type="line"/>
      <point x="142" y="1076" type="line"/>
      <point x="356" y="1076" type="line"/>
      <point x="418" y="1215" type="line"/>
      <point x="426" y="1215" type="line"/>
      <point x="488" y="1076" type="line"/>
      <point x="702" y="1076" type="line"/>
      <point x="702" y="1076" type="line"/>
      <point x="587" y="1366" type="line"/>
      <point x="256" y="1366" type="line"/>
    </contour>
  </outline>
</glyph>
<glyph name="otilde" format="2">
  <advance width="843"/>
  <unicode hex="00F5"/>
  <anchor x="422" y="0" name="bottom"/>
  <anchor x="422" y="503" name="center"/>
  <anchor x="655" y="10" name="ogonek"/>
  <anchor x="423" y="1366" name="top"/>
  <anchor x="851" y="1006" name="topright"/>
  <outline>
    <contour>
      <point x="422" y="-20" type="curve" smooth="yes"/>
      <point x="670" y="-20"/>
      <point x="795" y="124"/>
      <point x="795" y="402" type="curve" smooth="yes"/>
      <point x="795" y="605" type="line" smooth="yes"/>
      <point x="795" y="883"/>
      <point x="670" y="1026"/>
      <point x="422" y="1026" type="curve" smooth="yes"/>
      <point x="173" y="1026"/>
      <point x="48" y="883"/>
      <point x="48" y="605" type="curve" smooth="yes"/>
      <point x="48" y="402" type="line" smooth="yes"/>
      <point x="48" y="124"/>
      <point x="173" y="-20"/>
    </contour>
    <contour>
      <point x="422" y="232" type="curve" smooth="yes"/>
      <point x="370" y="232"/>
      <point x="355" y="273"/>
      <point x="355" y="365" type="curve" smooth="yes"/>
      <point x="355" y="642" type="line" smooth="yes"/>
      <point x="355" y="734"/>
      <point x="370" y="774"/>
      <point x="422" y="774" type="curve" smooth="yes"/>
      <point x="473" y="774"/>
      <point x="488" y="734"/>
      <point x="488" y="642" type="curve" smooth="yes"/>
      <point x="488" y="365" type="line" smooth="yes"/>
      <point x="488" y="273"/>
      <point x="473" y="232"/>
    </contour>
    <contour>
      <point x="537" y="1088" type="curve" smooth="yes"/>
      <point x="656" y="1088"/>
      <point x="702" y="1175"/>
      <point x="702" y="1301" type="curve" smooth="yes"/>
      <point x="702" y="1350" type="line"/>
      <point x="542" y="1350" type="line"/>
      <point x="542" y="1348" type="line"/>
      <point x="542" y="1309"/>
      <point x="532" y="1291"/>
      <point x="503" y="1291" type="curve" smooth="yes"/>
      <point x="451" y="1291"/>
      <point x="397" y="1338"/>
      <point x="310" y="1338" type="curve" smooth="yes"/>
      <point x="190" y="1338"/>
      <point x="143" y="1248"/>
      <point x="143" y="1119" type="curve" smooth="yes"/>
      <point x="143" y="1076" type="line"/>
      <point x="303" y="1076" type="line"/>
      <point x="303" y="1078" type="line"/>
      <point x="303" y="1116"/>
      <point x="313" y="1137"/>
      <point x="346" y="1137" type="curve" smooth="yes"/>
      <point x="396" y="1137"/>
      <point x="463" y="1088"/>
    </contour>
  </outline>
</glyph>
<glyph name="odieresis" format="2">
  <advance width="843"/>
  <unicode hex="00F6"/>
  <anchor x="422" y="0" name="bottom"/>
  <anchor x="422" y="503" name="center"/>
  <anchor x="655" y="10" name="ogonek"/>
  <anchor x="422" y="1366" name="top"/>
  <anchor x="851" y="1006" name="topright"/>
  <outline>
    <contour>
      <point x="422" y="-20" type="curve" smooth="yes"/>
      <point x="670" y="-20"/>
      <point x="795" y="124"/>
      <point x="795" y="402" type="curve" smooth="yes"/>
      <point x="795" y="605" type="line" smooth="yes"/>
      <point x="795" y="883"/>
      <point x="670" y="1026"/>
      <point x="422" y="1026" type="curve" smooth="yes"/>
      <point x="173" y="1026"/>
      <point x="48" y="883"/>
      <point x="48" y="605" type="curve" smooth="yes"/>
      <point x="48" y="402" type="line" smooth="yes"/>
      <point x="48" y="124"/>
      <point x="173" y="-20"/>
    </contour>
    <contour>
      <point x="422" y="232" type="curve" smooth="yes"/>
      <point x="370" y="232"/>
      <point x="355" y="273"/>
      <point x="355" y="365" type="curve" smooth="yes"/>
      <point x="355" y="642" type="line" smooth="yes"/>
      <point x="355" y="734"/>
      <point x="370" y="774"/>
      <point x="422" y="774" type="curve" smooth="yes"/>
      <point x="473" y="774"/>
      <point x="488" y="734"/>
      <point x="488" y="642" type="curve" smooth="yes"/>
      <point x="488" y="365" type="line" smooth="yes"/>
      <point x="488" y="273"/>
      <point x="473" y="232"/>
    </contour>
    <contour>
      <point x="269" y="1067" type="curve" smooth="yes"/>
      <point x="356" y="1067"/>
      <point x="400" y="1117"/>
      <point x="400" y="1213" type="curve" smooth="yes"/>
      <point x="400" y="1224" type="line" smooth="yes"/>
      <point x="400" y="1320"/>
      <point x="356" y="1370"/>
      <point x="269" y="1370" type="curve" smooth="yes"/>
      <point x="183" y="1370"/>
      <point x="140" y="1320"/>
      <point x="140" y="1224" type="curve" smooth="yes"/>
      <point x="140" y="1213" type="line" smooth="yes"/>
      <point x="140" y="1117"/>
      <point x="183" y="1067"/>
    </contour>
    <contour>
      <point x="573" y="1067" type="curve" smooth="yes"/>
      <point x="659" y="1067"/>
      <point x="703" y="1117"/>
      <point x="703" y="1213" type="curve" smooth="yes"/>
      <point x="703" y="1224" type="line" smooth="yes"/>
      <point x="703" y="1320"/>
      <point x="659" y="1370"/>
      <point x="573" y="1370" type="curve" smooth="yes"/>
      <point x="486" y="1370"/>
      <point x="444" y="1320"/>
      <point x="444" y="1224" type="curve" smooth="yes"/>
      <point x="444" y="1213" type="line" smooth="yes"/>
      <point x="444" y="1117"/>
      <point x="486" y="1067"/>
    </contour>
  </outline>
</glyph>
<glyph name="ugrave" format="2">
  <advance width="873"/>
  <unicode hex="00F9"/>
  <anchor x="437" y="0" name="bottom"/>
  <anchor x="833" y="0" name="ogonek"/>
  <anchor x="358" y="1366" name="top"/>
  <anchor x="867" y="1006" name="topright"/>
  <outline>
    <contour>
      <point x="62" y="1006" type="line"/>
      <point x="62" y="283" type="line" smooth="yes"/>
      <point x="62" y="86"/>
      <point x="125" y="-15"/>
      <point x="283" y="-15" type="curve" smooth="yes"/>
      <point x="428" y="-15"/>
      <point x="478" y="77"/>
      <point x="498" y="185" type="curve"/>
      <point x="561" y="185" type="line"/>
      <point x="498" y="305" type="line"/>
      <point x="491" y="270"/>
      <point x="467" y="244"/>
      <point x="432" y="244" type="curve" smooth="yes"/>
      <point x="386" y="244"/>
      <point x="373" y="276"/>
      <point x="373" y="342" type="curve" smooth="yes"/>
      <point x="373" y="1006" type="line"/>
    </contour>
    <contour>
      <point x="496" y="1006" type="line"/>
      <point x="496" y="224" type="line"/>
      <point x="511" y="224" type="line"/>
      <point x="500" y="0" type="line"/>
      <point x="807" y="0" type="line"/>
      <point x="807" y="1006" type="line"/>
    </contour>
    <contour>
      <point x="140" y="1366" type="line"/>
      <point x="140" y="1366" type="line"/>
      <point x="322" y="1076" type="line"/>
      <point x="552" y="1076" type="line"/>
      <point x="552" y="1076" type="line"/>
      <point x="438" y="1366" type="line"/>
    </contour>
  </outline>
</glyph>
<glyph name="thorn" format="2">
  <advance width="865"/>
  <unicode hex="00FE"/>
  <anchor x="431" y="0" name="bottom"/>
  <anchor x="431" y="1006" name="top"/>
  <outline>
    <contour>
      <point x="584" y="-15" type="curve" smooth="yes"/>
      <point x="754" y="-15"/>
      <point x="814" y="118"/>
      <point x="814" y="381" type="curve" smooth="yes"/>
      <point x="814" y="607" type="line" smooth="yes"/>
      <point x="814" y="878"/>
      <point x="754" y="1021"/>
      <point x="586" y="1021" type="curve" smooth="yes"/>
      <point x="450" y="1021"/>
      <point x="400" y="937"/>
      <point x="382" y="821" type="curve"/>
      <point x="312" y="821" type="line"/>
      <point x="369" y="708" type="line"/>
      <point x="378" y="745"/>
      <point x="402" y="769"/>
      <point x="439" y="769" type="curve" smooth="yes"/>
      <point x="489" y="769"/>
      <point x="503" y="729"/>
      <point x="503" y="642" type="curve" smooth="yes"/>
      <point x="503" y="374" type="line" smooth="yes"/>
      <point x="503" y="287"/>
      <point x="489" y="245"/>
      <point x="439" y="245" type="curve" smooth="yes"/>
      <point x="389" y="245"/>
      <point x="371" y="283"/>
      <point x="371" y="359" type="curve"/>
      <point x="325" y="190" type="line"/>
      <point x="382" y="190" type="line"/>
      <point x="399" y="75"/>
      <point x="450" y="-15"/>
    </contour>
    <contour>
      <point x="375" y="-350" type="line"/>
      <point x="375" y="-77" type="line"/>
      <point x="371" y="226" type="line"/>
      <point x="371" y="256" type="line"/>
      <point x="371" y="747" type="line"/>
      <point x="371" y="783" type="line"/>
      <point x="375" y="1106" type="line"/>
      <point x="375" y="1324" type="line"/>
      <point x="66" y="1324" type="line"/>
      <point x="66" y="-350" type="line"/>
    </contour>
  </outline>
</glyph>
<glyph name="circumflexcomb" format="2">
  <advance width="760"/>
  <unicode hex="0302"/>
  <anchor x="380" y="1006" name="_top"/>
  <anchor x="380" y="1345" name="top"/>
  <outline>
    <contour>
      <point x="100" y="1076" type="line"/>
      <point x="100" y="1076" type="line"/>
      <point x="314" y="1076" type="line"/>
      <point x="376" y="1215" type="line"/>
      <point x="384" y="1215" type="line"/>
      <point x="446" y="1076" type="line"/>
      <point x="660" y="1076" type="line"/>
      <point x="660" y="1076" type="line"/>
      <point x="545" y="1366" type="line"/>
      <point x="214" y="1366" type="line"/>
    </contour>
  </outline>
</glyph>
<glyph name="Bindu.dv" format="2">
  <unicode hex="0902"/>
  <anchor x="-233" y="1255" name="_top"/>
  <outline>
    <contour>
      <point x="-233" y="1402" type="curve" smooth="yes"/>
      <point x="-338" y="1402"/>
      <point x="-390" y="1465"/>
      <point x="-390" y="1571" type="curve" smooth="yes"/>
      <point x="-390" y="1584" type="line" smooth="yes"/>
      <point x="-390" y="1688"/>
      <point x="-338" y="1752"/>
      <point x="-233" y="1752" type="curve" smooth="yes"/>
      <point x="-128" y="1752"/>
      <point x="-77" y="1688"/>
      <point x="-77" y="1584" type="curve" smooth="yes"/>
      <point x="-77" y="1571" type="line" smooth="yes"/>
      <point x="-77" y="1465"/>
      <point x="-128" y="1402"/>
    </contour>
  </outline>
</glyph>
<glyph name="vowelShortA.dv" format="2">
  <advance width="1189"/>
  <unicode hex="0904"/>
  <anchor x="1053" y="1255" name="top"/>
  <outline>
    <contour>
      <point x="582.553" y="1780.45" type="curve"/>
      <point x="582.553" y="1689.63"/>
      <point x="611.124" y="1660.04"/>
      <point x="707.042" y="1656.98" type="curve" smooth="yes"/>
      <point x="769.286" y="1654.94" type="line" smooth="yes"/>
      <point x="1001.94" y="1647.79"/>
      <point x="1084.59" y="1535.55"/>
      <point x="1084.59" y="1327.39" type="curve" smooth="yes"/>
      <point x="1084.59" y="1243.71" type="line"/>
      <point x="817.245" y="1243.71" type="line"/>
      <point x="817.245" y="1318.2" type="line" smooth="yes"/>
      <point x="817.245" y="1382.49"/>
      <point x="802.959" y="1410.04"/>
      <point x="722.348" y="1414.12" type="curve" smooth="yes"/>
      <point x="649.899" y="1417.18" type="line" smooth="yes"/>
      <point x="425.411" y="1428.41"/>
      <point x="322.351" y="1505.96"/>
      <point x="322.351" y="1677.38" type="curve" smooth="yes"/>
      <point x="322.351" y="1714.12"/>
      <point x="328.473" y="1753.91"/>
      <point x="340.718" y="1789.63" type="curve"/>
      <point x="582.553" y="1789.63" type="line"/>
      <point x="582.553" y="1788.14"/>
      <point x="582.553" y="1782.03"/>
    </contour>
    <contour>
      <point x="1230" y="1067" type="line"/>
      <point x="712" y="1067" type="line"/>
      <point x="698" y="1308" type="line"/>
      <point x="1216" y="1308" type="line"/>
    </contour>
    <contour>
      <point x="803" y="4.19073e-07" type="line"/>
      <point x="803" y="1159" type="line"/>
      <point x="1107" y="1159" type="line"/>
      <point x="1107" y="4.19073e-07" type="line"/>
    </contour>
    <contour>
      <point x="34" y="339" type="line"/>
      <point x="93" y="302"/>
      <point x="167" y="274"/>
      <point x="248" y="274" type="curve" smooth="yes"/>
      <point x="336" y="274"/>
      <point x="371" y="313"/>
      <point x="371" y="407" type="curve" smooth="yes"/>
      <point x="371" y="414" type="line" smooth="yes"/>
      <point x="371" y="497"/>
      <point x="334" y="537"/>
      <point x="231" y="543" type="curve" smooth="yes"/>
      <point x="137" y="548" type="line"/>
      <point x="137" y="804" type="line"/>
      <point x="220" y="811" type="line" smooth="yes"/>
      <point x="317" y="821"/>
      <point x="351" y="856"/>
      <point x="351" y="933" type="curve" smooth="yes"/>
      <point x="351" y="951" type="line" smooth="yes"/>
      <point x="351" y="1032"/>
      <point x="321" y="1064"/>
      <point x="242" y="1064" type="curve" smooth="yes"/>
      <point x="172" y="1064"/>
      <point x="115" y="1043"/>
      <point x="64.9999" y="1016" type="curve"/>
      <point x="74.9999" y="1279" type="line"/>
      <point x="139" y="1308"/>
      <point x="218" y="1327"/>
      <point x="317" y="1327" type="curve" smooth="yes"/>
      <point x="540" y="1327"/>
      <point x="645" y="1218"/>
      <point x="645" y="1012" type="curve" smooth="yes"/>
      <point x="645" y="972" type="line" smooth="yes"/>
      <point x="645" y="824"/>
      <point x="579" y="743"/>
      <point x="406" y="730" type="curve"/>
      <point x="406" y="615" type="line"/>
      <point x="612" y="550"/>
      <point x="667" y="456"/>
      <point x="667" y="322" type="curve" smooth="yes"/>
      <point x="667" y="305" type="line" smooth="yes"/>
      <point x="667" y="121"/>
      <point x="554" y="11"/>
      <point x="317" y="11" type="curve" smooth="yes"/>
      <point x="202" y="11"/>
      <point x="113" y="35"/>
      <point x="44.9999" y="75" type="curve"/>
    </contour>
    <contour>
      <point x="393" y="758" type="line"/>
      <point x="535" y="765" type="line"/>
      <point x="536" y="756" type="line"/>
      <point x="592" y="769"/>
      <point x="658" y="778"/>
      <point x="746" y="778" type="curve" smooth="yes"/>
      <point x="892" y="778" type="line"/>
      <point x="892" y="528" type="line"/>
      <point x="750" y="528" type="line" smooth="yes"/>
      <point x="649" y="528"/>
      <point x="588" y="544"/>
      <point x="536" y="566" type="curve"/>
      <point x="529" y="552" type="line"/>
      <point x="393" y="569" type="line"/>
    </contour>
  </outline>
  <guideline angle="90" x="1107" y="0"/>
</glyph>
<glyph name="vowelI.dv" format="2">
  <advance width="852"/>
  <unicode hex="0907"/>
  <anchor x="762" y="-253" name="bottom3"/>
  <anchor x="594" y="1255" name="top"/>
  <outline>
    <contour>
      <point x="403" y="1067" type="line"/>
      <point x="389" y="1308" type="line"/>
      <point x="850" y="1308" type="line"/>
      <point x="864" y="1067" type="line"/>
    </contour>
    <contour>
      <point x="741" y="1156" type="line"/>
      <point x="741" y="961" type="line"/>
      <point x="447" y="961" type="line"/>
      <point x="447" y="1156" type="line"/>
    </contour>
    <contour>
      <point x="894" y="1067" type="line"/>
      <point x="-28" y="1067" type="line"/>
      <point x="-42" y="1308" type="line"/>
      <point x="880" y="1308" type="line"/>
    </contour>
    <contour>
      <point x="447" y="1132" type="line"/>
      <point x="742" y="1132" type="line"/>
      <point x="742" y="732" type="line"/>
      <point x="447" y="826" type="line"/>
    </contour>
    <contour>
      <point x="671" y="-339" type="line"/>
      <point x="347" y="-339" type="line"/>
      <point x="181" y="4" type="line"/>
      <point x="64" y="52" type="line"/>
      <point x="424" y="17" type="line"/>
      <point x="424" y="-33" type="line"/>
      <point x="503" y="-86"/>
      <point x="534" y="-127"/>
      <point x="591" y="-212" type="curve" smooth="yes"/>
      <point x="671" y="-331" type="line"/>
    </contour>
    <contour>
      <point x="50" y="331" type="line"/>
      <point x="153" y="270"/>
      <point x="273" y="230"/>
      <point x="383" y="230" type="curve" smooth="yes"/>
      <point x="478" y="230"/>
      <point x="512" y="258"/>
      <point x="512" y="305" type="curve" smooth="yes"/>
      <point x="512" y="309" type="line" smooth="yes"/>
      <point x="512" y="353"/>
      <point x="489" y="379"/>
      <point x="423" y="379" type="curve" smooth="yes"/>
      <point x="362" y="379"/>
      <point x="307" y="357"/>
      <point x="265" y="335" type="curve"/>
      <point x="129" y="383"/>
      <point x="52" y="489"/>
      <point x="52" y="651" type="curve" smooth="yes"/>
      <point x="52" y="662" type="line" smooth="yes"/>
      <point x="52" y="859"/>
      <point x="167" y="968"/>
      <point x="394" y="968" type="curve" smooth="yes"/>
      <point x="543" y="968"/>
      <point x="648" y="949"/>
      <point x="742" y="924" type="curve"/>
      <point x="742" y="718" type="line"/>
      <point x="664" y="730"/>
      <point x="594" y="736"/>
      <point x="504" y="736" type="curve" smooth="yes"/>
      <point x="375" y="736"/>
      <point x="344" y="708"/>
      <point x="344" y="661" type="curve" smooth="yes"/>
      <point x="344" y="655" type="line" smooth="yes"/>
      <point x="344" y="629"/>
      <point x="355" y="613"/>
      <point x="372" y="602" type="curve"/>
      <point x="416" y="620"/>
      <point x="458" y="631"/>
      <point x="526" y="631" type="curve" smooth="yes"/>
      <point x="710" y="631"/>
      <point x="806" y="523"/>
      <point x="806" y="324" type="curve" smooth="yes"/>
      <point x="806" y="302" type="line" smooth="yes"/>
      <point x="806" y="85"/>
      <point x="677" y="-29"/>
      <point x="436" y="-29" type="curve" smooth="yes"/>
      <point x="366" y="-29"/>
      <point x="300" y="-22"/>
      <point x="241" y="-4" type="curve" smooth="yes"/>
      <point x="64" y="52" type="line"/>
    </contour>
  </outline>
</glyph>
<glyph name="vowelIi.dv" format="2">
  <advance width="852"/>
  <unicode hex="0908"/>
  <anchor x="762" y="-253" name="bottom3"/>
  <anchor x="594" y="1255" name="top"/>
  <outline>
    <contour>
      <point x="403" y="1067" type="line"/>
      <point x="389" y="1308" type="line"/>
      <point x="850" y="1308" type="line"/>
      <point x="864" y="1067" type="line"/>
    </contour>
    <contour>
      <point x="741" y="1156" type="line"/>
      <point x="741" y="961" type="line"/>
      <point x="447" y="961" type="line"/>
      <point x="447" y="1156" type="line"/>
    </contour>
    <contour>
      <point x="894" y="1067" type="line"/>
      <point x="-28" y="1067" type="line"/>
      <point x="-42" y="1308" type="line"/>
      <point x="880" y="1308" type="line"/>
    </contour>
    <contour>
      <point x="447" y="1132" type="line"/>
      <point x="742" y="1132" type="line"/>
      <point x="742" y="732" type="line"/>
      <point x="447" y="826" type="line"/>
    </contour>
    <contour>
      <point x="671" y="-339" type="line"/>
      <point x="347" y="-339" type="line"/>
      <point x="181" y="4" type="line"/>
      <point x="64" y="52" type="line"/>
      <point x="424" y="17" type="line"/>
      <point x="424" y="-33" type="line"/>
      <point x="503" y="-86"/>
      <point x="534" y="-127"/>
      <point x="591" y="-212" type="curve" smooth="yes"/>
      <point x="671" y="-331" type="line"/>
    </contour>
    <contour>
      <point x="50" y="331" type="line"/>
      <point x="153" y="270"/>
      <point x="273" y="230"/>
      <point x="383" y="230" type="curve" smooth="yes"/>
      <point x="478" y="230"/>
      <point x="512" y="258"/>
      <point x="512" y="305" type="curve" smooth="yes"/>
      <point x="512" y="309" type="line" smooth="yes"/>
      <point x="512" y="353"/>
      <point x="489" y="379"/>
      <point x="423" y="379" type="curve" smooth="yes"/>
      <point x="362" y="379"/>
      <point x="307" y="357"/>
      <point x="265" y="335" type="curve"/>
      <point x="129" y="383"/>
      <point x="52" y="489"/>
      <point x="52" y="651" type="curve" smooth="yes"/>
      <point x="52" y="662" type="line" smooth="yes"/>
      <point x="52" y="859"/>
      <point x="167" y="968"/>
      <point x="394" y="968" type="curve" smooth="yes"/>
      <point x="543" y="968"/>
      <point x="648" y="949"/>
      <point x="742" y="924" type="curve"/>
      <point x="742" y="718" type="line"/>
      <point x="664" y="730"/>
      <point x="594" y="736"/>
      <point x="504" y="736" type="curve" smooth="yes"/>
      <point x="375" y="736"/>
      <point x="344" y="708"/>
      <point x="344" y="661" type="curve" smooth="yes"/>
      <point x="344" y="655" type="line" smooth="yes"/>
      <point x="344" y="629"/>
      <point x="355" y="613"/>
      <point x="372" y="602" type="curve"/>
      <point x="416" y="620"/>
      <point x="458" y="631"/>
      <point x="526" y="631" type="curve" smooth="yes"/>
      <point x="710" y="631"/>
      <point x="806" y="523"/>
      <point x="806" y="324" type="curve" smooth="yes"/>
      <point x="806" y="302" type="line" smooth="yes"/>
      <point x="806" y="85"/>
      <point x="677" y="-29"/>
      <point x="436" y="-29" type="curve" smooth="yes"/>
      <point x="366" y="-29"/>
      <point x="300" y="-22"/>
      <point x="241" y="-4" type="curve" smooth="yes"/>
      <point x="64" y="52" type="line"/>
    </contour>
    <contour>
      <point x="685" y="1281" type="line"/>
      <point x="464" y="1281" type="line"/>
      <point x="464" y="1317" type="line"/>
      <point x="365" y="1354"/>
      <point x="313" y="1417"/>
      <point x="313" y="1528" type="curve" smooth="yes"/>
      <point x="313" y="1540" type="line" smooth="yes"/>
      <point x="313" y="1691"/>
      <point x="410" y="1792"/>
      <point x="607" y="1792" type="curve" smooth="yes"/>
      <point x="669" y="1792"/>
      <point x="720" y="1785"/>
      <point x="769" y="1770" type="curve"/>
      <point x="793" y="1535" type="line"/>
      <point x="757" y="1542"/>
      <point x="735" y="1544"/>
      <point x="708" y="1544" type="curve" smooth="yes"/>
      <point x="633" y="1544"/>
      <point x="602" y="1511"/>
      <point x="602" y="1437" type="curve" smooth="yes"/>
      <point x="602" y="1426" type="line" smooth="yes"/>
      <point x="602" y="1360"/>
      <point x="633" y="1327"/>
      <point x="685" y="1303" type="curve"/>
    </contour>
  </outline>
  <guideline angle="90" x="447" y="0"/>
  <guideline angle="90" x="594" y="0"/>
  <guideline angle="90" x="841" y="0"/>
  <guideline angle="90" x="464" y="0"/>
</glyph>
<glyph name="vowelU.dv" format="2">
  <advance width="723"/>
  <unicode hex="0909"/>
  <anchor x="699" y="37" name="bottom3"/>
  <anchor x="347" y="55" name="bottom5"/>
  <anchor x="412" y="1255" name="top"/>
  <outline>
    <contour>
      <point x="-28" y="1067" type="line"/>
      <point x="-42" y="1308" type="line"/>
      <point x="753" y="1308" type="line"/>
      <point x="767" y="1067" type="line"/>
    </contour>
    <contour>
      <point x="591" y="1117" type="line"/>
      <point x="631" y="1075"/>
      <point x="650" y="1023"/>
      <point x="650" y="935" type="curve" smooth="yes"/>
      <point x="650" y="920" type="line" smooth="yes"/>
      <point x="650" y="778"/>
      <point x="594" y="681"/>
      <point x="418" y="657" type="curve"/>
      <point x="418" y="650" type="line"/>
      <point x="602" y="618"/>
      <point x="670" y="529"/>
      <point x="670" y="339" type="curve" smooth="yes"/>
      <point x="670" y="308" type="line" smooth="yes"/>
      <point x="670" y="83"/>
      <point x="559" y="-22"/>
      <point x="320" y="-22" type="curve" smooth="yes"/>
      <point x="205" y="-22"/>
      <point x="125" y="3"/>
      <point x="61" y="43" type="curve"/>
      <point x="48" y="304" type="line"/>
      <point x="113" y="264"/>
      <point x="179" y="239"/>
      <point x="243" y="239" type="curve" smooth="yes"/>
      <point x="337" y="239"/>
      <point x="366" y="289"/>
      <point x="366" y="366" type="curve" smooth="yes"/>
      <point x="366" y="379" type="line" smooth="yes"/>
      <point x="366" y="466"/>
      <point x="340" y="512"/>
      <point x="202" y="519" type="curve" smooth="yes"/>
      <point x="136" y="523" type="line"/>
      <point x="136" y="780" type="line"/>
      <point x="206" y="784" type="line" smooth="yes"/>
      <point x="309" y="789"/>
      <point x="346" y="835"/>
      <point x="346" y="937" type="curve" smooth="yes"/>
      <point x="346" y="953" type="line" smooth="yes"/>
      <point x="346" y="1034"/>
      <point x="331" y="1075"/>
      <point x="285" y="1117" type="curve"/>
    </contour>
  </outline>
</glyph>
<glyph name="vowelRu.dv" format="2">
  <advance width="1404"/>
  <unicode hex="090B"/>
  <anchor x="1040" y="37" name="bottom3"/>
  <anchor x="706" y="55" name="bottom5"/>
  <anchor x="706" y="1255" name="top"/>
  <outline>
    <contour>
      <point x="1441" y="1067" type="line"/>
      <point x="-28" y="1067" type="line"/>
      <point x="-42" y="1308" type="line"/>
      <point x="1427" y="1308" type="line"/>
    </contour>
    <contour>
      <point x="1100" y="747" type="line"/>
      <point x="1213" y="526" type="line"/>
      <point x="778" y="326" type="line"/>
      <point x="778" y="602" type="line"/>
    </contour>
    <contour>
      <point x="1231" y="949" type="line"/>
      <point x="1271" y="877"/>
      <point x="1301" y="768"/>
      <point x="1314" y="661" type="curve"/>
      <point x="1242" y="554" type="line"/>
      <point x="994" y="512" type="line"/>
      <point x="994" y="949" type="line"/>
    </contour>
    <contour>
      <point x="984" y="4" type="curve"/>
      <point x="968" y="248" type="line"/>
      <point x="988" y="244"/>
      <point x="999" y="243"/>
      <point x="1012" y="243" type="curve" smooth="yes"/>
      <point x="1062" y="243"/>
      <point x="1082" y="276"/>
      <point x="1082" y="344" type="curve" smooth="yes"/>
      <point x="1082" y="361" type="line" smooth="yes"/>
      <point x="1082" y="425"/>
      <point x="1071" y="460"/>
      <point x="1023" y="500" type="curve"/>
      <point x="1235" y="591" type="line"/>
      <point x="1329" y="528"/>
      <point x="1362" y="436"/>
      <point x="1362" y="307" type="curve" smooth="yes"/>
      <point x="1362" y="283" type="line" smooth="yes"/>
      <point x="1362" y="77"/>
      <point x="1287" y="-17"/>
      <point x="1121" y="-17" type="curve" smooth="yes"/>
      <point x="1064" y="-17"/>
      <point x="1019" y="-9"/>
    </contour>
    <contour>
      <point x="859" y="0" type="line"/>
      <point x="555" y="0" type="line"/>
      <point x="555" y="1128" type="line"/>
      <point x="859" y="1128" type="line"/>
    </contour>
    <contour>
      <point x="627" y="256" type="line"/>
      <point x="50" y="-7" type="line"/>
      <point x="50" y="291" type="line"/>
      <point x="316" y="412" type="line"/>
      <point x="344" y="407" type="line"/>
      <point x="399" y="444"/>
      <point x="434" y="462"/>
      <point x="493" y="489" type="curve" smooth="yes"/>
      <point x="627" y="550" type="line"/>
    </contour>
    <contour>
      <point x="396" y="405" type="line"/>
      <point x="138" y="320" type="line"/>
      <point x="182" y="355"/>
      <point x="199" y="399"/>
      <point x="199" y="500" type="curve" smooth="yes"/>
      <point x="199" y="561" type="line" smooth="yes"/>
      <point x="199" y="655"/>
      <point x="177" y="683"/>
      <point x="116" y="683" type="curve" smooth="yes"/>
      <point x="90" y="683"/>
      <point x="62" y="675"/>
      <point x="42" y="666" type="curve"/>
      <point x="61" y="926" type="line"/>
      <point x="107" y="943"/>
      <point x="153" y="949"/>
      <point x="208" y="949" type="curve" smooth="yes"/>
      <point x="385" y="949"/>
      <point x="466" y="859"/>
      <point x="466" y="657" type="curve" smooth="yes"/>
      <point x="466" y="641" type="line" smooth="yes"/>
      <point x="466" y="549"/>
      <point x="440" y="483"/>
      <point x="385" y="443" type="curve"/>
    </contour>
  </outline>
  <guideline angle="90" x="706" y="0"/>
  <guideline angle="90" x="-36" y="0"/>
</glyph>
<glyph name="vowelLru.dv" format="2">
  <advance width="1174"/>
  <unicode hex="090C"/>
  <anchor x="953" y="-140" name="bottom3"/>
  <anchor x="849" y="1255" name="top"/>
  <outline>
    <contour>
      <point x="1122" y="519" type="line" smooth="yes"/>
      <point x="1122" y="399"/>
      <point x="1104" y="315"/>
      <point x="1034" y="199" type="curve" smooth="yes"/>
      <point x="966" y="85"/>
      <point x="949" y="60"/>
      <point x="949" y="23" type="curve" smooth="yes"/>
      <point x="949" y="-11"/>
      <point x="970" y="-29"/>
      <point x="1021" y="-29" type="curve" smooth="yes"/>
      <point x="1067" y="-29"/>
      <point x="1102" y="-15"/>
      <point x="1135" y="7" type="curve"/>
      <point x="1124" y="-237" type="line"/>
      <point x="1087" y="-259"/>
      <point x="1034" y="-272"/>
      <point x="955" y="-272" type="curve" smooth="yes"/>
      <point x="788" y="-272"/>
      <point x="666" y="-180"/>
      <point x="666" y="-6" type="curve" smooth="yes"/>
      <point x="666" y="75"/>
      <point x="686" y="138"/>
      <point x="754" y="254" type="curve" smooth="yes"/>
      <point x="813" y="355"/>
      <point x="828" y="405" name=" "/>
      <point x="828" y="508" type="curve" smooth="yes"/>
      <point x="828" y="528" type="line"/>
      <point x="1122" y="541" type="line"/>
    </contour>
    <contour>
      <point x="658" y="1067" type="line"/>
      <point x="644" y="1308" type="line"/>
      <point x="1105" y="1308" type="line"/>
      <point x="1119" y="1067" type="line"/>
    </contour>
    <contour>
      <point x="996" y="1156" type="line"/>
      <point x="996" y="961" type="line"/>
      <point x="702" y="961" type="line"/>
      <point x="702" y="1156" type="line"/>
    </contour>
    <contour>
      <point x="-28" y="1067" type="line"/>
      <point x="-42" y="1308" type="line"/>
      <point x="1204" y="1308" type="line"/>
      <point x="1218" y="1067" type="line"/>
    </contour>
    <contour>
      <point x="996" y="1102" type="line"/>
      <point x="996" y="857" type="line"/>
      <point x="701" y="857" type="line"/>
      <point x="701" y="1102" type="line"/>
    </contour>
    <contour>
      <point x="59" y="440" type="curve" smooth="yes"/>
      <point x="59" y="534" type="line" smooth="yes"/>
      <point x="59" y="802"/>
      <point x="167" y="922"/>
      <point x="368" y="922" type="curve" smooth="yes"/>
      <point x="495" y="922"/>
      <point x="563" y="867"/>
      <point x="591" y="769" type="curve"/>
      <point x="598" y="769" type="line"/>
      <point x="627" y="865"/>
      <point x="697" y="922"/>
      <point x="828" y="922" type="curve" smooth="yes"/>
      <point x="1034" y="922"/>
      <point x="1122" y="811"/>
      <point x="1122" y="552" type="curve" smooth="yes"/>
      <point x="1122" y="530" type="line"/>
      <point x="828" y="517" type="line"/>
      <point x="828" y="542" type="line" smooth="yes"/>
      <point x="828" y="628"/>
      <point x="811" y="655"/>
      <point x="774" y="655" type="curve" smooth="yes"/>
      <point x="740" y="655"/>
      <point x="725" y="637"/>
      <point x="721" y="551" type="curve" smooth="yes"/>
      <point x="710" y="293" type="line"/>
      <point x="473" y="293" type="line"/>
      <point x="462" y="553" type="line" smooth="yes"/>
      <point x="458" y="639"/>
      <point x="445" y="657"/>
      <point x="410" y="657" type="curve" smooth="yes"/>
      <point x="372" y="657"/>
      <point x="355" y="625"/>
      <point x="355" y="533" type="curve" smooth="yes"/>
      <point x="355" y="438" type="line" smooth="yes"/>
      <point x="355" y="243"/>
      <point x="406" y="129"/>
      <point x="506" y="2" type="curve"/>
      <point x="506" y="0" type="line"/>
      <point x="180" y="0" type="line"/>
      <point x="98" y="112"/>
      <point x="59" y="226"/>
    </contour>
  </outline>
</glyph>
<glyph name="vowelChandraE.dv" format="2">
  <advance width="916"/>
  <unicode hex="090D"/>
  <outline>
    <contour>
      <point x="805" y="1763" type="line"/>
      <point x="807.25" y="1744"/>
      <point x="808" y="1724"/>
      <point x="808" y="1709" type="curve" smooth="yes"/>
      <point x="808" y="1487"/>
      <point x="696" y="1389"/>
      <point x="475" y="1389" type="curve" smooth="yes"/>
      <point x="254" y="1389"/>
      <point x="142" y="1487"/>
      <point x="142" y="1709" type="curve" smooth="yes"/>
      <point x="142" y="1723"/>
      <point x="142.75" y="1743"/>
      <point x="145" y="1763" type="curve"/>
      <point x="383" y="1763" type="line"/>
      <point x="383" y="1758.72"/>
      <point x="383" y="1728.49"/>
      <point x="383" y="1726" type="curve" smooth="yes"/>
      <point x="383" y="1638"/>
      <point x="409" y="1601"/>
      <point x="475" y="1601" type="curve" smooth="yes"/>
      <point x="541" y="1601"/>
      <point x="567" y="1638"/>
      <point x="567" y="1726" type="curve" smooth="yes"/>
      <point x="567" y="1728.72"/>
      <point x="567" y="1759.67"/>
      <point x="567" y="1763" type="curve"/>
    </contour>
    <contour>
      <point x="-28" y="1067" type="line"/>
      <point x="-43" y="1308" type="line"/>
      <point x="944" y="1308" type="line"/>
      <point x="959" y="1067" type="line"/>
    </contour>
    <contour>
      <point x="377" y="564" type="line" smooth="yes"/>
      <point x="377" y="323"/>
      <point x="473" y="257"/>
      <point x="667" y="257" type="curve" smooth="yes"/>
      <point x="718" y="257"/>
      <point x="768" y="261"/>
      <point x="812" y="270" type="curve"/>
      <point x="782" y="7" type="line"/>
      <point x="741" y="-4"/>
      <point x="687" y="-10"/>
      <point x="631" y="-10" type="curve" smooth="yes"/>
      <point x="261" y="-10"/>
      <point x="73" y="165"/>
      <point x="73" y="556" type="curve" smooth="yes"/>
      <point x="73" y="1143" type="line"/>
      <point x="377" y="1143" type="line"/>
    </contour>
    <contour>
      <point x="852" y="763" type="line" smooth="yes"/>
      <point x="852" y="498.144"/>
      <point x="745.549" y="400"/>
      <point x="540" y="400" type="curve" smooth="yes"/>
      <point x="518.209" y="400"/>
      <point x="497.099" y="403"/>
      <point x="477" y="407" type="curve"/>
      <point x="477" y="665" type="line"/>
      <point x="479.73" y="665"/>
      <point x="481.27" y="665"/>
      <point x="484" y="665" type="curve" smooth="yes"/>
      <point x="522.617" y="665"/>
      <point x="553" y="687.462"/>
      <point x="553" y="764" type="curve" smooth="yes"/>
      <point x="553" y="1133" type="line"/>
      <point x="852" y="1133" type="line"/>
    </contour>
  </outline>
  <guideline angle="90" x="152" y="0"/>
</glyph>
<glyph name="vowelE.dv" format="2">
  <advance width="916"/>
  <unicode hex="090F"/>
  <anchor x="813" y="37" name="bottom3"/>
  <anchor x="472" y="1255" name="top"/>
  <outline>
    <contour>
      <point x="-28" y="1067" type="line"/>
      <point x="-43" y="1308" type="line"/>
      <point x="944" y="1308" type="line"/>
      <point x="959" y="1067" type="line"/>
    </contour>
    <contour>
      <point x="377" y="564" type="line" smooth="yes"/>
      <point x="377" y="323"/>
      <point x="473" y="257"/>
      <point x="667" y="257" type="curve" smooth="yes"/>
      <point x="718" y="257"/>
      <point x="768" y="261"/>
      <point x="812" y="270" type="curve"/>
      <point x="782" y="7" type="line"/>
      <point x="741" y="-4"/>
      <point x="687" y="-10"/>
      <point x="631" y="-10" type="curve" smooth="yes"/>
      <point x="261" y="-10"/>
      <point x="73" y="165"/>
      <point x="73" y="556" type="curve" smooth="yes"/>
      <point x="73" y="1143" type="line"/>
      <point x="377" y="1143" type="line"/>
    </contour>
    <contour>
      <point x="852" y="763" type="line" smooth="yes"/>
      <point x="852" y="498.144"/>
      <point x="745.549" y="400"/>
      <point x="540" y="400" type="curve" smooth="yes"/>
      <point x="518.209" y="400"/>
      <point x="497.099" y="403"/>
      <point x="477" y="407" type="curve"/>
      <point x="477" y="665" type="line"/>
      <point x="479.73" y="665"/>
      <point x="481.27" y="665"/>
      <point x="484" y="665" type="curve" smooth="yes"/>
      <point x="522.617" y="665"/>
      <point x="553" y="687.462"/>
      <point x="553" y="764" type="curve" smooth="yes"/>
      <point x="553" y="1133" type="line"/>
      <point x="852" y="1133" type="line"/>
    </contour>
  </outline>
</glyph>
<glyph name="vowelShortO.dv" format="2">
  <advance width="1651"/>
  <unicode hex="0912"/>
  <anchor x="1518" y="1255" name="top"/>
  <outline>
    <contour>
      <point x="1053" y="1781" type="curve"/>
      <point x="1053" y="1692"/>
      <point x="1081" y="1663"/>
      <point x="1175" y="1660" type="curve" smooth="yes"/>
      <point x="1236" y="1658" type="line" smooth="yes"/>
      <point x="1464" y="1651"/>
      <point x="1545" y="1541"/>
      <point x="1545" y="1337" type="curve" smooth="yes"/>
      <point x="1545" y="1255" type="line"/>
      <point x="1283" y="1255" type="line"/>
      <point x="1283" y="1328" type="line" smooth="yes"/>
      <point x="1283" y="1391"/>
      <point x="1269" y="1418"/>
      <point x="1190" y="1422" type="curve" smooth="yes"/>
      <point x="1119" y="1425" type="line" smooth="yes"/>
      <point x="899" y="1436"/>
      <point x="798" y="1512"/>
      <point x="798" y="1680" type="curve" smooth="yes"/>
      <point x="798" y="1716"/>
      <point x="804" y="1755"/>
      <point x="816" y="1790" type="curve"/>
      <point x="1053" y="1790" type="line"/>
      <point x="1053" y="1788.54"/>
      <point x="1053" y="1782.55"/>
    </contour>
    <contour>
      <point x="1229" y="1067" type="line"/>
      <point x="711" y="1067" type="line"/>
      <point x="697" y="1308" type="line"/>
      <point x="1215" y="1308" type="line"/>
    </contour>
    <contour>
      <point x="802" y="0" type="line"/>
      <point x="802" y="1159" type="line"/>
      <point x="1106" y="1159" type="line"/>
      <point x="1106" y="0" type="line"/>
    </contour>
    <contour>
      <point x="33" y="339" type="line"/>
      <point x="92" y="302"/>
      <point x="166" y="274"/>
      <point x="247" y="274" type="curve" smooth="yes"/>
      <point x="335" y="274"/>
      <point x="370" y="313"/>
      <point x="370" y="407" type="curve" smooth="yes"/>
      <point x="370" y="414" type="line" smooth="yes"/>
      <point x="370" y="497"/>
      <point x="333" y="537"/>
      <point x="230" y="543" type="curve" smooth="yes"/>
      <point x="136" y="548" type="line"/>
      <point x="136" y="804" type="line"/>
      <point x="219" y="811" type="line" smooth="yes"/>
      <point x="316" y="821"/>
      <point x="350" y="856"/>
      <point x="350" y="933" type="curve" smooth="yes"/>
      <point x="350" y="951" type="line" smooth="yes"/>
      <point x="350" y="1032"/>
      <point x="320" y="1064"/>
      <point x="241" y="1064" type="curve" smooth="yes"/>
      <point x="171" y="1064"/>
      <point x="114" y="1043"/>
      <point x="64" y="1016" type="curve"/>
      <point x="74" y="1279" type="line"/>
      <point x="138" y="1308"/>
      <point x="217" y="1327"/>
      <point x="316" y="1327" type="curve" smooth="yes"/>
      <point x="539" y="1327"/>
      <point x="644" y="1218"/>
      <point x="644" y="1012" type="curve" smooth="yes"/>
      <point x="644" y="972" type="line" smooth="yes"/>
      <point x="644" y="824"/>
      <point x="578" y="743"/>
      <point x="405" y="730" type="curve"/>
      <point x="405" y="615" type="line"/>
      <point x="611" y="550"/>
      <point x="666" y="456"/>
      <point x="666" y="322" type="curve" smooth="yes"/>
      <point x="666" y="305" type="line" smooth="yes"/>
      <point x="666" y="121"/>
      <point x="553" y="11"/>
      <point x="316" y="11" type="curve" smooth="yes"/>
      <point x="201" y="11"/>
      <point x="112" y="35"/>
      <point x="44" y="75" type="curve"/>
    </contour>
    <contour>
      <point x="392" y="758" type="line"/>
      <point x="534" y="765" type="line"/>
      <point x="535" y="756" type="line"/>
      <point x="591" y="769"/>
      <point x="657" y="778"/>
      <point x="745" y="778" type="curve" smooth="yes"/>
      <point x="891" y="778" type="line"/>
      <point x="891" y="528" type="line"/>
      <point x="749" y="528" type="line" smooth="yes"/>
      <point x="648" y="528"/>
      <point x="587" y="544"/>
      <point x="535" y="566" type="curve"/>
      <point x="528" y="552" type="line"/>
      <point x="392" y="569" type="line"/>
    </contour>
    <contour>
      <point x="1569.5" y="0" type="line"/>
      <point x="1265.5" y="0" type="line"/>
      <point x="1265.5" y="1156" type="line"/>
      <point x="1569.5" y="1156" type="line"/>
    </contour>
    <contour>
      <point x="1692.5" y="1067" type="line"/>
      <point x="1156.5" y="1067" type="line"/>
      <point x="1142.5" y="1308" type="line"/>
      <point x="1678.5" y="1308" type="line"/>
    </contour>
  </outline>
</glyph>
<glyph name="vowelO.dv" format="2">
  <advance width="1652"/>
  <unicode hex="0913"/>
  <anchor x="1371" y="1255" name="top"/>
  <outline>
    <contour>
      <point x="779" y="1763" type="line"/>
      <point x="1127" y="1763" type="line"/>
      <point x="1209.63" y="1664.63"/>
      <point x="1444.83" y="1384.63"/>
      <point x="1526" y="1288" type="curve"/>
      <point x="1526" y="1255" type="line"/>
      <point x="1258" y="1255" type="line"/>
      <point x="1258" y="1317" type="line"/>
      <point x="1120" y="1378"/>
      <point x="1047" y="1436"/>
      <point x="941" y="1555" type="curve" smooth="yes"/>
      <point x="779" y="1737" type="line"/>
    </contour>
    <contour>
      <point x="1570.5" y="0" type="line"/>
      <point x="1266.5" y="0" type="line"/>
      <point x="1266.5" y="1156" type="line"/>
      <point x="1570.5" y="1156" type="line"/>
    </contour>
    <contour>
      <point x="1693.5" y="1067" type="line"/>
      <point x="1157.5" y="1067" type="line"/>
      <point x="1143.5" y="1308" type="line"/>
      <point x="1679.5" y="1308" type="line"/>
    </contour>
    <contour>
      <point x="1229" y="1067" type="line"/>
      <point x="711" y="1067" type="line"/>
      <point x="697" y="1308" type="line"/>
      <point x="1215" y="1308" type="line"/>
    </contour>
    <contour>
      <point x="802" y="0" type="line"/>
      <point x="802" y="1159" type="line"/>
      <point x="1106" y="1159" type="line"/>
      <point x="1106" y="0" type="line"/>
    </contour>
    <contour>
      <point x="33" y="339" type="line"/>
      <point x="92" y="302"/>
      <point x="166" y="274"/>
      <point x="247" y="274" type="curve" smooth="yes"/>
      <point x="335" y="274"/>
      <point x="370" y="313"/>
      <point x="370" y="407" type="curve" smooth="yes"/>
      <point x="370" y="414" type="line" smooth="yes"/>
      <point x="370" y="497"/>
      <point x="333" y="537"/>
      <point x="230" y="543" type="curve" smooth="yes"/>
      <point x="136" y="548" type="line"/>
      <point x="136" y="804" type="line"/>
      <point x="219" y="811" type="line" smooth="yes"/>
      <point x="316" y="821"/>
      <point x="350" y="856"/>
      <point x="350" y="933" type="curve" smooth="yes"/>
      <point x="350" y="951" type="line" smooth="yes"/>
      <point x="350" y="1032"/>
      <point x="320" y="1064"/>
      <point x="241" y="1064" type="curve" smooth="yes"/>
      <point x="171" y="1064"/>
      <point x="114" y="1043"/>
      <point x="64" y="1016" type="curve"/>
      <point x="74" y="1279" type="line"/>
      <point x="138" y="1308"/>
      <point x="217" y="1327"/>
      <point x="316" y="1327" type="curve" smooth="yes"/>
      <point x="539" y="1327"/>
      <point x="644" y="1218"/>
      <point x="644" y="1012" type="curve" smooth="yes"/>
      <point x="644" y="972" type="line" smooth="yes"/>
      <point x="644" y="824"/>
      <point x="578" y="743"/>
      <point x="405" y="730" type="curve"/>
      <point x="405" y="615" type="line"/>
      <point x="611" y="550"/>
      <point x="666" y="456"/>
      <point x="666" y="322" type="curve" smooth="yes"/>
      <point x="666" y="305" type="line" smooth="yes"/>
      <point x="666" y="121"/>
      <point x="553" y="11"/>
      <point x="316" y="11" type="curve" smooth="yes"/>
      <point x="201" y="11"/>
      <point x="112" y="35"/>
      <point x="44" y="75" type="curve"/>
    </contour>
    <contour>
      <point x="392" y="758" type="line"/>
      <point x="534" y="765" type="line"/>
      <point x="535" y="756" type="line"/>
      <point x="591" y="769"/>
      <point x="657" y="778"/>
      <point x="745" y="778" type="curve" smooth="yes"/>
      <point x="891" y="778" type="line"/>
      <point x="891" y="528" type="line"/>
      <point x="749" y="528" type="line" smooth="yes"/>
      <point x="648" y="528"/>
      <point x="587" y="544"/>
      <point x="535" y="566" type="curve"/>
      <point x="528" y="552" type="line"/>
      <point x="392" y="569" type="line"/>
    </contour>
  </outline>
  <guideline angle="0" x="0" y="649"/>
  <guideline angle="90" x="1255" y="0"/>
  <guideline angle="0" x="0" y="1255"/>
  <guideline angle="90" x="1570" y="0"/>
  <guideline angle="90" x="1266.5" y="0"/>
</glyph>
<glyph name="Ga.dv" format="2">
  <advance width="973"/>
  <unicode hex="0917"/>
  <anchor x="740" y="37" name="bottom"/>
  <anchor x="730" y="37" name="bottom2"/>
  <anchor x="892" y="37" name="bottom3"/>
  <anchor x="740" y="55" name="bottom5"/>
  <anchor x="740" y="1255" name="top"/>
  <outline>
    <contour>
      <point x="892" y="1156" type="line"/>
      <point x="892" y="0" type="line"/>
      <point x="588" y="0" type="line"/>
      <point x="588" y="1156" type="line"/>
    </contour>
    <contour>
      <point x="565" y="1067" type="line"/>
      <point x="551" y="1308" type="line"/>
      <point x="1001" y="1308" type="line"/>
      <point x="1015" y="1067" type="line"/>
    </contour>
    <contour>
      <point x="-28" y="1067" type="line"/>
      <point x="-42" y="1308" type="line"/>
      <point x="1001" y="1308" type="line"/>
      <point x="1015" y="1067" type="line"/>
    </contour>
    <contour>
      <point x="421" y="1095" type="line"/>
      <point x="450" y="1038"/>
      <point x="457" y="957"/>
      <point x="457" y="795" type="curve" smooth="yes"/>
      <point x="457" y="673" type="line" smooth="yes"/>
      <point x="457" y="351"/>
      <point x="360.563" y="243"/>
      <point x="160" y="243" type="curve" smooth="yes"/>
      <point x="118.056" y="243"/>
      <point x="80.7536" y="247.747"/>
      <point x="47" y="258" type="curve"/>
      <point x="31" y="538" type="line"/>
      <point x="41.6652" y="536.433"/>
      <point x="55.6677" y="534"/>
      <point x="70" y="534" type="curve" smooth="yes"/>
      <point x="131.28" y="534"/>
      <point x="153" y="561.9"/>
      <point x="153" y="714" type="curve" smooth="yes"/>
      <point x="153" y="830" type="line" smooth="yes"/>
      <point x="153" y="960"/>
      <point x="147" y="1040"/>
      <point x="118" y="1095" type="curve"/>
    </contour>
  </outline>
</glyph>
<glyph name="Gha.dv" format="2">
  <advance width="1021"/>
  <unicode hex="0918"/>
  <anchor x="788" y="37" name="bottom"/>
  <anchor x="778" y="37" name="bottom2"/>
  <anchor x="940" y="37" name="bottom3"/>
  <anchor x="788" y="55" name="bottom5"/>
  <anchor x="788" y="1255" name="top"/>
  <outline>
    <contour>
      <point x="940" y="1156" type="line"/>
      <point x="940" y="0" type="line"/>
      <point x="636" y="0" type="line"/>
      <point x="636" y="1156" type="line"/>
    </contour>
    <contour>
      <point x="613" y="1067" type="line"/>
      <point x="599" y="1308" type="line"/>
      <point x="1049" y="1308" type="line"/>
      <point x="1063" y="1067" type="line"/>
    </contour>
    <contour>
      <point x="-28" y="1067" type="line"/>
      <point x="-42" y="1308" type="line"/>
      <point x="1049" y="1308" type="line"/>
      <point x="1063" y="1067" type="line"/>
    </contour>
    <contour>
      <point x="283" y="719" type="line"/>
      <point x="123" y="742"/>
      <point x="59" y="815"/>
      <point x="59" y="955" type="curve" smooth="yes"/>
      <point x="59" y="970" type="line" smooth="yes"/>
      <point x="59" y="1032"/>
      <point x="72" y="1087"/>
      <point x="94" y="1122" type="curve"/>
      <point x="415" y="1122" type="line"/>
      <point x="379" y="1087"/>
      <point x="367" y="1045"/>
      <point x="367" y="986" type="curve" smooth="yes"/>
      <point x="367" y="973" type="line" smooth="yes"/>
      <point x="367" y="880"/>
      <point x="406" y="846"/>
      <point x="487" y="841" type="curve" smooth="yes"/>
      <point x="539" y="837" type="line"/>
      <point x="539" y="591" type="line"/>
      <point x="485" y="589" type="line" smooth="yes"/>
      <point x="401" y="585"/>
      <point x="366" y="554"/>
      <point x="366" y="482" type="curve" smooth="yes"/>
      <point x="366" y="469" type="line" smooth="yes"/>
      <point x="366" y="401"/>
      <point x="406" y="370"/>
      <point x="498" y="370" type="curve" smooth="yes"/>
      <point x="581" y="370"/>
      <point x="629" y="405"/>
      <point x="640" y="473" type="curve"/>
      <point x="660" y="285" type="line"/>
      <point x="625" y="285" type="line"/>
      <point x="601" y="177"/>
      <point x="526" y="105"/>
      <point x="364" y="105" type="curve" smooth="yes"/>
      <point x="167.805" y="105"/>
      <point x="57" y="210"/>
      <point x="57" y="420" type="curve" smooth="yes"/>
      <point x="57" y="438" type="line" smooth="yes"/>
      <point x="57" y="600"/>
      <point x="121.425" y="690"/>
      <point x="283" y="712" type="curve"/>
    </contour>
  </outline>
</glyph>
<glyph name="Nga.dv" format="2">
  <advance width="1165"/>
  <unicode hex="0919"/>
  <anchor x="462" y="8" name="bottom"/>
  <anchor x="408" y="8" name="bottom2"/>
  <anchor x="777" y="8" name="bottom3"/>
  <anchor x="431" y="26" name="bottom5"/>
  <anchor x="595" y="1255" name="top"/>
  <outline>
    <contour>
      <point x="988" y="418" type="curve" smooth="yes"/>
      <point x="880" y="418"/>
      <point x="828" y="483"/>
      <point x="828" y="592" type="curve" smooth="yes"/>
      <point x="828" y="604" type="line" smooth="yes"/>
      <point x="828" y="713"/>
      <point x="880" y="780"/>
      <point x="988" y="780" type="curve" smooth="yes"/>
      <point x="1096" y="780"/>
      <point x="1148" y="713"/>
      <point x="1148" y="604" type="curve" smooth="yes"/>
      <point x="1148" y="592" type="line" smooth="yes"/>
      <point x="1148" y="483"/>
      <point x="1096" y="418"/>
    </contour>
    <contour>
      <point x="1207" y="1067" type="line"/>
      <point x="800" y="1067" type="line"/>
      <point x="786" y="1308" type="line"/>
      <point x="1193" y="1308" type="line"/>
    </contour>
    <contour>
      <point x="404" y="1067" type="line"/>
      <point x="390" y="1308" type="line"/>
      <point x="851" y="1308" type="line"/>
      <point x="865" y="1067" type="line"/>
    </contour>
    <contour>
      <point x="742" y="1156" type="line"/>
      <point x="742" y="961" type="line"/>
      <point x="448" y="961" type="line"/>
      <point x="448" y="1156" type="line"/>
    </contour>
    <contour>
      <point x="894" y="1067" type="line"/>
      <point x="-28" y="1067" type="line"/>
      <point x="-42" y="1308" type="line"/>
      <point x="880" y="1308" type="line"/>
    </contour>
    <contour>
      <point x="447" y="1132" type="line"/>
      <point x="742" y="1132" type="line"/>
      <point x="742" y="732" type="line"/>
      <point x="691.269" y="748.165"/>
      <point x="499.261" y="809.347"/>
      <point x="447" y="826" type="curve"/>
    </contour>
    <contour>
      <point x="50" y="331" type="line"/>
      <point x="151" y="270"/>
      <point x="272" y="230"/>
      <point x="381" y="230" type="curve" smooth="yes"/>
      <point x="477" y="230"/>
      <point x="512" y="256"/>
      <point x="512" y="305" type="curve" smooth="yes"/>
      <point x="512" y="311" type="line" smooth="yes"/>
      <point x="512" y="355"/>
      <point x="488" y="379"/>
      <point x="423" y="379" type="curve" smooth="yes"/>
      <point x="361" y="379"/>
      <point x="309" y="361"/>
      <point x="267" y="335" type="curve"/>
      <point x="125" y="386"/>
      <point x="52" y="489"/>
      <point x="52" y="653" type="curve" smooth="yes"/>
      <point x="52" y="664" type="line" smooth="yes"/>
      <point x="52" y="859"/>
      <point x="164" y="968"/>
      <point x="399" y="968" type="curve" smooth="yes"/>
      <point x="537" y="968"/>
      <point x="648" y="949"/>
      <point x="742" y="924" type="curve"/>
      <point x="742" y="718" type="line"/>
      <point x="664" y="730"/>
      <point x="594" y="736"/>
      <point x="504" y="736" type="curve" smooth="yes"/>
      <point x="374" y="736"/>
      <point x="344" y="708"/>
      <point x="344" y="661" type="curve" smooth="yes"/>
      <point x="344" y="657" type="line" smooth="yes"/>
      <point x="344" y="633"/>
      <point x="353" y="615"/>
      <point x="372" y="602" type="curve"/>
      <point x="412" y="620"/>
      <point x="456" y="631"/>
      <point x="523" y="631" type="curve" smooth="yes"/>
      <point x="710" y="631"/>
      <point x="806" y="526"/>
      <point x="806" y="322" type="curve" smooth="yes"/>
      <point x="806" y="305" type="line" smooth="yes"/>
      <point x="806" y="90"/>
      <point x="686" y="-29"/>
      <point x="432" y="-29" type="curve" smooth="yes"/>
      <point x="278" y="-29"/>
      <point x="156" y="2"/>
      <point x="64" y="55" type="curve"/>
    </contour>
  </outline>
</glyph>
<glyph name="Ca.dv" format="2">
  <advance width="981"/>
  <unicode hex="091A"/>
  <anchor x="748" y="37" name="bottom"/>
  <anchor x="738" y="37" name="bottom2"/>
  <anchor x="900" y="37" name="bottom3"/>
  <anchor x="748" y="55" name="bottom5"/>
  <anchor x="748" y="1255" name="top"/>
  <outline>
    <contour>
      <point x="900" y="1156" type="line"/>
      <point x="900" y="0" type="line"/>
      <point x="596" y="0" type="line"/>
      <point x="596" y="1156" type="line"/>
    </contour>
    <contour>
      <point x="573" y="1067" type="line"/>
      <point x="559" y="1308" type="line"/>
      <point x="1009" y="1308" type="line"/>
      <point x="1023" y="1067" type="line"/>
    </contour>
    <contour>
      <point x="-28" y="1067" type="line"/>
      <point x="-42" y="1308" type="line"/>
      <point x="1009" y="1308" type="line"/>
      <point x="1023" y="1067" type="line"/>
    </contour>
    <contour>
      <point x="519" y="937" type="line"/>
      <point x="519" y="686" type="line"/>
      <point x="276" y="684" type="line"/>
      <point x="188" y="679" type="line"/>
      <point x="31" y="679" type="line"/>
      <point x="31" y="937" type="line"/>
    </contour>
    <contour>
      <point x="357" y="105" type="curve" smooth="yes"/>
      <point x="187.808" y="105"/>
      <point x="92" y="204"/>
      <point x="92" y="418" type="curve" smooth="yes"/>
      <point x="92" y="442" type="line" smooth="yes"/>
      <point x="92" y="576.833"/>
      <point x="134.627" y="648.215"/>
      <point x="223" y="673" type="curve"/>
      <point x="223" y="760" type="line"/>
      <point x="519" y="760" type="line"/>
      <point x="519" y="686" type="line"/>
      <point x="495" y="684" type="line" smooth="yes"/>
      <point x="426" y="678"/>
      <point x="401" y="640"/>
      <point x="401" y="554" type="curve" smooth="yes"/>
      <point x="401" y="506" type="line" smooth="yes"/>
      <point x="401" y="405"/>
      <point x="431" y="370"/>
      <point x="499" y="370" type="curve" smooth="yes"/>
      <point x="559" y="370"/>
      <point x="592" y="405"/>
      <point x="600" y="473" type="curve"/>
      <point x="622" y="280" type="line"/>
      <point x="585" y="280" type="line"/>
      <point x="558" y="171"/>
      <point x="497" y="105"/>
    </contour>
  </outline>
  <guideline angle="0" x="0" y="52"/>
  <guideline angle="90" x="748" y="0"/>
  <guideline angle="0" x="0" y="37"/>
  <guideline angle="0" x="0" y="1255"/>
  <guideline angle="90" x="738" y="0"/>
  <guideline angle="90" x="900" y="0"/>
  <guideline angle="0" x="0" y="55"/>
</glyph>
<glyph name="Nya.dv" format="2">
  <advance width="1049"/>
  <unicode hex="091E"/>
  <anchor x="816" y="37" name="bottom"/>
  <anchor x="806" y="37" name="bottom2"/>
  <anchor x="968" y="37" name="bottom3"/>
  <anchor x="816" y="55" name="bottom5"/>
  <anchor x="816" y="1255" name="top"/>
  <outline>
    <contour>
      <point x="-28" y="1067" type="line"/>
      <point x="-42" y="1308" type="line"/>
      <point x="1077" y="1308" type="line"/>
      <point x="1091" y="1067" type="line"/>
    </contour>
    <contour>
      <point x="72" y="931" type="line"/>
      <point x="127" y="953"/>
      <point x="180" y="962"/>
      <point x="243" y="962" type="curve" smooth="yes"/>
      <point x="443" y="962"/>
      <point x="535" y="845"/>
      <point x="535" y="558" type="curve" smooth="yes"/>
      <point x="535" y="489" type="line" smooth="yes"/>
      <point x="535" y="199"/>
      <point x="434" y="96"/>
      <point x="230" y="96" type="curve" smooth="yes"/>
      <point x="157" y="96"/>
      <point x="99" y="110"/>
      <point x="53" y="134" type="curve"/>
      <point x="44" y="390" type="line"/>
      <point x="72" y="375"/>
      <point x="105" y="361"/>
      <point x="149" y="361" type="curve" smooth="yes"/>
      <point x="213" y="361"/>
      <point x="245" y="401"/>
      <point x="245" y="508" type="curve" smooth="yes"/>
      <point x="245" y="550" type="line" smooth="yes"/>
      <point x="245" y="666"/>
      <point x="215" y="697"/>
      <point x="155" y="697" type="curve" smooth="yes"/>
      <point x="116" y="697"/>
      <point x="85" y="686"/>
      <point x="57" y="672" type="curve"/>
    </contour>
    <contour>
      <point x="462" y="664" type="line"/>
      <point x="734" y="664" type="line"/>
      <point x="734" y="406" type="line"/>
      <point x="462" y="406" type="line"/>
    </contour>
    <contour>
      <point x="968" y="1156" type="line"/>
      <point x="968" y="0" type="line"/>
      <point x="664" y="0" type="line"/>
      <point x="664" y="1156" type="line"/>
    </contour>
    <contour>
      <point x="641" y="1067" type="line"/>
      <point x="627" y="1308" type="line"/>
      <point x="1077" y="1308" type="line"/>
      <point x="1091" y="1067" type="line"/>
    </contour>
  </outline>
</glyph>
<glyph name="Tta.dv" format="2">
  <advance width="751"/>
  <unicode hex="091F"/>
  <anchor x="433" y="17" name="bottom"/>
  <anchor x="392" y="17" name="bottom2"/>
  <anchor x="750" y="17" name="bottom3"/>
  <anchor x="420" y="-48" name="bottom4"/>
  <anchor x="421" y="35" name="bottom5"/>
  <anchor x="515" y="1255" name="top"/>
  <outline>
    <contour>
      <point x="324" y="1067" type="line"/>
      <point x="310" y="1308" type="line"/>
      <point x="771" y="1308" type="line"/>
      <point x="785" y="1067" type="line"/>
    </contour>
    <contour>
      <point x="662" y="1156" type="line"/>
      <point x="662" y="961" type="line"/>
      <point x="368" y="961" type="line"/>
      <point x="368" y="1156" type="line"/>
    </contour>
    <contour>
      <point x="-21" y="1067" type="line"/>
      <point x="-35" y="1308" type="line"/>
      <point x="792" y="1308" type="line"/>
      <point x="806" y="1067" type="line"/>
    </contour>
    <contour>
      <point x="367" y="727" type="line"/>
      <point x="367" y="1159" type="line"/>
      <point x="662" y="1159" type="line"/>
      <point x="662" y="686" type="line"/>
    </contour>
    <contour>
      <point x="681" y="39" type="line"/>
      <point x="632" y="3"/>
      <point x="556" y="-20"/>
      <point x="454" y="-20" type="curve" smooth="yes"/>
      <point x="190" y="-20"/>
      <point x="59" y="103"/>
      <point x="59" y="416" type="curve" smooth="yes"/>
      <point x="59" y="506" type="line" smooth="yes"/>
      <point x="59" y="810"/>
      <point x="184" y="924"/>
      <point x="440" y="924" type="curve" smooth="yes"/>
      <point x="543" y="924"/>
      <point x="605" y="911"/>
      <point x="662" y="892" type="curve"/>
      <point x="662" y="666" type="line"/>
      <point x="616" y="673"/>
      <point x="578" y="677"/>
      <point x="532" y="677" type="curve" smooth="yes"/>
      <point x="410" y="677"/>
      <point x="363" y="626"/>
      <point x="363" y="480" type="curve" smooth="yes"/>
      <point x="363" y="434" type="line" smooth="yes"/>
      <point x="363" y="293"/>
      <point x="413" y="245"/>
      <point x="517" y="245" type="curve" smooth="yes"/>
      <point x="587" y="245"/>
      <point x="644" y="270"/>
      <point x="694" y="305" type="curve"/>
    </contour>
  </outline>
</glyph>
<glyph name="Ttha.dv" format="2">
  <advance width="926"/>
  <unicode hex="0920"/>
  <anchor x="481" y="17" name="bottom"/>
  <anchor x="447" y="17" name="bottom2"/>
  <anchor x="810" y="17" name="bottom3"/>
  <anchor x="471" y="-48" name="bottom4"/>
  <anchor x="472" y="35" name="bottom5"/>
  <anchor x="541" y="1255" name="top"/>
  <outline>
    <contour>
      <point x="350" y="1067" type="line"/>
      <point x="336" y="1308" type="line"/>
      <point x="797" y="1308" type="line"/>
      <point x="811" y="1067" type="line"/>
    </contour>
    <contour>
      <point x="688" y="1156" type="line"/>
      <point x="688" y="961" type="line"/>
      <point x="394" y="961" type="line"/>
      <point x="394" y="1156" type="line"/>
    </contour>
    <contour>
      <point x="-35" y="1308" type="line"/>
      <point x="954" y="1308" type="line"/>
      <point x="968" y="1067" type="line"/>
      <point x="-21" y="1067" type="line"/>
    </contour>
    <contour>
      <point x="393" y="1161" type="line"/>
      <point x="688" y="1161" type="line"/>
      <point x="688" y="769" type="line"/>
      <point x="393" y="769" type="line"/>
    </contour>
    <contour>
      <point x="668" y="894" type="line"/>
      <point x="808" y="834"/>
      <point x="870" y="732"/>
      <point x="870" y="517" type="curve" smooth="yes"/>
      <point x="870" y="405" type="line" smooth="yes"/>
      <point x="870" y="112"/>
      <point x="740" y="-20"/>
      <point x="466" y="-20" type="curve" smooth="yes"/>
      <point x="190" y="-20"/>
      <point x="59" y="112"/>
      <point x="59" y="403" type="curve" smooth="yes"/>
      <point x="59" y="528" type="line" smooth="yes"/>
      <point x="59" y="811"/>
      <point x="197" y="926"/>
      <point x="445" y="926" type="curve" smooth="yes"/>
      <point x="524" y="926"/>
      <point x="609" y="914"/>
      <point x="681" y="887" type="curve"/>
      <point x="681" y="631" type="line"/>
      <point x="605" y="670"/>
      <point x="524" y="684"/>
      <point x="475" y="684" type="curve" smooth="yes"/>
      <point x="396" y="684"/>
      <point x="363" y="638"/>
      <point x="363" y="521" type="curve" smooth="yes"/>
      <point x="363" y="405" type="line" smooth="yes"/>
      <point x="363" y="289"/>
      <point x="396" y="245"/>
      <point x="466" y="245" type="curve" smooth="yes"/>
      <point x="534" y="245"/>
      <point x="566" y="289"/>
      <point x="566" y="405" type="curve" smooth="yes"/>
      <point x="566" y="506" type="line" smooth="yes"/>
      <point x="566" y="631"/>
      <point x="548" y="681"/>
      <point x="471" y="697" type="curve"/>
    </contour>
  </outline>
</glyph>
<glyph name="Dda.dv" format="2">
  <advance width="852"/>
  <unicode hex="0921"/>
  <anchor x="462" y="8" name="bottom"/>
  <anchor x="408" y="8" name="bottom2"/>
  <anchor x="777" y="8" name="bottom3"/>
  <anchor x="431" y="26" name="bottom5"/>
  <anchor x="595" y="1255" name="top"/>
  <outline>
    <contour>
      <point x="404" y="1067" type="line"/>
      <point x="390" y="1308" type="line"/>
      <point x="851" y="1308" type="line"/>
      <point x="865" y="1067" type="line"/>
    </contour>
    <contour>
      <point x="742" y="1156" type="line"/>
      <point x="742" y="961" type="line"/>
      <point x="448" y="961" type="line"/>
      <point x="448" y="1156" type="line"/>
    </contour>
    <contour>
      <point x="894" y="1067" type="line"/>
      <point x="-28" y="1067" type="line"/>
      <point x="-42" y="1308" type="line"/>
      <point x="880" y="1308" type="line"/>
    </contour>
    <contour>
      <point x="447" y="1132" type="line"/>
      <point x="742" y="1132" type="line"/>
      <point x="742" y="732" type="line"/>
      <point x="691.269" y="748.165"/>
      <point x="499.261" y="809.347"/>
      <point x="447" y="826" type="curve"/>
    </contour>
    <contour>
      <point x="50" y="331" type="line"/>
      <point x="151" y="270"/>
      <point x="272" y="230"/>
      <point x="381" y="230" type="curve" smooth="yes"/>
      <point x="477" y="230"/>
      <point x="512" y="256"/>
      <point x="512" y="305" type="curve" smooth="yes"/>
      <point x="512" y="311" type="line" smooth="yes"/>
      <point x="512" y="355"/>
      <point x="488" y="379"/>
      <point x="423" y="379" type="curve" smooth="yes"/>
      <point x="361" y="379"/>
      <point x="309" y="361"/>
      <point x="267" y="335" type="curve"/>
      <point x="125" y="386"/>
      <point x="52" y="489"/>
      <point x="52" y="653" type="curve" smooth="yes"/>
      <point x="52" y="664" type="line" smooth="yes"/>
      <point x="52" y="859"/>
      <point x="164" y="968"/>
      <point x="399" y="968" type="curve" smooth="yes"/>
      <point x="537" y="968"/>
      <point x="648" y="949"/>
      <point x="742" y="924" type="curve"/>
      <point x="742" y="718" type="line"/>
      <point x="664" y="730"/>
      <point x="594" y="736"/>
      <point x="504" y="736" type="curve" smooth="yes"/>
      <point x="374" y="736"/>
      <point x="344" y="708"/>
      <point x="344" y="661" type="curve" smooth="yes"/>
      <point x="344" y="657" type="line" smooth="yes"/>
      <point x="344" y="633"/>
      <point x="353" y="615"/>
      <point x="372" y="602" type="curve"/>
      <point x="412" y="620"/>
      <point x="456" y="631"/>
      <point x="523" y="631" type="curve" smooth="yes"/>
      <point x="710" y="631"/>
      <point x="806" y="526"/>
      <point x="806" y="322" type="curve" smooth="yes"/>
      <point x="806" y="305" type="line" smooth="yes"/>
      <point x="806" y="90"/>
      <point x="686" y="-29"/>
      <point x="432" y="-29" type="curve" smooth="yes"/>
      <point x="278" y="-29"/>
      <point x="156" y="2"/>
      <point x="64" y="55" type="curve"/>
    </contour>
  </outline>
  <guideline angle="0" x="0" y="8"/>
  <guideline angle="0" x="0" y="545"/>
  <guideline angle="90" x="408" y="0"/>
  <guideline angle="90" x="806" y="0"/>
  <guideline angle="0" x="0" y="26"/>
  <guideline angle="90" x="595" y="0"/>
  <guideline angle="90" x="842" y="0"/>
</glyph>
<glyph name="Ddha.dv" format="2">
  <advance width="957"/>
  <unicode hex="0922"/>
  <anchor x="522" y="8" name="bottom"/>
  <anchor x="482" y="8" name="bottom2"/>
  <anchor x="846" y="8" name="bottom3"/>
  <anchor x="503" y="26" name="bottom5"/>
  <anchor x="690" y="1255" name="top"/>
  <outline>
    <contour>
      <point x="499" y="1067" type="line"/>
      <point x="485" y="1308" type="line"/>
      <point x="946" y="1308" type="line"/>
      <point x="960" y="1067" type="line"/>
    </contour>
    <contour>
      <point x="837" y="1156" type="line"/>
      <point x="837" y="961" type="line"/>
      <point x="543" y="961" type="line"/>
      <point x="543" y="1156" type="line"/>
    </contour>
    <contour>
      <point x="-21" y="1067" type="line"/>
      <point x="-35" y="1308" type="line"/>
      <point x="998" y="1308" type="line"/>
      <point x="1012" y="1067" type="line"/>
    </contour>
    <contour>
      <point x="543" y="1152" type="line"/>
      <point x="837" y="1152" type="line"/>
      <point x="837" y="707" type="line"/>
      <point x="543" y="800" type="line"/>
    </contour>
    <contour>
      <point x="59" y="526" type="line" smooth="yes"/>
      <point x="59" y="830"/>
      <point x="210" y="962"/>
      <point x="510" y="962" type="curve" smooth="yes"/>
      <point x="624" y="962"/>
      <point x="718" y="957"/>
      <point x="837" y="942" type="curve"/>
      <point x="837" y="707" type="line"/>
      <point x="762" y="718"/>
      <point x="690" y="723"/>
      <point x="618" y="723" type="curve" smooth="yes"/>
      <point x="418" y="723"/>
      <point x="342" y="659"/>
      <point x="342" y="486" type="curve" smooth="yes"/>
      <point x="342" y="408" type="line" smooth="yes"/>
      <point x="342" y="245"/>
      <point x="405" y="190"/>
      <point x="534" y="190" type="curve" smooth="yes"/>
      <point x="662" y="190"/>
      <point x="699" y="230"/>
      <point x="699" y="333" type="curve" smooth="yes"/>
      <point x="699" y="372" type="line" smooth="yes"/>
      <point x="699" y="429"/>
      <point x="690" y="447"/>
      <point x="662" y="447" type="curve" smooth="yes"/>
      <point x="631" y="447"/>
      <point x="622" y="427"/>
      <point x="622" y="372" type="curve" smooth="yes"/>
      <point x="622" y="333" type="line" smooth="yes"/>
      <point x="622" y="245"/>
      <point x="638" y="221"/>
      <point x="697" y="199" type="curve"/>
      <point x="541" y="171" type="line"/>
      <point x="541" y="195" type="line"/>
      <point x="451" y="230"/>
      <point x="418" y="282"/>
      <point x="418" y="401" type="curve" smooth="yes"/>
      <point x="418" y="425" type="line" smooth="yes"/>
      <point x="418" y="569"/>
      <point x="495" y="646"/>
      <point x="661" y="646" type="curve" smooth="yes"/>
      <point x="834" y="646"/>
      <point x="914" y="561"/>
      <point x="914" y="375" type="curve" smooth="yes"/>
      <point x="914" y="331" type="line" smooth="yes"/>
      <point x="914" y="94"/>
      <point x="780" y="-29"/>
      <point x="513" y="-29" type="curve" smooth="yes"/>
      <point x="212" y="-29"/>
      <point x="59" y="114"/>
      <point x="59" y="412" type="curve" smooth="yes"/>
    </contour>
  </outline>
</glyph>
<glyph name="Nna.dv" format="2">
  <advance width="1322"/>
  <unicode hex="0923"/>
  <anchor x="1089" y="37" name="bottom"/>
  <anchor x="1079" y="37" name="bottom2"/>
  <anchor x="1241" y="37" name="bottom3"/>
  <anchor x="1089" y="55" name="bottom5"/>
  <anchor x="1089" y="1255" name="top"/>
  <outline>
    <contour>
      <point x="1241" y="1156" type="line"/>
      <point x="1241" y="0" type="line"/>
      <point x="937" y="0" type="line"/>
      <point x="937" y="1156" type="line"/>
    </contour>
    <contour>
      <point x="914" y="1067" type="line"/>
      <point x="900" y="1308" type="line"/>
      <point x="1350" y="1308" type="line"/>
      <point x="1364" y="1067" type="line"/>
    </contour>
    <contour>
      <point x="-28" y="1067" type="line"/>
      <point x="-42" y="1308" type="line"/>
      <point x="1350" y="1308" type="line"/>
      <point x="1364" y="1067" type="line"/>
    </contour>
    <contour>
      <point x="436" y="236" type="curve" smooth="yes"/>
      <point x="197" y="236"/>
      <point x="74" y="359"/>
      <point x="74" y="635" type="curve" smooth="yes"/>
      <point x="74" y="1159" type="line"/>
      <point x="362" y="1159" type="line"/>
      <point x="362" y="609" type="line" smooth="yes"/>
      <point x="362" y="519"/>
      <point x="385" y="486"/>
      <point x="436" y="486" type="curve" smooth="yes"/>
      <point x="488" y="486"/>
      <point x="511" y="519"/>
      <point x="511" y="609" type="curve" smooth="yes"/>
      <point x="511" y="1159" type="line"/>
      <point x="799" y="1159" type="line"/>
      <point x="799" y="635" type="line" smooth="yes"/>
      <point x="799" y="359"/>
      <point x="675" y="236"/>
    </contour>
  </outline>
  <guideline angle="90" x="1089" y="0"/>
  <guideline angle="0" x="0" y="37"/>
  <guideline angle="0" x="0" y="1255"/>
  <guideline angle="90" x="1079" y="0"/>
  <guideline angle="90" x="1241" y="0"/>
  <guideline angle="0" x="0" y="55"/>
</glyph>
<glyph name="Ta.dv" format="2">
  <advance width="931"/>
  <unicode hex="0924"/>
  <anchor x="698" y="37" name="bottom"/>
  <anchor x="688" y="37" name="bottom2"/>
  <anchor x="850" y="37" name="bottom3"/>
  <anchor x="698" y="55" name="bottom5"/>
  <anchor x="698" y="1255" name="top"/>
  <outline>
    <contour>
      <point x="850" y="1156" type="line"/>
      <point x="850" y="0" type="line"/>
      <point x="546" y="0" type="line"/>
      <point x="546" y="1156" type="line"/>
    </contour>
    <contour>
      <point x="523" y="1067" type="line"/>
      <point x="509" y="1308" type="line"/>
      <point x="959" y="1308" type="line"/>
      <point x="973" y="1067" type="line"/>
    </contour>
    <contour>
      <point x="-28" y="1067" type="line"/>
      <point x="-42" y="1308" type="line"/>
      <point x="959" y="1308" type="line"/>
      <point x="973" y="1067" type="line"/>
    </contour>
    <contour>
      <point x="138" y="0" type="line"/>
      <point x="86" y="202"/>
      <point x="50" y="392"/>
      <point x="50" y="550" type="curve" smooth="yes"/>
      <point x="50" y="778"/>
      <point x="153" y="907"/>
      <point x="412" y="907" type="curve" smooth="yes"/>
      <point x="627" y="907" type="line"/>
      <point x="627" y="646" type="line"/>
      <point x="471" y="646" type="line" smooth="yes"/>
      <point x="379" y="646"/>
      <point x="354" y="607"/>
      <point x="354" y="508" type="curve" smooth="yes"/>
      <point x="354" y="389"/>
      <point x="386" y="214"/>
      <point x="437" y="0" type="curve"/>
    </contour>
  </outline>
  <guideline angle="90" x="698" y="0"/>
  <guideline angle="0" x="0" y="37"/>
  <guideline angle="0" x="0" y="1255"/>
  <guideline angle="90" x="688" y="0"/>
  <guideline angle="90" x="850" y="0"/>
  <guideline angle="0" x="0" y="55"/>
</glyph>
<glyph name="Tha.dv" format="2">
  <advance width="1154"/>
  <unicode hex="0925"/>
  <anchor x="921" y="37" name="bottom"/>
  <anchor x="911" y="37" name="bottom2"/>
  <anchor x="1073" y="37" name="bottom3"/>
  <anchor x="921" y="55" name="bottom5"/>
  <anchor x="921" y="1255" name="top"/>
  <outline>
    <contour>
      <point x="1073" y="1156" type="line"/>
      <point x="1073" y="0" type="line"/>
      <point x="769" y="0" type="line"/>
      <point x="769" y="1156" type="line"/>
    </contour>
    <contour>
      <point x="746" y="1067" type="line"/>
      <point x="732" y="1308" type="line"/>
      <point x="1182" y="1308" type="line"/>
      <point x="1196" y="1067" type="line"/>
    </contour>
    <contour>
      <point x="712" y="1308" type="line"/>
      <point x="1182" y="1308" type="line"/>
      <point x="1196" y="1067" type="line"/>
      <point x="726" y="1067" type="line"/>
    </contour>
    <contour>
      <point x="98" y="837" type="line"/>
      <point x="81" y="900"/>
      <point x="70" y="959"/>
      <point x="70" y="1032" type="curve" smooth="yes"/>
      <point x="70" y="1233"/>
      <point x="175" y="1334"/>
      <point x="374" y="1334" type="curve" smooth="yes"/>
      <point x="585" y="1334"/>
      <point x="684" y="1229"/>
      <point x="684" y="1003" type="curve" smooth="yes"/>
      <point x="684" y="874" type="line" smooth="yes"/>
      <point x="684" y="618"/>
      <point x="554" y="508"/>
      <point x="270" y="508" type="curve" smooth="yes"/>
      <point x="193" y="508" type="line"/>
      <point x="66" y="734" type="line"/>
      <point x="210" y="734" type="line" smooth="yes"/>
      <point x="368" y="734"/>
      <point x="421" y="778"/>
      <point x="421" y="896" type="curve" smooth="yes"/>
      <point x="421" y="997" type="line" smooth="yes"/>
      <point x="421" y="1064"/>
      <point x="410" y="1089"/>
      <point x="374" y="1089" type="curve" smooth="yes"/>
      <point x="333" y="1089"/>
      <point x="322" y="1064"/>
      <point x="322" y="992" type="curve" smooth="yes"/>
      <point x="322" y="837" type="line"/>
    </contour>
    <contour>
      <point x="66" y="563" type="line" smooth="yes"/>
      <point x="66" y="622"/>
      <point x="66" y="673"/>
      <point x="66" y="734" type="curve"/>
      <point x="357" y="650" type="line"/>
      <point x="357" y="541" type="line" smooth="yes"/>
      <point x="357" y="434"/>
      <point x="420" y="392"/>
      <point x="545" y="392" type="curve" smooth="yes"/>
      <point x="686" y="392"/>
      <point x="756" y="436"/>
      <point x="773" y="524" type="curve"/>
      <point x="795" y="326" type="line"/>
      <point x="759" y="326" type="line"/>
      <point x="728" y="202"/>
      <point x="640" y="127"/>
      <point x="445" y="127" type="curve" smooth="yes"/>
      <point x="201" y="127"/>
      <point x="66" y="258"/>
      <point x="66" y="537" type="curve" smooth="yes"/>
    </contour>
  </outline>
</glyph>
<glyph name="Da.dv" format="2">
  <advance width="857"/>
  <unicode hex="0926"/>
  <anchor x="655" y="-86" name="bottom"/>
  <anchor x="486" y="-106" name="bottom2"/>
  <anchor x="812" y="-106" name="bottom3"/>
  <anchor x="261" y="5" name="bottom4"/>
  <anchor x="504" y="-90" name="bottom5"/>
  <anchor x="625" y="1255" name="top"/>
  <outline>
    <contour>
      <point x="434" y="1067" type="line"/>
      <point x="420" y="1308" type="line"/>
      <point x="881" y="1308" type="line"/>
      <point x="895" y="1067" type="line"/>
    </contour>
    <contour>
      <point x="772" y="1156" type="line"/>
      <point x="772" y="961" type="line"/>
      <point x="478" y="961" type="line"/>
      <point x="478" y="1156" type="line"/>
    </contour>
    <contour>
      <point x="-17" y="1067" type="line"/>
      <point x="-31" y="1308" type="line"/>
      <point x="895" y="1308" type="line"/>
      <point x="909" y="1067" type="line"/>
    </contour>
    <contour>
      <point x="477" y="761" type="line"/>
      <point x="477" y="1159" type="line"/>
      <point x="772" y="1159" type="line"/>
      <point x="772" y="724" type="line"/>
    </contour>
    <contour>
      <point x="786" y="546" type="line"/>
      <point x="786" y="213" type="line"/>
      <point x="834" y="-144" type="line"/>
      <point x="547" y="-144" type="line"/>
      <point x="511" y="204" type="line"/>
      <point x="493" y="261" type="line"/>
      <point x="493" y="546" type="line"/>
    </contour>
    <contour>
      <point x="436" y="289" type="curve" smooth="yes"/>
      <point x="469" y="289"/>
      <point x="489" y="298"/>
      <point x="506" y="316" type="curve"/>
      <point x="546" y="119" type="line"/>
      <point x="523" y="63"/>
      <point x="452" y="29"/>
      <point x="357" y="29" type="curve" smooth="yes"/>
      <point x="161" y="29"/>
      <point x="53" y="142.443"/>
      <point x="53" y="436" type="curve" smooth="yes"/>
      <point x="53" y="518" type="line" smooth="yes"/>
      <point x="53" y="834"/>
      <point x="193" y="953"/>
      <point x="455" y="953" type="curve" smooth="yes"/>
      <point x="587" y="953"/>
      <point x="678" y="944"/>
      <point x="772" y="927" type="curve"/>
      <point x="772" y="706" type="line"/>
      <point x="705" y="712"/>
      <point x="637" y="715"/>
      <point x="574" y="715" type="curve" smooth="yes"/>
      <point x="406.498" y="715"/>
      <point x="351" y="659.488"/>
      <point x="351" y="498" type="curve" smooth="yes"/>
      <point x="351" y="442" type="line" smooth="yes"/>
      <point x="351" y="327"/>
      <point x="377.627" y="289"/>
    </contour>
  </outline>
</glyph>
<glyph name="Na.dv" format="2">
  <advance width="944"/>
  <unicode hex="0928"/>
  <anchor x="711" y="37" name="bottom"/>
  <anchor x="701" y="37" name="bottom2"/>
  <anchor x="863" y="37" name="bottom3"/>
  <anchor x="711" y="55" name="bottom5"/>
  <anchor x="711" y="1255" name="top"/>
  <outline>
    <contour>
      <point x="863" y="1156" type="line"/>
      <point x="863" y="0" type="line"/>
      <point x="559" y="0" type="line"/>
      <point x="559" y="1156" type="line"/>
    </contour>
    <contour>
      <point x="536" y="1067" type="line"/>
      <point x="522" y="1308" type="line"/>
      <point x="972" y="1308" type="line"/>
      <point x="986" y="1067" type="line"/>
    </contour>
    <contour>
      <point x="986" y="1067" type="line"/>
      <point x="-28" y="1067" type="line"/>
      <point x="-42" y="1308" type="line"/>
      <point x="972" y="1308" type="line"/>
    </contour>
    <contour>
      <point x="672" y="830" type="line"/>
      <point x="672" y="570" type="line"/>
      <point x="344" y="570" type="line"/>
      <point x="344" y="830" type="line"/>
    </contour>
    <contour>
      <point x="166" y="237" type="line"/>
      <point x="92" y="377"/>
      <point x="39" y="546"/>
      <point x="24" y="732" type="curve"/>
      <point x="144" y="830" type="line"/>
      <point x="397" y="830" type="line"/>
      <point x="397" y="237" type="line"/>
    </contour>
  </outline>
</glyph>
<glyph name="NaNukta.dv" format="2">
  <advance width="944"/>
  <unicode hex="0929"/>
  <anchor x="711" y="37" name="bottom"/>
  <anchor x="701" y="37" name="bottom2"/>
  <anchor x="863" y="37" name="bottom3"/>
  <anchor x="711" y="55" name="bottom5"/>
  <anchor x="711" y="1255" name="top"/>
  <outline>
    <contour>
      <point x="863" y="1156" type="line"/>
      <point x="863" y="0" type="line"/>
      <point x="559" y="0" type="line"/>
      <point x="559" y="1156" type="line"/>
    </contour>
    <contour>
      <point x="536" y="1067" type="line"/>
      <point x="522" y="1308" type="line"/>
      <point x="972" y="1308" type="line"/>
      <point x="986" y="1067" type="line"/>
    </contour>
    <contour>
      <point x="986" y="1067" type="line"/>
      <point x="-28" y="1067" type="line"/>
      <point x="-42" y="1308" type="line"/>
      <point x="972" y="1308" type="line"/>
    </contour>
    <contour>
      <point x="672" y="830" type="line"/>
      <point x="672" y="570" type="line"/>
      <point x="344" y="570" type="line"/>
      <point x="344" y="830" type="line"/>
    </contour>
    <contour>
      <point x="166" y="237" type="line"/>
      <point x="92" y="377"/>
      <point x="39" y="546"/>
      <point x="24" y="732" type="curve"/>
      <point x="144" y="830" type="line"/>
      <point x="397" y="830" type="line"/>
      <point x="397" y="237" type="line"/>
    </contour>
    <contour>
      <point x="265" y="-147" type="curve" smooth="yes"/>
      <point x="164" y="-147"/>
      <point x="118" y="-88"/>
      <point x="118" y="8" type="curve"/>
      <point x="118" y="9.3258"/>
      <point x="118" y="12.8517"/>
      <point x="118" y="14" type="curve"/>
      <point x="118" y="110"/>
      <point x="164" y="169"/>
      <point x="265" y="169" type="curve" smooth="yes"/>
      <point x="366" y="169"/>
      <point x="412" y="110"/>
      <point x="412" y="14" type="curve"/>
      <point x="412" y="12.6742"/>
      <point x="412" y="9.14832"/>
      <point x="412" y="8" type="curve"/>
      <point x="412" y="-88"/>
      <point x="366" y="-147"/>
    </contour>
  </outline>
</glyph>
<glyph name="Pa.dv" format="2">
  <advance width="949"/>
  <unicode hex="092A"/>
  <anchor x="716" y="37" name="bottom"/>
  <anchor x="706" y="37" name="bottom2"/>
  <anchor x="868" y="37" name="bottom3"/>
  <anchor x="716" y="55" name="bottom5"/>
  <anchor x="716" y="1255" name="top"/>
  <outline>
    <contour>
      <point x="868" y="1156" type="line"/>
      <point x="868" y="0" type="line"/>
      <point x="564" y="0" type="line"/>
      <point x="564" y="1156" type="line"/>
    </contour>
    <contour>
      <point x="541" y="1067" type="line"/>
      <point x="527" y="1308" type="line"/>
      <point x="977" y="1308" type="line"/>
      <point x="991" y="1067" type="line"/>
    </contour>
    <contour>
      <point x="-28" y="1067" type="line"/>
      <point x="-42" y="1308" type="line"/>
      <point x="977" y="1308" type="line"/>
      <point x="991" y="1067" type="line"/>
    </contour>
    <contour>
      <point x="339" y="230" type="curve" smooth="yes"/>
      <point x="162" y="230"/>
      <point x="74" y="340"/>
      <point x="74" y="596" type="curve" smooth="yes"/>
      <point x="74" y="1159" type="line"/>
      <point x="378" y="1159" type="line"/>
      <point x="378" y="626" type="line" smooth="yes"/>
      <point x="378" y="528"/>
      <point x="405" y="495"/>
      <point x="469" y="495" type="curve" smooth="yes"/>
      <point x="528" y="495"/>
      <point x="561" y="530"/>
      <point x="569" y="596" type="curve"/>
      <point x="591" y="408" type="line"/>
      <point x="554" y="408" type="line"/>
      <point x="534" y="303"/>
      <point x="471" y="230"/>
    </contour>
  </outline>
</glyph>
<glyph name="Pha.dv" format="2">
  <advance width="1354"/>
  <unicode hex="092B"/>
  <anchor x="694" y="37" name="bottom"/>
  <anchor x="684" y="37" name="bottom2"/>
  <anchor x="1030" y="37" name="bottom3"/>
  <anchor x="694" y="55" name="bottom5"/>
  <anchor x="694" y="1255" name="top"/>
  <outline>
    <contour>
      <point x="-28" y="1067" type="line"/>
      <point x="-42" y="1308" type="line"/>
      <point x="1382" y="1308" type="line"/>
      <point x="1396" y="1067" type="line"/>
    </contour>
    <contour>
      <point x="315" y="230" type="curve" smooth="yes"/>
      <point x="153" y="230"/>
      <point x="74" y="333"/>
      <point x="74" y="583" type="curve" smooth="yes"/>
      <point x="74" y="1159" type="line"/>
      <point x="378" y="1159" type="line"/>
      <point x="378" y="620" type="line" smooth="yes"/>
      <point x="378" y="526"/>
      <point x="401" y="495"/>
      <point x="456" y="495" type="curve" smooth="yes"/>
      <point x="512" y="495"/>
      <point x="541" y="530"/>
      <point x="546" y="596" type="curve"/>
      <point x="569" y="408" type="line"/>
      <point x="532" y="408" type="line"/>
      <point x="508" y="300"/>
      <point x="453" y="230"/>
    </contour>
    <contour>
      <point x="926" y="657" type="curve" smooth="yes"/>
      <point x="880" y="657"/>
      <point x="853" y="628"/>
      <point x="843" y="576" type="curve"/>
      <point x="821" y="754" type="line"/>
      <point x="856" y="754" type="line"/>
      <point x="880" y="854"/>
      <point x="940" y="918"/>
      <point x="1062" y="918" type="curve" smooth="yes"/>
      <point x="1228" y="918"/>
      <point x="1305" y="792"/>
      <point x="1305" y="537" type="curve" smooth="yes"/>
      <point x="1305" y="443" type="line" smooth="yes"/>
      <point x="1305" y="189"/>
      <point x="1219" y="64"/>
      <point x="1036" y="64" type="curve" smooth="yes"/>
      <point x="995" y="64"/>
      <point x="960" y="69"/>
      <point x="933" y="79" type="curve"/>
      <point x="914" y="333" type="line"/>
      <point x="921" y="331"/>
      <point x="932" y="329"/>
      <point x="942" y="329" type="curve" smooth="yes"/>
      <point x="988" y="329"/>
      <point x="1005" y="361"/>
      <point x="1005" y="458" type="curve" smooth="yes"/>
      <point x="1005" y="513" type="line" smooth="yes"/>
      <point x="1005" y="624"/>
      <point x="979" y="657"/>
    </contour>
    <contour>
      <point x="846" y="1156" type="line"/>
      <point x="846" y="0" type="line"/>
      <point x="542" y="0" type="line"/>
      <point x="542" y="1156" type="line"/>
    </contour>
  </outline>
</glyph>
<glyph name="Bha.dv" format="2">
  <advance width="986"/>
  <unicode hex="092D"/>
  <anchor x="753" y="37" name="bottom"/>
  <anchor x="743" y="37" name="bottom2"/>
  <anchor x="905" y="37" name="bottom3"/>
  <anchor x="753" y="55" name="bottom5"/>
  <anchor x="753" y="1255" name="top"/>
  <outline>
    <contour>
      <point x="905" y="1156" type="line"/>
      <point x="905" y="0" type="line"/>
      <point x="601" y="0" type="line"/>
      <point x="601" y="1156" type="line"/>
    </contour>
    <contour>
      <point x="578" y="1067" type="line"/>
      <point x="564" y="1308" type="line"/>
      <point x="1014" y="1308" type="line"/>
      <point x="1028" y="1067" type="line"/>
    </contour>
    <contour>
      <point x="533" y="1067" type="line"/>
      <point x="519" y="1308" type="line"/>
      <point x="914" y="1308" type="line"/>
      <point x="928" y="1067" type="line"/>
    </contour>
    <contour>
      <point x="187" y="415" type="line"/>
      <point x="187" y="673" type="line"/>
      <point x="721" y="673" type="line"/>
      <point x="721" y="415" type="line"/>
    </contour>
    <contour>
      <point x="174" y="127" type="line"/>
      <point x="92" y="250"/>
      <point x="38" y="410"/>
      <point x="29" y="587" type="curve"/>
      <point x="121" y="650" type="line"/>
      <point x="421" y="650" type="line"/>
      <point x="421" y="127" type="line"/>
    </contour>
    <contour>
      <point x="121" y="535" type="line"/>
      <point x="121" y="966" type="line" smooth="yes"/>
      <point x="121" y="1043"/>
      <point x="103" y="1067"/>
      <point x="38" y="1067" type="curve" smooth="yes"/>
      <point x="-28" y="1067" type="line"/>
      <point x="-42" y="1308" type="line"/>
      <point x="81" y="1308" type="line" smooth="yes"/>
      <point x="336" y="1308"/>
      <point x="421" y="1211"/>
      <point x="421" y="970" type="curve" smooth="yes"/>
      <point x="421" y="535" type="line"/>
    </contour>
  </outline>
</glyph>
<glyph name="Ma.dv" format="2">
  <advance width="992"/>
  <unicode hex="092E"/>
  <anchor x="759" y="37" name="bottom"/>
  <anchor x="749" y="37" name="bottom2"/>
  <anchor x="911" y="37" name="bottom3"/>
  <anchor x="759" y="55" name="bottom5"/>
  <anchor x="759" y="1255" name="top"/>
  <outline>
    <contour>
      <point x="911" y="1156" type="line"/>
      <point x="911" y="0" type="line"/>
      <point x="607" y="0" type="line"/>
      <point x="607" y="1156" type="line"/>
    </contour>
    <contour>
      <point x="584" y="1067" type="line"/>
      <point x="570" y="1308" type="line"/>
      <point x="1020" y="1308" type="line"/>
      <point x="1034" y="1067" type="line"/>
    </contour>
    <contour>
      <point x="1033" y="1067" type="line"/>
      <point x="-28" y="1067" type="line"/>
      <point x="-42" y="1308" type="line"/>
      <point x="1019" y="1308" type="line"/>
    </contour>
    <contour>
      <point x="726" y="668" type="line"/>
      <point x="726" y="410" type="line"/>
      <point x="187" y="410" type="line"/>
      <point x="187" y="668" type="line"/>
    </contour>
    <contour>
      <point x="421" y="1159" type="line"/>
      <point x="421" y="528" type="line"/>
      <point x="121" y="528" type="line"/>
      <point x="121" y="1159" type="line"/>
    </contour>
    <contour>
      <point x="174" y="120" type="line"/>
      <point x="91" y="241"/>
      <point x="38" y="403"/>
      <point x="29" y="578" type="curve"/>
      <point x="121" y="644" type="line"/>
      <point x="421" y="644" type="line"/>
      <point x="421" y="120" type="line"/>
    </contour>
  </outline>
  <guideline angle="90" x="759" y="0"/>
  <guideline angle="0" x="0" y="37"/>
  <guideline angle="0" x="0" y="1255"/>
  <guideline angle="90" x="749" y="0"/>
  <guideline angle="90" x="911" y="0"/>
  <guideline angle="0" x="0" y="55"/>
</glyph>
<glyph name="Ya.dv" format="2">
  <advance width="1014"/>
  <unicode hex="092F"/>
  <anchor x="781" y="37" name="bottom"/>
  <anchor x="771" y="37" name="bottom2"/>
  <anchor x="933" y="37" name="bottom3"/>
  <anchor x="781" y="55" name="bottom5"/>
  <anchor x="781" y="1255" name="top"/>
  <outline>
    <contour>
      <point x="933" y="1156" type="line"/>
      <point x="933" y="0" type="line"/>
      <point x="629" y="0" type="line"/>
      <point x="629" y="1156" type="line"/>
    </contour>
    <contour>
      <point x="606" y="1067" type="line"/>
      <point x="592" y="1308" type="line"/>
      <point x="1042" y="1308" type="line"/>
      <point x="1056" y="1067" type="line"/>
    </contour>
    <contour>
      <point x="-42" y="1308" type="line"/>
      <point x="942" y="1308" type="line"/>
      <point x="956" y="1067" type="line"/>
      <point x="-28" y="1067" type="line"/>
    </contour>
    <contour>
      <point x="462" y="1100" type="line"/>
      <point x="493" y="1054"/>
      <point x="502" y="999"/>
      <point x="502" y="889" type="curve" smooth="yes"/>
      <point x="502" y="821" type="line" smooth="yes"/>
      <point x="502" y="624"/>
      <point x="431" y="530"/>
      <point x="215" y="523" type="curve" smooth="yes"/>
      <point x="166" y="521" type="line"/>
      <point x="52" y="738" type="line"/>
      <point x="70" y="738" type="line" smooth="yes"/>
      <point x="167" y="738"/>
      <point x="198" y="789"/>
      <point x="198" y="891" type="curve" smooth="yes"/>
      <point x="198" y="940" type="line" smooth="yes"/>
      <point x="198" y="1025"/>
      <point x="187" y="1065"/>
      <point x="161" y="1100" type="curve"/>
    </contour>
    <contour>
      <point x="52" y="537" type="line" smooth="yes"/>
      <point x="52" y="602"/>
      <point x="52" y="666"/>
      <point x="52" y="738" type="curve"/>
      <point x="342" y="661" type="line"/>
      <point x="342" y="530" type="line" smooth="yes"/>
      <point x="342" y="443"/>
      <point x="386" y="403"/>
      <point x="482" y="403" type="curve" smooth="yes"/>
      <point x="591" y="403"/>
      <point x="627" y="458"/>
      <point x="638" y="535" type="curve"/>
      <point x="653" y="324" type="line"/>
      <point x="619" y="324" type="line"/>
      <point x="595" y="211"/>
      <point x="524" y="138"/>
      <point x="366" y="138" type="curve" smooth="yes"/>
      <point x="167" y="138"/>
      <point x="52" y="248"/>
      <point x="52" y="515" type="curve" smooth="yes"/>
    </contour>
  </outline>
</glyph>
<glyph name="RaNukta.dv" format="2">
  <advance width="611"/>
  <unicode hex="0931"/>
  <anchor x="277" y="37" name="bottom2"/>
  <anchor x="667" y="37" name="bottom3"/>
  <anchor x="391" y="55" name="bottom5"/>
  <anchor x="344" y="1255" name="top"/>
  <outline>
    <contour>
      <point x="663" y="1067" type="line"/>
      <point x="-28" y="1067" type="line"/>
      <point x="-42" y="1308" type="line"/>
      <point x="649" y="1308" type="line"/>
    </contour>
    <contour>
      <point x="569" y="0" type="line"/>
      <point x="232" y="0" type="line"/>
      <point x="105" y="422" type="line"/>
      <point x="31" y="431" type="line"/>
      <point x="31" y="694" type="line"/>
      <point x="256" y="605" type="line"/>
      <point x="256" y="537" type="line"/>
      <point x="364" y="466"/>
      <point x="420" y="379"/>
      <point x="473" y="245" type="curve" smooth="yes"/>
      <point x="569" y="6" type="line"/>
    </contour>
    <contour>
      <point x="500" y="1110" type="line"/>
      <point x="532" y="1064"/>
      <point x="546" y="990"/>
      <point x="546" y="889" type="curve" smooth="yes"/>
      <point x="546" y="854" type="line" smooth="yes"/>
      <point x="546" y="585"/>
      <point x="453" y="466"/>
      <point x="219" y="443" type="curve" smooth="yes"/>
      <point x="158" y="438" type="line"/>
      <point x="31" y="694" type="line"/>
      <point x="85" y="694" type="line" smooth="yes"/>
      <point x="204" y="694"/>
      <point x="244" y="758"/>
      <point x="244" y="892" type="curve" smooth="yes"/>
      <point x="244" y="922" type="line" smooth="yes"/>
      <point x="244" y="1016"/>
      <point x="235" y="1065"/>
      <point x="200" y="1110" type="curve"/>
    </contour>
    <contour>
      <point x="135" y="-314" type="curve" smooth="yes"/>
      <point x="34" y="-314"/>
      <point x="-12" y="-255"/>
      <point x="-12" y="-159" type="curve"/>
      <point x="-12" y="-157.674"/>
      <point x="-12" y="-154.148"/>
      <point x="-12" y="-153" type="curve"/>
      <point x="-12" y="-57"/>
      <point x="34" y="2"/>
      <point x="135" y="2" type="curve" smooth="yes"/>
      <point x="236" y="2"/>
      <point x="282" y="-57"/>
      <point x="282" y="-153" type="curve"/>
      <point x="282" y="-154.326"/>
      <point x="282" y="-157.852"/>
      <point x="282" y="-159" type="curve"/>
      <point x="282" y="-255"/>
      <point x="236" y="-314"/>
    </contour>
  </outline>
  <guideline angle="90" x="263" y="0"/>
  <guideline angle="0" x="0" y="377"/>
  <guideline angle="0" x="0" y="1255"/>
  <guideline angle="0" x="0" y="55"/>
</glyph>
<glyph name="La.dv" format="2">
  <advance width="1214"/>
  <unicode hex="0932"/>
  <anchor x="981" y="37" name="bottom"/>
  <anchor x="971" y="37" name="bottom2"/>
  <anchor x="1133" y="37" name="bottom3"/>
  <anchor x="981" y="55" name="bottom5"/>
  <anchor x="981" y="1255" name="top"/>
  <outline>
    <contour>
      <point x="1133" y="1156" type="line"/>
      <point x="1133" y="0" type="line"/>
      <point x="829" y="0" type="line"/>
      <point x="829" y="1156" type="line"/>
    </contour>
    <contour>
      <point x="806" y="1067" type="line"/>
      <point x="792" y="1308" type="line"/>
      <point x="1242" y="1308" type="line"/>
      <point x="1256" y="1067" type="line"/>
    </contour>
    <contour>
      <point x="-28" y="1067" type="line"/>
      <point x="-42" y="1308" type="line"/>
      <point x="1242" y="1308" type="line"/>
      <point x="1256" y="1067" type="line"/>
    </contour>
    <contour>
      <point x="357" y="922" type="curve" smooth="yes"/>
      <point x="486" y="922"/>
      <point x="552" y="872"/>
      <point x="580" y="786" type="curve"/>
      <point x="589" y="786" type="line"/>
      <point x="611" y="874"/>
      <point x="668" y="922"/>
      <point x="762" y="922" type="curve" smooth="yes"/>
      <point x="813" y="922"/>
      <point x="843" y="907"/>
      <point x="867" y="880" type="curve"/>
      <point x="834" y="611" type="line"/>
      <point x="826" y="638"/>
      <point x="811" y="655"/>
      <point x="784" y="655" type="curve" smooth="yes"/>
      <point x="747" y="655"/>
      <point x="730" y="633"/>
      <point x="729" y="534" type="curve" smooth="yes"/>
      <point x="721" y="237" type="line"/>
      <point x="478" y="237" type="line"/>
      <point x="469" y="537" type="line" smooth="yes"/>
      <point x="466" y="627"/>
      <point x="454" y="655"/>
      <point x="414" y="655" type="curve" smooth="yes"/>
      <point x="370" y="655"/>
      <point x="354" y="615"/>
      <point x="354" y="532" type="curve" smooth="yes"/>
      <point x="354" y="375"/>
      <point x="387" y="228"/>
      <point x="485" y="2" type="curve"/>
      <point x="485" y="0" type="line"/>
      <point x="167" y="0" type="line"/>
      <point x="81" y="224"/>
      <point x="50" y="386"/>
      <point x="50" y="554" type="curve" smooth="yes"/>
      <point x="50" y="791"/>
      <point x="160" y="922"/>
    </contour>
  </outline>
</glyph>
<glyph name="Lla.dv" format="2">
  <advance width="1225"/>
  <unicode hex="0933"/>
  <anchor x="908" y="19" name="bottom"/>
  <anchor x="880" y="19" name="bottom2"/>
  <anchor x="964" y="19" name="bottom3"/>
  <anchor x="637" y="42" name="bottom5"/>
  <anchor x="861" y="1255" name="top"/>
  <outline>
    <contour>
      <point x="670" y="1067" type="line"/>
      <point x="656" y="1308" type="line"/>
      <point x="1117" y="1308" type="line"/>
      <point x="1131" y="1067" type="line"/>
    </contour>
    <contour>
      <point x="1008" y="1156" type="line"/>
      <point x="1008" y="961" type="line"/>
      <point x="714" y="961" type="line"/>
      <point x="714" y="1156" type="line"/>
    </contour>
    <contour>
      <point x="1268" y="1067" type="line"/>
      <point x="-28" y="1067" type="line"/>
      <point x="-42" y="1308" type="line"/>
      <point x="1254" y="1308" type="line"/>
    </contour>
    <contour>
      <point x="1008" y="857" type="line"/>
      <point x="713" y="857" type="line"/>
      <point x="713" y="1097" type="line"/>
      <point x="1008" y="1097" type="line"/>
    </contour>
    <contour>
      <point x="1170" y="374" type="line" smooth="yes"/>
      <point x="1170" y="109"/>
      <point x="1084" y="-13"/>
      <point x="898" y="-13" type="curve" smooth="yes"/>
      <point x="762" y="-13"/>
      <point x="699" y="55"/>
      <point x="675" y="144" type="curve"/>
      <point x="655" y="144" type="line"/>
      <point x="679" y="320" type="line"/>
      <point x="721" y="320" type="line"/>
      <point x="729" y="265"/>
      <point x="754" y="241"/>
      <point x="802" y="241" type="curve" smooth="yes"/>
      <point x="854" y="241"/>
      <point x="876" y="283"/>
      <point x="876" y="401" type="curve" smooth="yes"/>
      <point x="876" y="532" type="line" smooth="yes"/>
      <point x="876" y="633"/>
      <point x="856" y="661"/>
      <point x="815" y="661" type="curve" smooth="yes"/>
      <point x="776" y="661"/>
      <point x="756" y="637"/>
      <point x="749" y="548" type="curve" smooth="yes"/>
      <point x="727" y="258" type="line"/>
      <point x="677" y="173" type="line"/>
      <point x="648" y="48"/>
      <point x="563" y="-17"/>
      <point x="394" y="-17" type="curve" smooth="yes"/>
      <point x="173" y="-17"/>
      <point x="59" y="107"/>
      <point x="59" y="372" type="curve" smooth="yes"/>
      <point x="59" y="526" type="line" smooth="yes"/>
      <point x="59" y="808"/>
      <point x="162" y="922"/>
      <point x="350" y="922" type="curve" smooth="yes"/>
      <point x="491" y="922"/>
      <point x="549" y="848"/>
      <point x="568" y="751" type="curve"/>
      <point x="587" y="751" type="line"/>
      <point x="526" y="583" type="line"/>
      <point x="500" y="583" type="line"/>
      <point x="497" y="629"/>
      <point x="478" y="659"/>
      <point x="434" y="659" type="curve" smooth="yes"/>
      <point x="379" y="659"/>
      <point x="353" y="622"/>
      <point x="353" y="506" type="curve" smooth="yes"/>
      <point x="353" y="370" type="line" smooth="yes"/>
      <point x="353" y="269"/>
      <point x="375" y="241"/>
      <point x="416" y="241" type="curve" smooth="yes"/>
      <point x="454" y="241"/>
      <point x="475" y="267"/>
      <point x="478" y="329" type="curve" smooth="yes"/>
      <point x="499" y="638" type="line"/>
      <point x="563" y="705" type="line"/>
      <point x="587" y="843"/>
      <point x="670" y="922"/>
      <point x="850" y="922" type="curve" smooth="yes"/>
      <point x="1075" y="922"/>
      <point x="1170" y="791"/>
      <point x="1170" y="535" type="curve" smooth="yes"/>
    </contour>
  </outline>
</glyph>
<glyph name="Va.dv" format="2">
  <advance width="933"/>
  <unicode hex="0935"/>
  <anchor x="700" y="37" name="bottom"/>
  <anchor x="690" y="37" name="bottom2"/>
  <anchor x="852" y="37" name="bottom3"/>
  <anchor x="700" y="55" name="bottom5"/>
  <anchor x="700" y="1255" name="top"/>
  <outline>
    <contour>
      <point x="852" y="1156" type="line"/>
      <point x="852" y="0" type="line"/>
      <point x="548" y="0" type="line"/>
      <point x="548" y="1156" type="line"/>
    </contour>
    <contour>
      <point x="525" y="1067" type="line"/>
      <point x="511" y="1308" type="line"/>
      <point x="961" y="1308" type="line"/>
      <point x="975" y="1067" type="line"/>
    </contour>
    <contour>
      <point x="-28" y="1067" type="line"/>
      <point x="-42" y="1308" type="line"/>
      <point x="961" y="1308" type="line"/>
      <point x="975" y="1067" type="line"/>
    </contour>
    <contour>
      <point x="54" y="487" type="curve" smooth="yes"/>
      <point x="54" y="561" type="line" smooth="yes"/>
      <point x="54" y="847"/>
      <point x="151" y="962"/>
      <point x="359" y="962" type="curve" smooth="yes"/>
      <point x="405" y="962"/>
      <point x="438" y="957"/>
      <point x="469" y="948" type="curve"/>
      <point x="488" y="694" type="line"/>
      <point x="479" y="696"/>
      <point x="468" y="697"/>
      <point x="455" y="697" type="curve" smooth="yes"/>
      <point x="387" y="697"/>
      <point x="358" y="657"/>
      <point x="358" y="550" type="curve" smooth="yes"/>
      <point x="358" y="512" type="line" smooth="yes"/>
      <point x="358" y="401"/>
      <point x="388" y="370"/>
      <point x="453" y="370" type="curve" smooth="yes"/>
      <point x="512" y="370"/>
      <point x="545" y="405"/>
      <point x="552" y="473" type="curve"/>
      <point x="572" y="285" type="line"/>
      <point x="537" y="285" type="line"/>
      <point x="519" y="177"/>
      <point x="449" y="105"/>
      <point x="322" y="105" type="curve" smooth="yes"/>
      <point x="149" y="105"/>
      <point x="54" y="218"/>
    </contour>
  </outline>
</glyph>
<glyph name="Ssa.dv" format="2">
  <advance width="968"/>
  <unicode hex="0937"/>
  <anchor x="735" y="37" name="bottom"/>
  <anchor x="725" y="37" name="bottom2"/>
  <anchor x="887" y="37" name="bottom3"/>
  <anchor x="735" y="55" name="bottom5"/>
  <anchor x="735" y="1255" name="top"/>
  <outline>
    <contour>
      <point x="887" y="1156" type="line"/>
      <point x="887" y="0" type="line"/>
      <point x="583" y="0" type="line"/>
      <point x="583" y="1156" type="line"/>
    </contour>
    <contour>
      <point x="560" y="1067" type="line"/>
      <point x="546" y="1308" type="line"/>
      <point x="996" y="1308" type="line"/>
      <point x="1010" y="1067" type="line"/>
    </contour>
    <contour>
      <point x="-28" y="1067" type="line"/>
      <point x="-42" y="1308" type="line"/>
      <point x="996" y="1308" type="line"/>
      <point x="1010" y="1067" type="line"/>
    </contour>
    <contour>
      <point x="348" y="230" type="curve" smooth="yes"/>
      <point x="173" y="230"/>
      <point x="74" y="340"/>
      <point x="74" y="591" type="curve" smooth="yes"/>
      <point x="74" y="1159" type="line"/>
      <point x="359" y="1159" type="line"/>
      <point x="359" y="626" type="line" smooth="yes"/>
      <point x="359" y="523"/>
      <point x="399" y="484"/>
      <point x="473" y="484" type="curve" smooth="yes"/>
      <point x="539" y="484"/>
      <point x="580" y="519"/>
      <point x="587" y="585" type="curve"/>
      <point x="609" y="397" type="line"/>
      <point x="574" y="397" type="line"/>
      <point x="552" y="298"/>
      <point x="491" y="230"/>
    </contour>
    <contour>
      <point x="287" y="1032" type="curve"/>
      <point x="348" y="1123" type="line"/>
      <point x="519" y="854" type="line" smooth="yes"/>
      <point x="570.891" y="772.37"/>
      <point x="599.943" y="711.564"/>
      <point x="650" y="558" type="curve"/>
      <point x="574" y="493" type="line"/>
      <point x="425" y="730" type="line" smooth="yes"/>
      <point x="372.355" y="813.738"/>
      <point x="336" y="902"/>
    </contour>
  </outline>
  <guideline angle="90" x="735" y="0"/>
  <guideline angle="0" x="0" y="37"/>
  <guideline angle="0" x="0" y="1255"/>
  <guideline angle="90" x="725" y="0"/>
  <guideline angle="90" x="887" y="0"/>
  <guideline angle="0" x="0" y="55"/>
</glyph>
<glyph name="Sa.dv" format="2">
  <advance width="1056"/>
  <unicode hex="0938"/>
  <anchor x="823" y="37" name="bottom"/>
  <anchor x="813" y="37" name="bottom2"/>
  <anchor x="975" y="37" name="bottom3"/>
  <anchor x="823" y="55" name="bottom5"/>
  <anchor x="823" y="1255" name="top"/>
  <note>Moved the link up.</note>
  <outline>
    <contour>
      <point x="975" y="1156" type="line"/>
      <point x="975" y="0" type="line"/>
      <point x="671" y="0" type="line"/>
      <point x="671" y="1156" type="line"/>
    </contour>
    <contour>
      <point x="648" y="1067" type="line"/>
      <point x="634" y="1308" type="line"/>
      <point x="1084" y="1308" type="line"/>
      <point x="1098" y="1067" type="line"/>
    </contour>
    <contour>
      <point x="1098" y="1067" type="line"/>
      <point x="-28" y="1067" type="line"/>
      <point x="-42" y="1308" type="line"/>
      <point x="1084" y="1308" type="line"/>
    </contour>
    <contour>
      <point x="453" y="686" type="line"/>
      <point x="753" y="686" type="line"/>
      <point x="753" y="428" type="line"/>
      <point x="478" y="428" type="line"/>
    </contour>
    <contour>
      <point x="568" y="0" type="line"/>
      <point x="232" y="0" type="line"/>
      <point x="105" y="421" type="line"/>
      <point x="31" y="431" type="line"/>
      <point x="31" y="694" type="line"/>
      <point x="256" y="605" type="line"/>
      <point x="256" y="537" type="line"/>
      <point x="364" y="466"/>
      <point x="420" y="379"/>
      <point x="473" y="245" type="curve" smooth="yes"/>
      <point x="568" y="6" type="line"/>
    </contour>
    <contour>
      <point x="458" y="1110" type="line"/>
      <point x="489" y="1064"/>
      <point x="504" y="992"/>
      <point x="504" y="889" type="curve" smooth="yes"/>
      <point x="504" y="839" type="line" smooth="yes"/>
      <point x="504" y="580"/>
      <point x="425" y="467"/>
      <point x="204" y="443" type="curve" smooth="yes"/>
      <point x="155" y="438" type="line"/>
      <point x="31" y="694" type="line"/>
      <point x="64" y="694" type="line" smooth="yes"/>
      <point x="175" y="694"/>
      <point x="202" y="756"/>
      <point x="202" y="887" type="curve" smooth="yes"/>
      <point x="202" y="922" type="line" smooth="yes"/>
      <point x="202" y="1016"/>
      <point x="193" y="1065"/>
      <point x="158" y="1110" type="curve"/>
    </contour>
  </outline>
</glyph>
<glyph name="Ha.dv" format="2">
  <advance width="861"/>
  <unicode hex="0939"/>
  <anchor x="519" y="-63" name="bottom"/>
  <anchor x="455" y="-165" name="bottom2"/>
  <anchor x="809" y="-165" name="bottom3"/>
  <anchor x="194" y="-168" name="bottom4"/>
  <anchor x="476" y="-145" name="bottom5"/>
  <anchor x="615" y="1255" name="top"/>
  <outline>
    <contour>
      <point x="424" y="1067" type="line"/>
      <point x="410" y="1308" type="line"/>
      <point x="871" y="1308" type="line"/>
      <point x="885" y="1067" type="line"/>
    </contour>
    <contour>
      <point x="762" y="1156" type="line"/>
      <point x="762" y="961" type="line"/>
      <point x="468" y="961" type="line"/>
      <point x="468" y="1156" type="line"/>
    </contour>
    <contour>
      <point x="903" y="1067" type="line"/>
      <point x="-23" y="1067" type="line"/>
      <point x="-37" y="1308" type="line"/>
      <point x="889" y="1308" type="line"/>
    </contour>
    <contour>
      <point x="467" y="1132" type="line"/>
      <point x="762" y="1132" type="line"/>
      <point x="762" y="727" type="line"/>
      <point x="467" y="826" type="line"/>
    </contour>
    <contour>
      <point x="177" y="484" type="line"/>
      <point x="105" y="528"/>
      <point x="53" y="602"/>
      <point x="53" y="697" type="curve" smooth="yes"/>
      <point x="53" y="707" type="line" smooth="yes"/>
      <point x="53" y="867"/>
      <point x="166" y="968"/>
      <point x="401" y="968" type="curve" smooth="yes"/>
      <point x="535" y="968"/>
      <point x="646" y="957"/>
      <point x="762" y="935" type="curve"/>
      <point x="762" y="714" type="line"/>
      <point x="686" y="725"/>
      <point x="609" y="730"/>
      <point x="524" y="730" type="curve" smooth="yes"/>
      <point x="386" y="730"/>
      <point x="348" y="699"/>
      <point x="348" y="650" type="curve" smooth="yes"/>
      <point x="348" y="646" type="line" smooth="yes"/>
      <point x="348" y="627"/>
      <point x="357" y="609"/>
      <point x="374" y="598" type="curve"/>
    </contour>
    <contour>
      <point x="692" y="-182" type="line"/>
      <point x="659" y="-191"/>
      <point x="592" y="-201"/>
      <point x="524" y="-201" type="curve" smooth="yes"/>
      <point x="245" y="-201"/>
      <point x="61" y="-64"/>
      <point x="61" y="208" type="curve" smooth="yes"/>
      <point x="61" y="224" type="line" smooth="yes"/>
      <point x="61" y="375"/>
      <point x="116" y="489"/>
      <point x="234" y="541" type="curve"/>
      <point x="270" y="563" type="line" smooth="yes"/>
      <point x="320" y="594"/>
      <point x="394" y="618"/>
      <point x="478" y="618" type="curve" smooth="yes"/>
      <point x="712" y="618"/>
      <point x="819" y="499"/>
      <point x="819" y="309" type="curve" smooth="yes"/>
      <point x="819" y="259"/>
      <point x="811" y="212"/>
      <point x="799" y="167" type="curve"/>
      <point x="539" y="167" type="line"/>
      <point x="539" y="241" type="line" smooth="yes"/>
      <point x="539" y="326"/>
      <point x="517" y="357"/>
      <point x="451" y="357" type="curve" smooth="yes"/>
      <point x="388" y="357"/>
      <point x="359" y="316"/>
      <point x="359" y="239" type="curve" smooth="yes"/>
      <point x="359" y="223" type="line" smooth="yes"/>
      <point x="359" y="98"/>
      <point x="438" y="63"/>
      <point x="581" y="63" type="curve" smooth="yes"/>
      <point x="627" y="63"/>
      <point x="672" y="66"/>
      <point x="710" y="72" type="curve"/>
    </contour>
  </outline>
</glyph>
<glyph name="uni093A" format="2">
  <unicode hex="093A"/>
  <anchor x="-233" y="1255" name="_top"/>
  <outline>
    <contour>
      <point x="-362" y="1695" type="line"/>
      <point x="-103" y="1695" type="line"/>
      <point x="-103" y="1271" type="line"/>
      <point x="-362" y="1271" type="line"/>
    </contour>
  </outline>
</glyph>
<glyph name="uni093B" format="2">
  <advance width="466"/>
  <unicode hex="093B"/>
  <outline>
    <contour>
      <point x="385" y="0" type="line"/>
      <point x="81" y="0" type="line"/>
      <point x="81" y="1156" type="line"/>
      <point x="385" y="1156" type="line"/>
    </contour>
    <contour>
      <point x="508" y="1067" type="line"/>
      <point x="-28" y="1067" type="line"/>
      <point x="-42" y="1308" type="line"/>
      <point x="494" y="1308" type="line"/>
    </contour>
    <contour>
      <point x="104" y="1695" type="line"/>
      <point x="363" y="1695" type="line"/>
      <point x="363" y="1271" type="line"/>
      <point x="104" y="1271" type="line"/>
    </contour>
  </outline>
  <guideline angle="90" x="46" y="0"/>
</glyph>
<glyph name="Avagraha.dv" format="2">
  <advance width="789"/>
  <unicode hex="093D"/>
  <outline>
    <contour>
      <point x="50" y="361" type="line"/>
      <point x="134" y="293"/>
      <point x="221" y="245"/>
      <point x="309" y="245" type="curve" smooth="yes"/>
      <point x="394" y="245"/>
      <point x="436" y="283"/>
      <point x="436" y="359" type="curve" smooth="yes"/>
      <point x="436" y="366" type="line" smooth="yes"/>
      <point x="436" y="442"/>
      <point x="397" y="484"/>
      <point x="261" y="587" type="curve" smooth="yes"/>
      <point x="110" y="701"/>
      <point x="52" y="785"/>
      <point x="52" y="952" type="curve" smooth="yes"/>
      <point x="52" y="973" type="line" smooth="yes"/>
      <point x="52" y="1196"/>
      <point x="177" y="1308"/>
      <point x="414" y="1308" type="curve" smooth="yes"/>
      <point x="664" y="1308" type="line"/>
      <point x="690" y="1060" type="line"/>
      <point x="465" y="1060" type="line" smooth="yes"/>
      <point x="390" y="1060"/>
      <point x="355" y="1028"/>
      <point x="355" y="966" type="curve" smooth="yes"/>
      <point x="355" y="957" type="line" smooth="yes"/>
      <point x="355" y="891"/>
      <point x="397" y="856"/>
      <point x="526" y="758" type="curve" smooth="yes"/>
      <point x="673" y="648"/>
      <point x="740" y="544"/>
      <point x="740" y="361" type="curve" smooth="yes"/>
      <point x="740" y="346" type="line" smooth="yes"/>
      <point x="740" y="92"/>
      <point x="622" y="-28"/>
      <point x="366" y="-28" type="curve" smooth="yes"/>
      <point x="229" y="-28"/>
      <point x="134" y="9"/>
      <point x="59" y="68" type="curve"/>
    </contour>
  </outline>
</glyph>
<glyph name="matraA.dv" format="2">
  <advance width="466"/>
  <unicode hex="093E"/>
  <outline>
    <contour>
      <point x="385" y="0" type="line"/>
      <point x="81" y="0" type="line"/>
      <point x="81" y="1156" type="line"/>
      <point x="385" y="1156" type="line"/>
    </contour>
    <contour>
      <point x="508" y="1067" type="line"/>
      <point x="-28" y="1067" type="line"/>
      <point x="-42" y="1308" type="line"/>
      <point x="494" y="1308" type="line"/>
    </contour>
  </outline>
  <guideline angle="90" x="81" y="0"/>
</glyph>
<glyph name="matraI.dv" format="2">
  <advance width="466"/>
  <unicode hex="093F"/>
  <outline>
    <contour>
      <point x="385" y="0" type="line"/>
      <point x="81" y="0" type="line"/>
      <point x="81" y="1156" type="line"/>
      <point x="385" y="1156" type="line"/>
    </contour>
    <contour>
      <point x="508" y="1067" type="line"/>
      <point x="-28" y="1067" type="line"/>
      <point x="-42" y="1308" type="line"/>
      <point x="494" y="1308" type="line"/>
    </contour>
    <contour>
      <point x="604.768" y="1763" type="curve" smooth="yes"/>
      <point x="804.149" y="1763"/>
      <point x="995.704" y="1711.58"/>
      <point x="1152" y="1624" type="curve"/>
      <point x="1186" y="1348" type="line"/>
      <point x="1178.11" y="1346" type="line"/>
      <point x="972.942" y="1454"/>
      <point x="806.179" y="1501"/>
      <point x="625.701" y="1501" type="curve" smooth="yes"/>
      <point x="450.107" y="1501"/>
      <point x="381" y="1435"/>
      <point x="381" y="1308" type="curve" smooth="yes"/>
      <point x="381" y="1257" type="line"/>
      <point x="87" y="1257" type="line"/>
      <point x="87" y="1317.82" type="line" smooth="yes"/>
      <point x="87" y="1616.91"/>
      <point x="261.666" y="1763"/>
    </contour>
  </outline>
  <guideline angle="90" x="-1" y="0"/>
  <guideline angle="90" x="1152" y="0"/>
  <guideline angle="0" x="0" y="1474"/>
  <guideline angle="90" x="81" y="0"/>
</glyph>
<glyph name="matraIi.dv" format="2">
  <advance width="466"/>
  <unicode hex="0940"/>
  <outline>
    <contour>
      <point x="385" y="0" type="line"/>
      <point x="81" y="0" type="line"/>
      <point x="81" y="1156" type="line"/>
      <point x="385" y="1156" type="line"/>
    </contour>
    <contour>
      <point x="508" y="1067" type="line"/>
      <point x="-28" y="1067" type="line"/>
      <point x="-42" y="1308" type="line"/>
      <point x="494" y="1308" type="line"/>
    </contour>
    <contour>
      <point x="-12" y="1792" type="curve" smooth="yes"/>
      <point x="257" y="1792"/>
      <point x="377" y="1662"/>
      <point x="377" y="1404" type="curve" smooth="yes"/>
      <point x="377" y="1273" type="line"/>
      <point x="83" y="1273" type="line"/>
      <point x="83" y="1404" type="line" smooth="yes"/>
      <point x="83" y="1503"/>
      <point x="57" y="1535"/>
      <point x="0" y="1535" type="curve" smooth="yes"/>
      <point x="-61" y="1535"/>
      <point x="-88" y="1505"/>
      <point x="-88" y="1415" type="curve" smooth="yes"/>
      <point x="-88" y="1351" type="line"/>
      <point x="-368" y="1384" type="line"/>
      <point x="-378" y="1420"/>
      <point x="-383" y="1459"/>
      <point x="-383" y="1499" type="curve" smooth="yes"/>
      <point x="-383" y="1674"/>
      <point x="-253" y="1792"/>
    </contour>
  </outline>
  <guideline angle="90" x="81" y="0"/>
</glyph>
<glyph name="matraU.dv" format="2">
  <unicode hex="0941"/>
  <anchor x="-233" y="37" name="_bottom"/>
  <outline>
    <contour>
      <point x="-521" y="-156" type="line"/>
      <point x="-485" y="-294"/>
      <point x="-416" y="-372"/>
      <point x="-313" y="-372" type="curve" smooth="yes"/>
      <point x="-247" y="-372"/>
      <point x="-213" y="-343"/>
      <point x="-213" y="-282" type="curve" smooth="yes"/>
      <point x="-213" y="-276" type="line" smooth="yes"/>
      <point x="-213" y="-224"/>
      <point x="-241" y="-195"/>
      <point x="-309" y="-195" type="curve" smooth="yes"/>
      <point x="-356" y="-195"/>
      <point x="-400" y="-204"/>
      <point x="-449" y="-221" type="curve"/>
      <point x="-434" y="2" type="line"/>
      <point x="-380" y="25"/>
      <point x="-319" y="37"/>
      <point x="-236" y="37" type="curve" smooth="yes"/>
      <point x="-41" y="37"/>
      <point x="52" y="-76"/>
      <point x="52" y="-267" type="curve" smooth="yes"/>
      <point x="52" y="-278" type="line" smooth="yes"/>
      <point x="52" y="-484"/>
      <point x="-59" y="-604"/>
      <point x="-296" y="-604" type="curve" smooth="yes"/>
      <point x="-579" y="-604"/>
      <point x="-712" y="-452"/>
      <point x="-780" y="-156" type="curve"/>
    </contour>
  </outline>
</glyph>
<glyph name="matraRu.dv" format="2">
  <unicode hex="0943"/>
  <anchor x="-233" y="37" name="_bottom"/>
  <outline>
    <contour>
      <point x="-221" y="-594" type="curve" smooth="yes"/>
      <point x="-438" y="-594"/>
      <point x="-571" y="-489"/>
      <point x="-571" y="-282" type="curve" smooth="yes"/>
      <point x="-571" y="-276" type="line" smooth="yes"/>
      <point x="-571" y="-83"/>
      <point x="-458" y="26"/>
      <point x="-212" y="26" type="curve" smooth="yes"/>
      <point x="-81" y="26" type="line"/>
      <point x="-81" y="-204" type="line"/>
      <point x="-185" y="-204" type="line" smooth="yes"/>
      <point x="-270" y="-204"/>
      <point x="-302" y="-228"/>
      <point x="-302" y="-277" type="curve" smooth="yes"/>
      <point x="-302" y="-280" type="line" smooth="yes"/>
      <point x="-302" y="-330"/>
      <point x="-263" y="-355"/>
      <point x="-177" y="-355" type="curve" smooth="yes"/>
      <point x="-109" y="-355"/>
      <point x="-54" y="-340"/>
      <point x="-8" y="-316" type="curve"/>
      <point x="-28" y="-554" type="line"/>
      <point x="-79" y="-581"/>
      <point x="-142" y="-594"/>
    </contour>
  </outline>
  <guideline angle="0" x="0" y="5839"/>
  <guideline angle="0" x="0" y="37"/>
  <guideline angle="90" x="-233" y="0"/>
  <guideline angle="0" x="0" y="26"/>
  <guideline angle="90" x="-81" y="0"/>
  <guideline angle="90" x="-591" y="0"/>
</glyph>
<glyph name="matraRuu.dv" format="2">
  <unicode hex="0944"/>
  <anchor x="-233" y="37" name="_bottom"/>
  <outline>
    <contour>
      <point x="-81" y="26" type="line"/>
      <point x="-81" y="-160" type="line"/>
      <point x="-239.56" y="-160" type="line" smooth="yes"/>
      <point x="-298.668" y="-160"/>
      <point x="-324" y="-173"/>
      <point x="-324" y="-204" type="curve" smooth="yes"/>
      <point x="-324" y="-208" type="line" smooth="yes"/>
      <point x="-324" y="-237"/>
      <point x="-298.416" y="-254"/>
      <point x="-223.561" y="-254" type="curve" smooth="yes"/>
      <point x="-148.705" y="-254"/>
      <point x="-90.9049" y="-244"/>
      <point x="-35" y="-226" type="curve"/>
      <point x="-55" y="-429" type="line"/>
      <point x="-99.6165" y="-444"/>
      <point x="-156.842" y="-453"/>
      <point x="-244.135" y="-453" type="curve" smooth="yes"/>
      <point x="-435.211" y="-453"/>
      <point x="-571" y="-371"/>
      <point x="-571" y="-215" type="curve" smooth="yes"/>
      <point x="-571" y="-206" type="line" smooth="yes"/>
      <point x="-571" y="-57"/>
      <point x="-462.542" y="26"/>
      <point x="-282.423" y="26" type="curve" smooth="yes"/>
    </contour>
    <contour>
      <point x="-232" y="-449" type="line"/>
      <point x="-309.679" y="-449"/>
      <point x="-332" y="-465"/>
      <point x="-332" y="-497" type="curve"/>
      <point x="-332" y="-499" type="line"/>
      <point x="-332" y="-530"/>
      <point x="-296.419" y="-546"/>
      <point x="-218.524" y="-546" type="curve" smooth="yes"/>
      <point x="-144.476" y="-546"/>
      <point x="-85.8147" y="-535"/>
      <point x="-31" y="-513" type="curve"/>
      <point x="-52" y="-718" type="line"/>
      <point x="-100.493" y="-738"/>
      <point x="-169.354" y="-751"/>
      <point x="-256.642" y="-751" type="curve" smooth="yes"/>
      <point x="-445.766" y="-751"/>
      <point x="-567" y="-676.764"/>
      <point x="-567" y="-558.387" type="curve" smooth="yes"/>
      <point x="-567" y="-555.377" type="line" smooth="yes"/>
      <point x="-567" y="-485.153"/>
      <point x="-533" y="-437"/>
      <point x="-447" y="-417" type="curve"/>
      <point x="-447" y="-389" type="line"/>
    </contour>
  </outline>
</glyph>
<glyph name="Chandra.dv" format="2">
  <unicode hex="0945"/>
  <anchor x="-233" y="1255" name="_top"/>
  <outline>
    <contour>
      <point x="97" y="1763" type="line"/>
      <point x="99.25" y="1744"/>
      <point x="100" y="1724"/>
      <point x="100" y="1709" type="curve" smooth="yes"/>
      <point x="100" y="1487"/>
      <point x="-12" y="1389"/>
      <point x="-233" y="1389" type="curve" smooth="yes"/>
      <point x="-454" y="1389"/>
      <point x="-566" y="1487"/>
      <point x="-566" y="1709" type="curve" smooth="yes"/>
      <point x="-566" y="1723"/>
      <point x="-565.25" y="1743"/>
      <point x="-563" y="1763" type="curve"/>
      <point x="-325" y="1763" type="line"/>
      <point x="-325" y="1758.72"/>
      <point x="-325" y="1728.49"/>
      <point x="-325" y="1726" type="curve" smooth="yes"/>
      <point x="-325" y="1638"/>
      <point x="-299" y="1601"/>
      <point x="-233" y="1601" type="curve" smooth="yes"/>
      <point x="-167" y="1601"/>
      <point x="-141" y="1638"/>
      <point x="-141" y="1726" type="curve" smooth="yes"/>
      <point x="-141" y="1728.72"/>
      <point x="-141" y="1759.67"/>
      <point x="-141" y="1763" type="curve"/>
    </contour>
  </outline>
</glyph>
<glyph name="matraE.dv" format="2">
  <unicode hex="0947"/>
  <anchor x="-233" y="1255" name="_top"/>
  <outline>
    <contour>
      <point x="-864" y="1763" type="line"/>
      <point x="-516" y="1763" type="line"/>
      <point x="-433.368" y="1664.63"/>
      <point x="-198.166" y="1384.63"/>
      <point x="-117" y="1288" type="curve"/>
      <point x="-117" y="1255" type="line"/>
      <point x="-385" y="1255" type="line"/>
      <point x="-385" y="1317" type="line"/>
      <point x="-523" y="1378"/>
      <point x="-596" y="1436"/>
      <point x="-702" y="1555" type="curve" smooth="yes"/>
      <point x="-864" y="1737" type="line"/>
    </contour>
  </outline>
  <guideline angle="0" x="0" y="649"/>
  <guideline angle="90" x="-388" y="0"/>
  <guideline angle="90" x="-117" y="0"/>
  <guideline angle="0" x="0" y="1255"/>
  <guideline angle="90" x="-233" y="0"/>
</glyph>
<glyph name="matraAi.dv" format="2">
  <unicode hex="0948"/>
  <anchor x="-233" y="1255" name="_top"/>
  <outline>
    <contour>
      <point x="-644" y="1658" type="line"/>
      <point x="-324" y="1406" type="line"/>
      <point x="-318" y="1413" type="line"/>
      <point x="-423" y="1524"/>
      <point x="-478" y="1590"/>
      <point x="-537" y="1706" type="curve" smooth="yes"/>
      <point x="-607" y="1846" type="line"/>
      <point x="-607" y="1860" type="line"/>
      <point x="-320" y="1860" type="line"/>
      <point x="-110" y="1294" type="line"/>
      <point x="-110" y="1255" type="line"/>
      <point x="-388" y="1255" type="line"/>
      <point x="-388" y="1315" type="line"/>
      <point x="-570" y="1346"/>
      <point x="-666" y="1391"/>
      <point x="-789" y="1492" type="curve" smooth="yes"/>
      <point x="-964" y="1634" type="line"/>
      <point x="-964" y="1658" type="line"/>
    </contour>
  </outline>
</glyph>
<glyph name="matraAChandra.dv" format="2">
  <advance width="466"/>
  <unicode hex="0949"/>
  <outline>
    <contour>
      <point x="385" y="0" type="line"/>
      <point x="81" y="0" type="line"/>
      <point x="81" y="1156" type="line"/>
      <point x="385" y="1156" type="line"/>
    </contour>
    <contour>
      <point x="508" y="1067" type="line"/>
      <point x="-28" y="1067" type="line"/>
      <point x="-42" y="1308" type="line"/>
      <point x="494" y="1308" type="line"/>
    </contour>
    <contour>
      <point x="342" y="1763" type="line"/>
      <point x="344.25" y="1744"/>
      <point x="345" y="1724"/>
      <point x="345" y="1709" type="curve" smooth="yes"/>
      <point x="345" y="1487"/>
      <point x="233" y="1389"/>
      <point x="12" y="1389" type="curve" smooth="yes"/>
      <point x="-209" y="1389"/>
      <point x="-321" y="1487"/>
      <point x="-321" y="1709" type="curve" smooth="yes"/>
      <point x="-321" y="1723"/>
      <point x="-320.25" y="1743"/>
      <point x="-318" y="1763" type="curve"/>
      <point x="-80" y="1763" type="line"/>
      <point x="-80" y="1758.72"/>
      <point x="-80" y="1728.49"/>
      <point x="-80" y="1726" type="curve" smooth="yes"/>
      <point x="-80" y="1638"/>
      <point x="-54" y="1601"/>
      <point x="12" y="1601" type="curve" smooth="yes"/>
      <point x="78" y="1601"/>
      <point x="104" y="1638"/>
      <point x="104" y="1726" type="curve" smooth="yes"/>
      <point x="104" y="1728.72"/>
      <point x="104" y="1759.67"/>
      <point x="104" y="1763" type="curve"/>
    </contour>
  </outline>
</glyph>
<glyph name="matraO.dv" format="2">
  <advance width="466"/>
  <unicode hex="094B"/>
  <outline>
    <contour>
      <point x="385" y="0" type="line"/>
      <point x="81" y="0" type="line"/>
      <point x="81" y="1156" type="line"/>
      <point x="385" y="1156" type="line"/>
    </contour>
    <contour>
      <point x="508" y="1067" type="line"/>
      <point x="-28" y="1067" type="line"/>
      <point x="-42" y="1308" type="line"/>
      <point x="494" y="1308" type="line"/>
    </contour>
    <contour>
      <point x="-396" y="1763" type="line"/>
      <point x="-48" y="1763" type="line"/>
      <point x="34.6322" y="1664.63"/>
      <point x="269.834" y="1384.63"/>
      <point x="351" y="1288" type="curve"/>
      <point x="351" y="1255" type="line"/>
      <point x="83" y="1255" type="line"/>
      <point x="83" y="1317" type="line"/>
      <point x="-55" y="1378"/>
      <point x="-128" y="1436"/>
      <point x="-234" y="1555" type="curve" smooth="yes"/>
      <point x="-396" y="1737" type="line"/>
    </contour>
  </outline>
</glyph>
<glyph name="matraAu.dv" format="2">
  <advance width="466"/>
  <unicode hex="094C"/>
  <outline>
    <contour>
      <point x="385" y="0" type="line"/>
      <point x="81" y="0" type="line"/>
      <point x="81" y="1156" type="line"/>
      <point x="385" y="1156" type="line"/>
    </contour>
    <contour>
      <point x="508" y="1067" type="line"/>
      <point x="-28" y="1067" type="line"/>
      <point x="-42" y="1308" type="line"/>
      <point x="494" y="1308" type="line"/>
    </contour>
    <contour>
      <point x="-178" y="1658" type="line"/>
      <point x="142" y="1406" type="line"/>
      <point x="148" y="1413" type="line"/>
      <point x="43" y="1524"/>
      <point x="-12" y="1590"/>
      <point x="-71" y="1706" type="curve" smooth="yes"/>
      <point x="-141" y="1846" type="line"/>
      <point x="-141" y="1860" type="line"/>
      <point x="146" y="1860" type="line"/>
      <point x="356" y="1294" type="line"/>
      <point x="356" y="1255" type="line"/>
      <point x="78" y="1255" type="line"/>
      <point x="78" y="1315" type="line"/>
      <point x="-104" y="1346"/>
      <point x="-200" y="1391"/>
      <point x="-323" y="1492" type="curve" smooth="yes"/>
      <point x="-498" y="1634" type="line"/>
      <point x="-498" y="1658" type="line"/>
    </contour>
  </outline>
</glyph>
<glyph name="Halant.dv" format="2">
  <unicode hex="094D"/>
  <anchor x="-243" y="37" name="_bottom2"/>
  <outline>
    <contour>
      <point x="-397" y="-121" type="line"/>
      <point x="-83" y="-121" type="line"/>
      <point x="178" y="-546" type="line"/>
      <point x="178" y="-559" type="line"/>
      <point x="-101" y="-559" type="line"/>
      <point x="-397" y="-151" type="line"/>
    </contour>
  </outline>
  <guideline angle="90" x="-233" y="0"/>
  <guideline angle="90" x="274" y="0"/>
  <guideline angle="90" x="-243" y="0"/>
  <guideline angle="0" x="0" y="37"/>
</glyph>
<glyph name="uni094E" format="2">
  <advance width="466"/>
  <unicode hex="094E"/>
  <outline>
    <contour>
      <point x="385" y="1156" type="line"/>
      <point x="385" y="0" type="line"/>
      <point x="83" y="0" type="line"/>
      <point x="83" y="1156" type="line"/>
    </contour>
    <contour>
      <point x="83" y="1067" type="line"/>
      <point x="83" y="1308" type="line"/>
      <point x="493" y="1308" type="line"/>
      <point x="508" y="1067" type="line"/>
    </contour>
  </outline>
</glyph>
<glyph name="Udatta.dv" format="2">
  <unicode hex="0951"/>
  <anchor x="-233" y="1255" name="_top"/>
  <outline>
    <contour>
      <point x="-361" y="1468" type="line"/>
      <point x="-361" y="1956" type="line"/>
      <point x="-102" y="1956" type="line"/>
      <point x="-102" y="1468" type="line"/>
    </contour>
  </outline>
</glyph>
<glyph name="Anudatta.dv" format="2">
  <unicode hex="0952"/>
  <anchor x="-81" y="37" name="_bottom3"/>
  <outline>
    <contour>
      <point x="-753" y="-440" type="line"/>
      <point x="-768" y="-203" type="line"/>
      <point x="-81" y="-203" type="line"/>
      <point x="-67" y="-440" type="line"/>
    </contour>
  </outline>
</glyph>
<glyph name="uni0953" format="2">
  <unicode hex="0953"/>
  <anchor x="-233" y="1255" name="_top"/>
  <outline>
    <contour>
      <point x="-390" y="1389" type="line"/>
      <point x="-633" y="1759" type="line"/>
      <point x="-633" y="1774" type="line"/>
      <point x="-300" y="1774" type="line"/>
      <point x="-112" y="1397" type="line"/>
      <point x="-112" y="1389" type="line"/>
    </contour>
  </outline>
</glyph>
<glyph name="uni0954" format="2">
  <unicode hex="0954"/>
  <anchor x="-233" y="1255" name="_top"/>
  <outline>
    <contour>
      <point x="-77" y="1389" type="line"/>
      <point x="-355" y="1389" type="line"/>
      <point x="-355" y="1397" type="line"/>
      <point x="-167" y="1774" type="line"/>
      <point x="166" y="1774" type="line"/>
      <point x="166" y="1759" type="line"/>
    </contour>
  </outline>
</glyph>
<glyph name="uni0955" format="2">
  <unicode hex="0955"/>
  <anchor x="-233" y="1255" name="_top"/>
  <outline>
    <contour>
      <point x="-155" y="1910" type="line"/>
      <point x="38" y="1910" type="line"/>
      <point x="40" y="1890"/>
      <point x="40" y="1877"/>
      <point x="40" y="1866" type="curve" smooth="yes"/>
      <point x="40" y="1709"/>
      <point x="-50" y="1616"/>
      <point x="-243" y="1616" type="curve" smooth="yes"/>
      <point x="-436" y="1616"/>
      <point x="-526" y="1709"/>
      <point x="-526" y="1866" type="curve" smooth="yes"/>
      <point x="-526" y="1877"/>
      <point x="-526" y="1890"/>
      <point x="-524" y="1910" type="curve"/>
      <point x="-331" y="1910" type="line"/>
      <point x="-331" y="1884" type="line" smooth="yes"/>
      <point x="-331" y="1814"/>
      <point x="-305" y="1785"/>
      <point x="-243" y="1785" type="curve" smooth="yes"/>
      <point x="-180" y="1785"/>
      <point x="-155" y="1814"/>
      <point x="-155" y="1884" type="curve" smooth="yes"/>
    </contour>
    <contour>
      <point x="-521" y="1373" type="line"/>
      <point x="-521" y="1557" type="line"/>
      <point x="35" y="1557" type="line"/>
      <point x="35" y="1373" type="line"/>
    </contour>
  </outline>
  <guideline angle="90" x="-233" y="0"/>
  <guideline angle="0" x="0" y="1255"/>
</glyph>
<glyph name="uni0956" format="2">
  <unicode hex="0956"/>
  <anchor x="-233" y="55" name="_bottom5"/>
  <outline>
    <contour>
      <point x="-233" y="-434" type="curve" smooth="yes"/>
      <point x="-379" y="-434"/>
      <point x="-498.29" y="-406.628"/>
      <point x="-584" y="-363" type="curve"/>
      <point x="-594" y="-98" type="line"/>
      <point x="-500" y="-144.412"/>
      <point x="-376" y="-176"/>
      <point x="-233" y="-176" type="curve" smooth="yes"/>
      <point x="-90" y="-176"/>
      <point x="34" y="-144.412"/>
      <point x="128" y="-98" type="curve"/>
      <point x="118" y="-363" type="line"/>
      <point x="35.2901" y="-407.657"/>
      <point x="-87" y="-434"/>
    </contour>
  </outline>
</glyph>
<glyph name="uni0957" format="2">
  <unicode hex="0957"/>
  <anchor x="-233" y="55" name="_bottom5"/>
  <outline>
    <contour>
      <point x="-233" y="-381" type="curve" smooth="yes"/>
      <point x="-379" y="-381"/>
      <point x="-498.29" y="-353.628"/>
      <point x="-584" y="-310" type="curve"/>
      <point x="-594" y="-85" type="line"/>
      <point x="-500" y="-131.412"/>
      <point x="-376" y="-163"/>
      <point x="-233" y="-163" type="curve" smooth="yes"/>
      <point x="-90" y="-163"/>
      <point x="34" y="-131.412"/>
      <point x="128" y="-85" type="curve"/>
      <point x="118" y="-310" type="line"/>
      <point x="35.2901" y="-354.657"/>
      <point x="-87" y="-381"/>
    </contour>
    <contour>
      <point x="-233" y="-701" type="curve" smooth="yes"/>
      <point x="-379" y="-701"/>
      <point x="-498.29" y="-673.628"/>
      <point x="-584" y="-630" type="curve"/>
      <point x="-594" y="-405" type="line"/>
      <point x="-500" y="-451.412"/>
      <point x="-376" y="-483"/>
      <point x="-233" y="-483" type="curve" smooth="yes"/>
      <point x="-90" y="-483"/>
      <point x="34" y="-451.412"/>
      <point x="128" y="-405" type="curve"/>
      <point x="118" y="-630" type="line"/>
      <point x="35.2901" y="-674.657"/>
      <point x="-87" y="-701"/>
    </contour>
  </outline>
  <guideline angle="90" x="-233" y="0"/>
  <guideline angle="0" x="0" y="37"/>
</glyph>
<glyph name="KaNukta.dv" format="2">
  <advance width="1308"/>
  <unicode hex="0958"/>
  <anchor x="659" y="38" name="bottom"/>
  <anchor x="649" y="38" name="bottom2"/>
  <anchor x="994" y="38" name="bottom3"/>
  <anchor x="659" y="56" name="bottom5"/>
  <anchor x="659" y="1256" name="top"/>
  <outline>
    <contour>
      <point x="-28" y="1067" type="line"/>
      <point x="-42" y="1308" type="line"/>
      <point x="1337" y="1308" type="line"/>
      <point x="1351" y="1067" type="line"/>
    </contour>
    <contour>
      <point x="53" y="484" type="curve" smooth="yes"/>
      <point x="53" y="580" type="line" smooth="yes"/>
      <point x="53" y="847"/>
      <point x="145" y="962"/>
      <point x="339" y="962" type="curve" smooth="yes"/>
      <point x="377" y="962"/>
      <point x="412" y="957"/>
      <point x="436" y="949" type="curve"/>
      <point x="454" y="699" type="line"/>
      <point x="441" y="701"/>
      <point x="440" y="701"/>
      <point x="431" y="701" type="curve" smooth="yes"/>
      <point x="377" y="701"/>
      <point x="353" y="664"/>
      <point x="353" y="573" type="curve" smooth="yes"/>
      <point x="353" y="503" type="line" smooth="yes"/>
      <point x="353" y="412"/>
      <point x="379" y="379"/>
      <point x="432" y="379" type="curve" smooth="yes"/>
      <point x="478" y="379"/>
      <point x="506" y="412"/>
      <point x="512" y="471" type="curve"/>
      <point x="530" y="287" type="line"/>
      <point x="497" y="287" type="line"/>
      <point x="475" y="180"/>
      <point x="412" y="118"/>
      <point x="298" y="118" type="curve" smooth="yes"/>
      <point x="136" y="118"/>
      <point x="53" y="222"/>
    </contour>
    <contour>
      <point x="1259" y="595" type="curve" smooth="yes"/>
      <point x="1259" y="501" type="line" smooth="yes"/>
      <point x="1259" y="233"/>
      <point x="1172" y="118"/>
      <point x="979" y="118" type="curve" smooth="yes"/>
      <point x="938" y="118"/>
      <point x="905" y="123"/>
      <point x="881" y="131" type="curve"/>
      <point x="863" y="381" type="line"/>
      <point x="870" y="380"/>
      <point x="878" y="379"/>
      <point x="887" y="379" type="curve" smooth="yes"/>
      <point x="940" y="379"/>
      <point x="959" y="413"/>
      <point x="959" y="507" type="curve" smooth="yes"/>
      <point x="959" y="570" type="line" smooth="yes"/>
      <point x="959" y="662"/>
      <point x="938" y="701"/>
      <point x="885" y="701" type="curve" smooth="yes"/>
      <point x="839" y="701"/>
      <point x="811" y="668"/>
      <point x="806" y="609" type="curve"/>
      <point x="788" y="793" type="line"/>
      <point x="821" y="793" type="line"/>
      <point x="843" y="900"/>
      <point x="903" y="962"/>
      <point x="1019" y="962" type="curve" smooth="yes"/>
      <point x="1174" y="962"/>
      <point x="1259" y="856"/>
    </contour>
    <contour>
      <point x="811" y="1157" type="line"/>
      <point x="811" y="1" type="line"/>
      <point x="507" y="1" type="line"/>
      <point x="507" y="1157" type="line"/>
    </contour>
    <contour>
      <point x="254" y="-252" type="curve" smooth="yes"/>
      <point x="153" y="-252"/>
      <point x="107" y="-193"/>
      <point x="107" y="-97" type="curve"/>
      <point x="107" y="-95.6742"/>
      <point x="107" y="-92.1483"/>
      <point x="107" y="-91" type="curve"/>
      <point x="107" y="5"/>
      <point x="153" y="64"/>
      <point x="254" y="64" type="curve" smooth="yes"/>
      <point x="355" y="64"/>
      <point x="401" y="5"/>
      <point x="401" y="-91" type="curve"/>
      <point x="401" y="-92.3258"/>
      <point x="401" y="-95.8517"/>
      <point x="401" y="-97" type="curve"/>
      <point x="401" y="-193"/>
      <point x="355" y="-252"/>
    </contour>
  </outline>
  <guideline angle="90" x="129" y="0"/>
  <guideline angle="90" x="659" y="0"/>
  <guideline angle="0" x="0" y="38"/>
  <guideline angle="0" x="0" y="1256"/>
  <guideline angle="90" x="649" y="0"/>
  <guideline angle="90" x="811" y="0"/>
  <guideline angle="0" x="0" y="56"/>
</glyph>
<glyph name="KhaNukta.dv" format="2">
  <advance width="1329"/>
  <unicode hex="0959"/>
  <anchor x="1096" y="37" name="bottom"/>
  <anchor x="1086" y="37" name="bottom2"/>
  <anchor x="1248" y="37" name="bottom3"/>
  <anchor x="1096" y="55" name="bottom5"/>
  <anchor x="1096" y="1255" name="top"/>
  <outline>
    <contour>
      <point x="1248" y="1156" type="line"/>
      <point x="1248" y="0" type="line"/>
      <point x="944" y="0" type="line"/>
      <point x="944" y="1156" type="line"/>
    </contour>
    <contour>
      <point x="921" y="1067" type="line"/>
      <point x="907" y="1308" type="line"/>
      <point x="1357" y="1308" type="line"/>
      <point x="1371" y="1067" type="line"/>
    </contour>
    <contour>
      <point x="-28" y="1067" type="line"/>
      <point x="-42" y="1308" type="line"/>
      <point x="1357" y="1308" type="line"/>
      <point x="1371" y="1067" type="line"/>
    </contour>
    <contour>
      <point x="496" y="887" type="curve" smooth="yes"/>
      <point x="496" y="846" type="line" smooth="yes"/>
      <point x="496" y="591"/>
      <point x="411" y="504"/>
      <point x="204" y="484" type="curve" smooth="yes"/>
      <point x="153" y="479" type="line"/>
      <point x="31" y="705" type="line"/>
      <point x="66" y="705" type="line" smooth="yes"/>
      <point x="153" y="705"/>
      <point x="195" y="754"/>
      <point x="195" y="883" type="curve" smooth="yes"/>
      <point x="195" y="918" type="line" smooth="yes"/>
      <point x="195" y="1012"/>
      <point x="186" y="1067"/>
      <point x="156" y="1110" type="curve"/>
      <point x="452" y="1110" type="line"/>
      <point x="483" y="1064"/>
      <point x="496" y="990"/>
    </contour>
    <contour>
      <point x="835" y="6" type="line"/>
      <point x="788" y="-9"/>
      <point x="731" y="-17"/>
      <point x="662" y="-17" type="curve" smooth="yes"/>
      <point x="346" y="-17"/>
      <point x="189" y="121"/>
      <point x="120" y="405" type="curve" smooth="yes"/>
      <point x="112" y="438" type="line"/>
      <point x="31" y="450" type="line"/>
      <point x="31" y="705" type="line"/>
      <point x="351" y="565" type="line"/>
      <point x="362" y="523" type="line" smooth="yes"/>
      <point x="411" y="336"/>
      <point x="519" y="247"/>
      <point x="725" y="247" type="curve" smooth="yes"/>
      <point x="824" y="247"/>
      <point x="903" y="267"/>
      <point x="957" y="298" type="curve"/>
      <point x="957" y="261" type="line"/>
    </contour>
    <contour>
      <point x="769" y="346" type="curve" smooth="yes"/>
      <point x="637" y="346"/>
      <point x="554" y="427"/>
      <point x="554" y="631" type="curve" smooth="yes"/>
      <point x="554" y="681" type="line" smooth="yes"/>
      <point x="554" y="889"/>
      <point x="635" y="983"/>
      <point x="795" y="983" type="curve" smooth="yes"/>
      <point x="826" y="983"/>
      <point x="854" y="979"/>
      <point x="876" y="973" type="curve"/>
      <point x="894" y="748" type="line"/>
      <point x="886" y="749"/>
      <point x="883" y="749"/>
      <point x="878" y="749" type="curve" smooth="yes"/>
      <point x="844" y="749"/>
      <point x="826" y="728"/>
      <point x="826" y="670" type="curve" smooth="yes"/>
      <point x="826" y="661" type="line" smooth="yes"/>
      <point x="826" y="599"/>
      <point x="846" y="580"/>
      <point x="887" y="580" type="curve" smooth="yes"/>
      <point x="924" y="580"/>
      <point x="946" y="597"/>
      <point x="953" y="638" type="curve"/>
      <point x="968" y="445" type="line"/>
      <point x="933" y="445" type="line"/>
      <point x="913" y="386"/>
      <point x="859" y="346"/>
    </contour>
    <contour>
      <point x="155" y="-231" type="curve" smooth="yes"/>
      <point x="54" y="-231"/>
      <point x="8" y="-172"/>
      <point x="8" y="-76" type="curve"/>
      <point x="8" y="-74.6742"/>
      <point x="8" y="-71.1483"/>
      <point x="8" y="-70" type="curve"/>
      <point x="8" y="26"/>
      <point x="54" y="85"/>
      <point x="155" y="85" type="curve" smooth="yes"/>
      <point x="256" y="85"/>
      <point x="302" y="26"/>
      <point x="302" y="-70" type="curve"/>
      <point x="302" y="-71.3258"/>
      <point x="302" y="-74.8517"/>
      <point x="302" y="-76" type="curve"/>
      <point x="302" y="-172"/>
      <point x="256" y="-231"/>
    </contour>
  </outline>
</glyph>
<glyph name="JaNukta.dv" format="2">
  <advance width="1082"/>
  <unicode hex="095B"/>
  <anchor x="849" y="37" name="bottom"/>
  <anchor x="839" y="37" name="bottom2"/>
  <anchor x="1001" y="37" name="bottom3"/>
  <anchor x="849" y="55" name="bottom5"/>
  <anchor x="849" y="1255" name="top"/>
  <outline>
    <contour>
      <point x="1001" y="1156" type="line"/>
      <point x="1001" y="0" type="line"/>
      <point x="697" y="0" type="line"/>
      <point x="697" y="1156" type="line"/>
    </contour>
    <contour>
      <point x="674" y="1067" type="line"/>
      <point x="660" y="1308" type="line"/>
      <point x="1110" y="1308" type="line"/>
      <point x="1124" y="1067" type="line"/>
    </contour>
    <contour>
      <point x="1124" y="1067" type="line"/>
      <point x="-28" y="1067" type="line"/>
      <point x="-42" y="1308" type="line"/>
      <point x="1110" y="1308" type="line"/>
    </contour>
    <contour>
      <point x="843" y="905" type="line"/>
      <point x="843" y="647" type="line"/>
      <point x="596" y="647" type="line"/>
      <point x="396" y="655" type="line"/>
      <point x="99" y="655" type="line"/>
      <point x="99" y="905" type="line"/>
    </contour>
    <contour>
      <point x="436" y="732" type="line"/>
      <point x="436" y="646" type="line"/>
      <point x="532.676" y="613"/>
      <point x="579" y="537"/>
      <point x="579" y="399" type="curve" smooth="yes"/>
      <point x="579" y="375" type="line" smooth="yes"/>
      <point x="579" y="166"/>
      <point x="480.683" y="61"/>
      <point x="269" y="61" type="curve" smooth="yes"/>
      <point x="178" y="61"/>
      <point x="108" y="79"/>
      <point x="52" y="112" type="curve"/>
      <point x="44" y="372" type="line"/>
      <point x="86" y="344"/>
      <point x="129" y="328"/>
      <point x="175" y="328" type="curve" smooth="yes"/>
      <point x="244.818" y="328"/>
      <point x="271" y="366"/>
      <point x="271" y="466" type="curve" smooth="yes"/>
      <point x="271" y="500" type="line" smooth="yes"/>
      <point x="271" y="609"/>
      <point x="245.024" y="641.895"/>
      <point x="177" y="648" type="curve" smooth="yes"/>
      <point x="99" y="655" type="line"/>
      <point x="99" y="732" type="line"/>
    </contour>
    <contour>
      <point x="276" y="-318" type="curve" smooth="yes"/>
      <point x="175" y="-318"/>
      <point x="129" y="-259"/>
      <point x="129" y="-163" type="curve"/>
      <point x="129" y="-161.674"/>
      <point x="129" y="-158.148"/>
      <point x="129" y="-157" type="curve"/>
      <point x="129" y="-61"/>
      <point x="175" y="-2"/>
      <point x="276" y="-2" type="curve" smooth="yes"/>
      <point x="377" y="-2"/>
      <point x="423" y="-61"/>
      <point x="423" y="-157" type="curve"/>
      <point x="423" y="-158.326"/>
      <point x="423" y="-161.852"/>
      <point x="423" y="-163" type="curve"/>
      <point x="423" y="-259"/>
      <point x="377" y="-318"/>
    </contour>
  </outline>
</glyph>
